%
M48
M72
T01C0.0236
T02C0.0394
T03C0.0400
%
T01
X12400Y5680
X14200Y5680
X16460Y7760
X19760Y9660
X20460Y9460
X17760Y11260
X19120Y12520
X18860Y14260
X22460Y12660
X16260Y17660
X13460Y19760
X22760Y18160
X24160Y20160
X28660Y19760
X32360Y19060
X36560Y21060
X33160Y28554
X32660Y30854
X26760Y28454
X26260Y30754
X20260Y28554
X19760Y30654
X13360Y28714
X13060Y30514
X37860Y12760
X30860Y11560
X29260Y8060
X32660Y6460
X29560Y4960
X25460Y6060
X20360Y7260
X35960Y7560
T02
X35760Y3760
X34760Y3760
X33760Y3760
X32760Y3760
X31760Y3760
X29760Y3760
X28760Y3760
X27760Y3760
X26760Y3760
X25760Y3760
X24760Y3760
X23760Y3760
X22760Y3760
X36760Y3760
X36760Y22760
X35760Y22760
X34760Y22760
X33760Y22760
X32760Y22760
X31760Y22760
X30760Y22760
X29760Y22760
X28160Y22760
X27160Y22760
X26160Y22760
X25160Y22760
X24160Y22760
X23160Y22760
X22160Y22760
X21160Y22760
X20160Y22760
X19160Y22760
T03
X19320Y25214
X20320Y25214
X21320Y25214
X22320Y25214
X25860Y25254
X26860Y25254
X27860Y25254
X28860Y25254
X32260Y25154
X33260Y25154
X34260Y25154
X35260Y25154
X34760Y17360
X33760Y17360
X32760Y17360
X30060Y17360
X29060Y17360
X28060Y17360
X27060Y17360
X27060Y13960
X28060Y13960
X29060Y13960
X30060Y13960
X32760Y13960
X33760Y13960
X34760Y13960
X35760Y13960
X35760Y17360
X15660Y25254
X14660Y25254
X13660Y25254
X12660Y25254
M30
