G75*
%MOIN*%
%OFA0B0*%
%FSLAX24Y24*%
%IPPOS*%
%LPD*%
%AMOC8*
5,1,8,0,0,1.08239X$1,22.5*
%
%ADD10R,0.4252X0.4098*%
%ADD11R,0.0420X0.0850*%
%ADD12R,0.0512X0.0630*%
%ADD13R,0.0197X0.0197*%
%ADD14R,0.0197X0.0228*%
%ADD15R,0.0591X0.0512*%
%ADD16R,0.0315X0.0087*%
%ADD17R,0.0630X0.0512*%
%ADD18R,0.1024X0.0630*%
%ADD19R,0.0472X0.1181*%
%ADD20R,0.0512X0.0591*%
%ADD21R,0.0591X0.0591*%
D10*
X027360Y010560D03*
D11*
X027360Y007280D03*
X026360Y007280D03*
X028360Y007280D03*
D12*
X028454Y006260D03*
X027666Y006260D03*
X027054Y006260D03*
X026266Y006260D03*
X026266Y005460D03*
X027054Y005460D03*
X027666Y005460D03*
X028454Y005460D03*
X034466Y027554D03*
X035254Y027554D03*
X034254Y030954D03*
X033466Y030954D03*
X033466Y031754D03*
X034254Y031754D03*
X027754Y031754D03*
X026966Y031754D03*
X026966Y030954D03*
X027754Y030954D03*
X027966Y027854D03*
X028754Y027854D03*
X022174Y027814D03*
X021386Y027814D03*
X021154Y031054D03*
X020366Y031054D03*
X020366Y031854D03*
X021154Y031854D03*
X014454Y031814D03*
X014454Y031114D03*
X013666Y031114D03*
X013666Y031814D03*
X014486Y027514D03*
X015274Y027514D03*
D13*
X014375Y029084D03*
X014375Y029399D03*
X014375Y029714D03*
X014375Y030029D03*
X014060Y030344D03*
X013745Y030344D03*
X013745Y030029D03*
X013745Y029714D03*
X013745Y029399D03*
X013745Y029084D03*
X014060Y029084D03*
X020505Y029044D03*
X020505Y029359D03*
X020505Y029674D03*
X020505Y029989D03*
X020505Y030304D03*
X020820Y030304D03*
X021135Y029989D03*
X021135Y029674D03*
X021135Y029359D03*
X021135Y029044D03*
X020820Y029044D03*
X027045Y029024D03*
X027045Y029339D03*
X027045Y029654D03*
X027045Y029969D03*
X027045Y030284D03*
X027360Y030284D03*
X027675Y029969D03*
X027675Y029654D03*
X027675Y029339D03*
X027675Y029024D03*
X027360Y029024D03*
X033545Y029024D03*
X033545Y029339D03*
X033545Y029654D03*
X033545Y029969D03*
X033545Y030284D03*
X033860Y030284D03*
X034175Y029969D03*
X034175Y029654D03*
X034175Y029339D03*
X034175Y029024D03*
X033860Y029024D03*
D14*
X034175Y030299D03*
X027675Y030299D03*
X021135Y030319D03*
X014375Y030359D03*
D15*
X012160Y006905D03*
X012160Y007575D03*
X013240Y007575D03*
X014200Y007575D03*
X014200Y006905D03*
X013240Y006905D03*
X015160Y006905D03*
X015160Y007575D03*
X031760Y005395D03*
X031760Y004725D03*
X032760Y004725D03*
X032760Y005395D03*
X033760Y005395D03*
X034760Y005395D03*
X034760Y004725D03*
X033760Y004725D03*
X036360Y004725D03*
X036360Y005395D03*
X023080Y020705D03*
X023080Y021375D03*
X015060Y029079D03*
X015060Y029748D03*
X021960Y029788D03*
X021960Y029119D03*
X028560Y029219D03*
X028560Y029888D03*
X034980Y029728D03*
X034980Y029059D03*
D16*
X035118Y026869D03*
X035118Y026711D03*
X035118Y026554D03*
X035118Y026396D03*
X035118Y026239D03*
X034402Y026239D03*
X034402Y026396D03*
X034402Y026554D03*
X034402Y026711D03*
X034402Y026869D03*
X028778Y026889D03*
X028778Y026731D03*
X028778Y026574D03*
X028778Y026416D03*
X028778Y026259D03*
X028062Y026259D03*
X028062Y026416D03*
X028062Y026574D03*
X028062Y026731D03*
X028062Y026889D03*
X022058Y026929D03*
X022058Y026771D03*
X022058Y026614D03*
X022058Y026456D03*
X022058Y026299D03*
X021342Y026299D03*
X021342Y026456D03*
X021342Y026614D03*
X021342Y026771D03*
X021342Y026929D03*
X015238Y026929D03*
X015238Y026771D03*
X015238Y026614D03*
X015238Y026456D03*
X015238Y026299D03*
X014522Y026299D03*
X014522Y026456D03*
X014522Y026614D03*
X014522Y026771D03*
X014522Y026929D03*
D17*
X013680Y027107D03*
X013680Y026320D03*
X020260Y026420D03*
X020260Y027207D03*
X026860Y027047D03*
X026860Y026260D03*
X033260Y026160D03*
X033260Y026947D03*
X019120Y011834D03*
X019120Y011046D03*
D18*
X029411Y006800D03*
X030829Y006800D03*
D19*
X017668Y009852D03*
X016881Y009852D03*
X016094Y009852D03*
X015306Y009852D03*
X014519Y009852D03*
X013731Y009852D03*
X012944Y009852D03*
X012157Y009852D03*
X012157Y016309D03*
X012944Y016309D03*
X013731Y016309D03*
X014519Y016309D03*
X015306Y016309D03*
X016094Y016309D03*
X016881Y016309D03*
X017668Y016309D03*
D20*
X015135Y018040D03*
X014465Y018040D03*
X013695Y018040D03*
X013025Y018040D03*
D21*
X013511Y020680D03*
X014889Y020680D03*
M02*
