G75*
%MOIN*%
%OFA0B0*%
%FSLAX24Y24*%
%IPPOS*%
%LPD*%
%AMOC8*
5,1,8,0,0,1.08239X$1,22.5*
%
%ADD10R,0.4332X0.4178*%
%ADD11R,0.0500X0.0930*%
%ADD12R,0.0592X0.0710*%
%ADD13R,0.0277X0.0277*%
%ADD14R,0.0277X0.0308*%
%ADD15R,0.0671X0.0592*%
%ADD16C,0.0787*%
%ADD17OC8,0.0740*%
%ADD18C,0.0680*%
%ADD19R,0.0395X0.0167*%
%ADD20R,0.0710X0.0592*%
%ADD21R,0.1104X0.0710*%
%ADD22R,0.0552X0.1261*%
%ADD23R,0.0592X0.0671*%
%ADD24R,0.0671X0.0671*%
%ADD25C,0.0516*%
D10*
X027360Y010560D03*
D11*
X027360Y007280D03*
X026360Y007280D03*
X028360Y007280D03*
D12*
X028454Y006260D03*
X027666Y006260D03*
X027054Y006260D03*
X026266Y006260D03*
X026266Y005460D03*
X027054Y005460D03*
X027666Y005460D03*
X028454Y005460D03*
X034466Y027554D03*
X035254Y027554D03*
X034254Y030954D03*
X033466Y030954D03*
X033466Y031754D03*
X034254Y031754D03*
X027754Y031754D03*
X026966Y031754D03*
X026966Y030954D03*
X027754Y030954D03*
X027966Y027854D03*
X028754Y027854D03*
X022174Y027814D03*
X021386Y027814D03*
X021154Y031054D03*
X020366Y031054D03*
X020366Y031854D03*
X021154Y031854D03*
X014454Y031814D03*
X014454Y031114D03*
X013666Y031114D03*
X013666Y031814D03*
X014486Y027514D03*
X015274Y027514D03*
D13*
X014375Y029084D03*
X014375Y029399D03*
X014375Y029714D03*
X014375Y030029D03*
X014060Y030344D03*
X013745Y030344D03*
X013745Y030029D03*
X013745Y029714D03*
X013745Y029399D03*
X013745Y029084D03*
X014060Y029084D03*
X020505Y029044D03*
X020505Y029359D03*
X020505Y029674D03*
X020505Y029989D03*
X020505Y030304D03*
X020820Y030304D03*
X021135Y029989D03*
X021135Y029674D03*
X021135Y029359D03*
X021135Y029044D03*
X020820Y029044D03*
X027045Y029024D03*
X027045Y029339D03*
X027045Y029654D03*
X027045Y029969D03*
X027045Y030284D03*
X027360Y030284D03*
X027675Y029969D03*
X027675Y029654D03*
X027675Y029339D03*
X027675Y029024D03*
X027360Y029024D03*
X033545Y029024D03*
X033545Y029339D03*
X033545Y029654D03*
X033545Y029969D03*
X033545Y030284D03*
X033860Y030284D03*
X034175Y029969D03*
X034175Y029654D03*
X034175Y029339D03*
X034175Y029024D03*
X033860Y029024D03*
D14*
X034175Y030299D03*
X027675Y030299D03*
X021135Y030319D03*
X014375Y030359D03*
D15*
X015060Y029748D03*
X015060Y029079D03*
X021960Y029119D03*
X021960Y029788D03*
X028560Y029888D03*
X028560Y029219D03*
X034980Y029059D03*
X034980Y029728D03*
X023080Y021375D03*
X023080Y020705D03*
X015160Y007575D03*
X015160Y006905D03*
X014200Y006905D03*
X013240Y006905D03*
X013240Y007575D03*
X014200Y007575D03*
X012160Y007575D03*
X012160Y006905D03*
X031760Y005395D03*
X031760Y004725D03*
X032760Y004725D03*
X032760Y005395D03*
X033760Y005395D03*
X034760Y005395D03*
X034760Y004725D03*
X033760Y004725D03*
X036360Y004725D03*
X036360Y005395D03*
D16*
X012260Y003260D03*
X038160Y007360D03*
X037060Y019260D03*
X012260Y023260D03*
D17*
X019160Y022760D03*
X020160Y022760D03*
X021160Y022760D03*
X022160Y022760D03*
X023160Y022760D03*
X024160Y022760D03*
X025160Y022760D03*
X026160Y022760D03*
X027160Y022760D03*
X028160Y022760D03*
X029760Y022760D03*
X030760Y022760D03*
X031760Y022760D03*
X032760Y022760D03*
X033760Y022760D03*
X034760Y022760D03*
X035760Y022760D03*
X036760Y022760D03*
X036760Y003760D03*
X035760Y003760D03*
X034760Y003760D03*
X033760Y003760D03*
X032760Y003760D03*
X031760Y003760D03*
X029760Y003760D03*
X028760Y003760D03*
X027760Y003760D03*
X026760Y003760D03*
X025760Y003760D03*
X024760Y003760D03*
X023760Y003760D03*
X022760Y003760D03*
D18*
X027060Y013660D02*
X027060Y014260D01*
X028060Y014260D02*
X028060Y013660D01*
X029060Y013660D02*
X029060Y014260D01*
X030060Y014260D02*
X030060Y013660D01*
X032760Y013660D02*
X032760Y014260D01*
X033760Y014260D02*
X033760Y013660D01*
X034760Y013660D02*
X034760Y014260D01*
X035760Y014260D02*
X035760Y013660D01*
X035760Y017060D02*
X035760Y017660D01*
X034760Y017660D02*
X034760Y017060D01*
X033760Y017060D02*
X033760Y017660D01*
X032760Y017660D02*
X032760Y017060D01*
X030060Y017060D02*
X030060Y017660D01*
X029060Y017660D02*
X029060Y017060D01*
X028060Y017060D02*
X028060Y017660D01*
X027060Y017660D02*
X027060Y017060D01*
X026860Y024954D02*
X026860Y025554D01*
X025860Y025554D02*
X025860Y024954D01*
X027860Y024954D02*
X027860Y025554D01*
X028860Y025554D02*
X028860Y024954D01*
X032260Y024854D02*
X032260Y025454D01*
X033260Y025454D02*
X033260Y024854D01*
X034260Y024854D02*
X034260Y025454D01*
X035260Y025454D02*
X035260Y024854D01*
X022320Y024914D02*
X022320Y025514D01*
X021320Y025514D02*
X021320Y024914D01*
X020320Y024914D02*
X020320Y025514D01*
X019320Y025514D02*
X019320Y024914D01*
X015660Y024954D02*
X015660Y025554D01*
X014660Y025554D02*
X014660Y024954D01*
X013660Y024954D02*
X013660Y025554D01*
X012660Y025554D02*
X012660Y024954D01*
D19*
X014522Y026299D03*
X014522Y026456D03*
X014522Y026614D03*
X014522Y026771D03*
X014522Y026929D03*
X015238Y026929D03*
X015238Y026771D03*
X015238Y026614D03*
X015238Y026456D03*
X015238Y026299D03*
X021342Y026299D03*
X021342Y026456D03*
X021342Y026614D03*
X021342Y026771D03*
X021342Y026929D03*
X022058Y026929D03*
X022058Y026771D03*
X022058Y026614D03*
X022058Y026456D03*
X022058Y026299D03*
X028062Y026259D03*
X028062Y026416D03*
X028062Y026574D03*
X028062Y026731D03*
X028062Y026889D03*
X028778Y026889D03*
X028778Y026731D03*
X028778Y026574D03*
X028778Y026416D03*
X028778Y026259D03*
X034402Y026239D03*
X034402Y026396D03*
X034402Y026554D03*
X034402Y026711D03*
X034402Y026869D03*
X035118Y026869D03*
X035118Y026711D03*
X035118Y026554D03*
X035118Y026396D03*
X035118Y026239D03*
D20*
X033260Y026160D03*
X033260Y026947D03*
X026860Y027047D03*
X026860Y026260D03*
X020260Y026420D03*
X020260Y027207D03*
X013680Y027107D03*
X013680Y026320D03*
X019120Y011834D03*
X019120Y011046D03*
D21*
X029411Y006800D03*
X030829Y006800D03*
D22*
X017668Y009852D03*
X016881Y009852D03*
X016094Y009852D03*
X015306Y009852D03*
X014519Y009852D03*
X013731Y009852D03*
X012944Y009852D03*
X012157Y009852D03*
X012157Y016309D03*
X012944Y016309D03*
X013731Y016309D03*
X014519Y016309D03*
X015306Y016309D03*
X016094Y016309D03*
X016881Y016309D03*
X017668Y016309D03*
D23*
X015135Y018040D03*
X014465Y018040D03*
X013695Y018040D03*
X013025Y018040D03*
D24*
X013511Y020680D03*
X014889Y020680D03*
D25*
X013460Y019760D03*
X016260Y017660D03*
X018860Y014260D03*
X019120Y012520D03*
X017760Y011260D03*
X019760Y009660D03*
X020460Y009460D03*
X020360Y007260D03*
X016460Y007760D03*
X014200Y005680D03*
X012400Y005680D03*
X022460Y012660D03*
X029260Y008060D03*
X032660Y006460D03*
X029560Y004960D03*
X025460Y006060D03*
X030860Y011560D03*
X035960Y007560D03*
X037860Y012760D03*
X032360Y019060D03*
X028660Y019760D03*
X024160Y020160D03*
X022760Y018160D03*
X036560Y021060D03*
X033160Y028554D03*
X032660Y030854D03*
X026760Y028454D03*
X026260Y030754D03*
X020260Y028554D03*
X019760Y030654D03*
X013360Y028714D03*
X013060Y030514D03*
M02*
