G75*
%MOIN*%
%OFA0B0*%
%FSLAX24Y24*%
%IPPOS*%
%LPD*%
%AMOC8*
5,1,8,0,0,1.08239X$1,22.5*
%
%ADD10C,0.0000*%
%ADD11C,0.0160*%
D10*
X011660Y002660D02*
X011660Y023860D01*
X011960Y023860D01*
X011960Y032754D01*
X016360Y032754D01*
X016360Y023860D01*
X018660Y023860D01*
X018660Y032754D01*
X023060Y032754D01*
X023060Y023860D01*
X025260Y023860D01*
X025260Y032754D01*
X029560Y032754D01*
X029560Y023860D01*
X031660Y023860D01*
X031660Y032754D01*
X035960Y032754D01*
X035960Y023860D01*
X037160Y023860D01*
X037860Y023160D01*
X037860Y018660D01*
X038860Y017660D01*
X038860Y004760D01*
X037860Y003760D01*
X037860Y002660D01*
X011660Y002660D01*
D11*
X012360Y023860D02*
X012360Y024160D01*
X015860Y024160D01*
X015860Y023860D01*
X012360Y023860D01*
X012360Y023958D02*
X015860Y023958D01*
X015860Y024116D02*
X012360Y024116D01*
X019060Y024116D02*
X022560Y024116D01*
X022560Y024260D02*
X022560Y023860D01*
X019060Y023860D01*
X019060Y024260D01*
X022560Y024260D01*
X022560Y023958D02*
X019060Y023958D01*
X025760Y023958D02*
X029260Y023958D01*
X029260Y023860D02*
X029260Y024160D01*
X025760Y024160D01*
X025760Y023860D01*
X029260Y023860D01*
X029260Y024116D02*
X025760Y024116D01*
X032060Y024116D02*
X035560Y024116D01*
X035560Y024160D02*
X035560Y023860D01*
X032060Y023860D01*
X032060Y024160D01*
X035560Y024160D01*
X035560Y023958D02*
X032060Y023958D01*
M02*
