G75*
%MOIN*%
%OFA0B0*%
%FSLAX24Y24*%
%IPPOS*%
%LPD*%
%AMOC8*
5,1,8,0,0,1.08239X$1,22.5*
%
%ADD10R,0.4252X0.4098*%
%ADD11R,0.0420X0.0850*%
%ADD12R,0.0512X0.0630*%
%ADD13R,0.0197X0.0197*%
%ADD14R,0.0197X0.0228*%
%ADD15R,0.0591X0.0512*%
%ADD16C,0.0394*%
%ADD17OC8,0.0660*%
%ADD18C,0.0600*%
%ADD19R,0.0315X0.0087*%
%ADD20R,0.0630X0.0512*%
%ADD21R,0.1024X0.0630*%
%ADD22R,0.0472X0.1181*%
%ADD23R,0.0512X0.0591*%
%ADD24R,0.0591X0.0591*%
%ADD25C,0.0320*%
%ADD26C,0.0160*%
%ADD27C,0.0100*%
%ADD28C,0.0240*%
%ADD29C,0.0436*%
%ADD30C,0.0120*%
D10*
X027360Y010560D03*
D11*
X027360Y007280D03*
X026360Y007280D03*
X028360Y007280D03*
D12*
X028454Y006260D03*
X027666Y006260D03*
X027054Y006260D03*
X026266Y006260D03*
X026266Y005460D03*
X027054Y005460D03*
X027666Y005460D03*
X028454Y005460D03*
X034466Y027554D03*
X035254Y027554D03*
X034254Y030954D03*
X033466Y030954D03*
X033466Y031754D03*
X034254Y031754D03*
X027754Y031754D03*
X026966Y031754D03*
X026966Y030954D03*
X027754Y030954D03*
X027966Y027854D03*
X028754Y027854D03*
X022174Y027814D03*
X021386Y027814D03*
X021154Y031054D03*
X020366Y031054D03*
X020366Y031854D03*
X021154Y031854D03*
X014454Y031814D03*
X014454Y031114D03*
X013666Y031114D03*
X013666Y031814D03*
X014486Y027514D03*
X015274Y027514D03*
D13*
X014375Y029084D03*
X014375Y029399D03*
X014375Y029714D03*
X014375Y030029D03*
X014060Y030344D03*
X013745Y030344D03*
X013745Y030029D03*
X013745Y029714D03*
X013745Y029399D03*
X013745Y029084D03*
X014060Y029084D03*
X020505Y029044D03*
X020505Y029359D03*
X020505Y029674D03*
X020505Y029989D03*
X020505Y030304D03*
X020820Y030304D03*
X021135Y029989D03*
X021135Y029674D03*
X021135Y029359D03*
X021135Y029044D03*
X020820Y029044D03*
X027045Y029024D03*
X027045Y029339D03*
X027045Y029654D03*
X027045Y029969D03*
X027045Y030284D03*
X027360Y030284D03*
X027675Y029969D03*
X027675Y029654D03*
X027675Y029339D03*
X027675Y029024D03*
X027360Y029024D03*
X033545Y029024D03*
X033545Y029339D03*
X033545Y029654D03*
X033545Y029969D03*
X033545Y030284D03*
X033860Y030284D03*
X034175Y029969D03*
X034175Y029654D03*
X034175Y029339D03*
X034175Y029024D03*
X033860Y029024D03*
D14*
X034175Y030299D03*
X027675Y030299D03*
X021135Y030319D03*
X014375Y030359D03*
D15*
X015060Y029748D03*
X015060Y029079D03*
X021960Y029119D03*
X021960Y029788D03*
X028560Y029888D03*
X028560Y029219D03*
X034980Y029059D03*
X034980Y029728D03*
X023080Y021375D03*
X023080Y020705D03*
X015160Y007575D03*
X015160Y006905D03*
X014200Y006905D03*
X013240Y006905D03*
X013240Y007575D03*
X014200Y007575D03*
X012160Y007575D03*
X012160Y006905D03*
X031760Y005395D03*
X031760Y004725D03*
X032760Y004725D03*
X032760Y005395D03*
X033760Y005395D03*
X034760Y005395D03*
X034760Y004725D03*
X033760Y004725D03*
X036360Y004725D03*
X036360Y005395D03*
D16*
X038160Y007360D03*
X037060Y019260D03*
X012260Y023260D03*
X012260Y003260D03*
D17*
X022760Y003760D03*
X023760Y003760D03*
X024760Y003760D03*
X025760Y003760D03*
X026760Y003760D03*
X027760Y003760D03*
X028760Y003760D03*
X029760Y003760D03*
X031760Y003760D03*
X032760Y003760D03*
X033760Y003760D03*
X034760Y003760D03*
X035760Y003760D03*
X036760Y003760D03*
X036760Y022760D03*
X035760Y022760D03*
X034760Y022760D03*
X033760Y022760D03*
X032760Y022760D03*
X031760Y022760D03*
X030760Y022760D03*
X029760Y022760D03*
X028160Y022760D03*
X027160Y022760D03*
X026160Y022760D03*
X025160Y022760D03*
X024160Y022760D03*
X023160Y022760D03*
X022160Y022760D03*
X021160Y022760D03*
X020160Y022760D03*
X019160Y022760D03*
D18*
X019320Y024914D02*
X019320Y025514D01*
X020320Y025514D02*
X020320Y024914D01*
X021320Y024914D02*
X021320Y025514D01*
X022320Y025514D02*
X022320Y024914D01*
X025860Y024954D02*
X025860Y025554D01*
X026860Y025554D02*
X026860Y024954D01*
X027860Y024954D02*
X027860Y025554D01*
X028860Y025554D02*
X028860Y024954D01*
X032260Y024854D02*
X032260Y025454D01*
X033260Y025454D02*
X033260Y024854D01*
X034260Y024854D02*
X034260Y025454D01*
X035260Y025454D02*
X035260Y024854D01*
X034760Y017660D02*
X034760Y017060D01*
X033760Y017060D02*
X033760Y017660D01*
X032760Y017660D02*
X032760Y017060D01*
X030060Y017060D02*
X030060Y017660D01*
X029060Y017660D02*
X029060Y017060D01*
X028060Y017060D02*
X028060Y017660D01*
X027060Y017660D02*
X027060Y017060D01*
X027060Y014260D02*
X027060Y013660D01*
X028060Y013660D02*
X028060Y014260D01*
X029060Y014260D02*
X029060Y013660D01*
X030060Y013660D02*
X030060Y014260D01*
X032760Y014260D02*
X032760Y013660D01*
X033760Y013660D02*
X033760Y014260D01*
X034760Y014260D02*
X034760Y013660D01*
X035760Y013660D02*
X035760Y014260D01*
X035760Y017060D02*
X035760Y017660D01*
X015660Y024954D02*
X015660Y025554D01*
X014660Y025554D02*
X014660Y024954D01*
X013660Y024954D02*
X013660Y025554D01*
X012660Y025554D02*
X012660Y024954D01*
D19*
X014522Y026299D03*
X014522Y026456D03*
X014522Y026614D03*
X014522Y026771D03*
X014522Y026929D03*
X015238Y026929D03*
X015238Y026771D03*
X015238Y026614D03*
X015238Y026456D03*
X015238Y026299D03*
X021342Y026299D03*
X021342Y026456D03*
X021342Y026614D03*
X021342Y026771D03*
X021342Y026929D03*
X022058Y026929D03*
X022058Y026771D03*
X022058Y026614D03*
X022058Y026456D03*
X022058Y026299D03*
X028062Y026259D03*
X028062Y026416D03*
X028062Y026574D03*
X028062Y026731D03*
X028062Y026889D03*
X028778Y026889D03*
X028778Y026731D03*
X028778Y026574D03*
X028778Y026416D03*
X028778Y026259D03*
X034402Y026239D03*
X034402Y026396D03*
X034402Y026554D03*
X034402Y026711D03*
X034402Y026869D03*
X035118Y026869D03*
X035118Y026711D03*
X035118Y026554D03*
X035118Y026396D03*
X035118Y026239D03*
D20*
X033260Y026160D03*
X033260Y026947D03*
X026860Y027047D03*
X026860Y026260D03*
X020260Y026420D03*
X020260Y027207D03*
X013680Y027107D03*
X013680Y026320D03*
X019120Y011834D03*
X019120Y011046D03*
D21*
X029411Y006800D03*
X030829Y006800D03*
D22*
X017668Y009852D03*
X016881Y009852D03*
X016094Y009852D03*
X015306Y009852D03*
X014519Y009852D03*
X013731Y009852D03*
X012944Y009852D03*
X012157Y009852D03*
X012157Y016309D03*
X012944Y016309D03*
X013731Y016309D03*
X014519Y016309D03*
X015306Y016309D03*
X016094Y016309D03*
X016881Y016309D03*
X017668Y016309D03*
D23*
X015135Y018040D03*
X014465Y018040D03*
X013695Y018040D03*
X013025Y018040D03*
D24*
X013511Y020680D03*
X014889Y020680D03*
D25*
X026360Y007280D02*
X026360Y006354D01*
X026266Y006260D01*
X026266Y005460D01*
X026266Y004254D01*
X026760Y003760D01*
X027666Y003854D02*
X027666Y004760D01*
X028360Y004760D01*
X028760Y004360D01*
X028760Y003760D01*
X027760Y003760D02*
X027666Y003854D01*
X027666Y004760D02*
X027666Y005460D01*
X027360Y005460D01*
X027360Y007280D01*
X027360Y006566D01*
X027054Y006260D01*
X027666Y006260D01*
X028360Y006354D02*
X028454Y006260D01*
X028454Y005860D01*
X028919Y005395D01*
X029660Y005395D01*
X031160Y005395D01*
X031760Y005395D01*
X032760Y005395D01*
X033760Y005395D01*
X034760Y005395D01*
X036360Y005395D01*
X036360Y004725D02*
X036360Y004160D01*
X036760Y003760D01*
X034760Y003760D02*
X034760Y004725D01*
X033760Y004725D02*
X033760Y003760D01*
X032760Y003760D02*
X032760Y004725D01*
X031760Y004725D02*
X031760Y003760D01*
X028460Y005466D02*
X028460Y005660D01*
X028454Y005666D01*
X028454Y005860D01*
X028460Y005466D02*
X028454Y005460D01*
X027360Y005460D02*
X027054Y005460D01*
X028360Y006354D02*
X028360Y007280D01*
D26*
X026860Y025254D02*
X026860Y026260D01*
X026854Y026254D01*
X026460Y026254D01*
X026260Y026454D01*
X026260Y027654D01*
X026460Y027854D01*
X026960Y027854D01*
X027360Y028254D01*
X027360Y028354D01*
X027360Y029024D01*
X027360Y029354D01*
X027375Y029339D01*
X027675Y029339D01*
X027675Y029654D02*
X027360Y029654D01*
X027360Y029354D01*
X027360Y029654D02*
X027360Y029854D01*
X027475Y029969D01*
X027675Y029969D01*
X027675Y030299D02*
X028206Y030299D01*
X028206Y030243D01*
X028560Y029888D01*
X028206Y030299D02*
X028460Y030554D01*
X028460Y032154D01*
X028260Y032354D01*
X027160Y032354D01*
X026960Y032154D01*
X026960Y031760D01*
X026966Y031754D01*
X026966Y030954D01*
X026966Y030362D01*
X027045Y030284D01*
X027360Y030284D02*
X027360Y029854D01*
X027360Y030284D02*
X027360Y030454D01*
X027460Y030554D01*
X027460Y030660D01*
X027754Y030954D01*
X027754Y031754D01*
X026966Y031754D02*
X026360Y031754D01*
X025860Y031254D01*
X025860Y025254D01*
X022174Y027814D02*
X022174Y028240D01*
X021960Y028454D01*
X020860Y028454D01*
X020820Y028414D01*
X020460Y028054D01*
X019860Y028054D01*
X019660Y027854D01*
X019660Y026554D01*
X019794Y026420D01*
X020260Y026420D01*
X020320Y026360D01*
X020320Y025214D01*
X019320Y025214D02*
X019320Y031514D01*
X019660Y031854D01*
X020366Y031854D01*
X020360Y031860D01*
X020360Y032354D01*
X020560Y032554D01*
X021460Y032554D01*
X021960Y032054D01*
X021960Y030354D01*
X021926Y030319D01*
X021135Y030319D01*
X020820Y030304D02*
X020820Y029954D01*
X020855Y029989D01*
X021135Y029989D01*
X021135Y029674D02*
X020840Y029674D01*
X020820Y029654D01*
X020820Y029454D01*
X020915Y029359D01*
X021135Y029359D01*
X021135Y029044D02*
X021885Y029044D01*
X021960Y029119D01*
X021960Y029788D02*
X021960Y030354D01*
X021154Y031054D02*
X020820Y030720D01*
X020820Y030304D01*
X020505Y030304D02*
X020366Y030442D01*
X020366Y031054D01*
X020366Y031854D01*
X021154Y031854D02*
X021154Y031054D01*
X020820Y029954D02*
X020820Y029654D01*
X020820Y029454D02*
X020820Y029044D01*
X020820Y028414D01*
X015240Y027994D02*
X015240Y027547D01*
X015240Y027994D02*
X015080Y028154D01*
X014080Y028154D01*
X014060Y028174D01*
X013640Y027754D01*
X013240Y027754D01*
X013000Y027514D01*
X013000Y026474D01*
X013160Y026314D01*
X013674Y026314D01*
X013680Y026320D01*
X013660Y026300D01*
X013660Y025254D01*
X012660Y025254D02*
X012660Y031414D01*
X013060Y031814D01*
X013666Y031814D01*
X013660Y031820D01*
X013660Y032314D01*
X013760Y032414D01*
X014760Y032414D01*
X014960Y032214D01*
X014960Y030514D01*
X014806Y030359D01*
X014375Y030359D01*
X014814Y030359D01*
X015060Y030114D01*
X015060Y029748D01*
X015055Y029084D02*
X014375Y029084D01*
X014375Y029399D02*
X014075Y029399D01*
X014060Y029414D01*
X014060Y029714D01*
X014375Y029714D01*
X014375Y030029D02*
X014075Y030029D01*
X014060Y030014D01*
X014060Y030344D01*
X014060Y030514D01*
X014360Y030814D01*
X014360Y031020D01*
X014454Y031114D01*
X014454Y031814D01*
X013666Y031814D02*
X013666Y031114D01*
X013745Y031035D01*
X013745Y030344D01*
X014060Y030014D02*
X014060Y029714D01*
X014060Y029414D02*
X014060Y029084D01*
X014060Y028174D01*
X015055Y029084D02*
X015060Y029079D01*
X027675Y029024D02*
X028365Y029024D01*
X028560Y029219D01*
X032260Y031454D02*
X032560Y031754D01*
X033466Y031754D01*
X033460Y031760D01*
X033460Y032254D01*
X033560Y032354D01*
X034760Y032354D01*
X034960Y032154D01*
X034960Y030454D01*
X034806Y030299D01*
X034660Y030299D01*
X034980Y029979D01*
X034980Y029728D01*
X034660Y030299D02*
X034175Y030299D01*
X033860Y030284D02*
X033860Y029954D01*
X033875Y029969D01*
X034175Y029969D01*
X034175Y029654D02*
X033860Y029654D01*
X033860Y029954D01*
X033860Y029654D02*
X033860Y029354D01*
X033875Y029339D01*
X034175Y029339D01*
X034175Y029024D02*
X034945Y029024D01*
X034980Y029059D01*
X033860Y029024D02*
X033860Y028454D01*
X033460Y028054D01*
X032860Y028054D01*
X032660Y027854D01*
X032660Y026354D01*
X032860Y026154D01*
X033254Y026154D01*
X033260Y026160D01*
X033260Y025154D01*
X032260Y025154D02*
X032260Y031454D01*
X033466Y031754D02*
X033466Y030954D01*
X033466Y030362D01*
X033545Y030284D01*
X033860Y030284D02*
X033860Y030560D01*
X034254Y030954D01*
X034254Y031754D01*
X033860Y029354D02*
X033860Y029024D01*
D27*
X033860Y028454D02*
X033960Y028354D01*
X034860Y028354D01*
X035254Y027960D01*
X035254Y027554D01*
X035118Y027418D01*
X035118Y026869D01*
X035118Y026554D02*
X034860Y026554D01*
X034703Y026711D01*
X034402Y026711D01*
X034402Y026869D02*
X034466Y026933D01*
X034466Y027554D01*
X033760Y026754D02*
X033660Y026854D01*
X033354Y026854D01*
X033260Y026947D01*
X033760Y026754D02*
X033760Y026654D01*
X034017Y026396D01*
X034402Y026396D01*
X034402Y026239D02*
X033339Y026239D01*
X033260Y026160D01*
X034260Y025154D02*
X034760Y025654D01*
X034760Y026354D01*
X034803Y026396D01*
X035118Y026396D01*
X035118Y026239D02*
X035118Y025295D01*
X035260Y025154D01*
X035118Y026554D02*
X035560Y026554D01*
X035660Y026654D01*
X035660Y029554D01*
X035460Y029754D01*
X035005Y029754D01*
X034980Y029728D01*
X033545Y029654D02*
X033160Y029654D01*
X033060Y029554D01*
X033060Y028654D01*
X033160Y028554D01*
X032945Y029969D02*
X032660Y030254D01*
X032660Y030854D01*
X032945Y029969D02*
X033545Y029969D01*
X029160Y029654D02*
X028960Y029854D01*
X028595Y029854D01*
X028560Y029888D01*
X029160Y029654D02*
X029160Y026654D01*
X029080Y026574D01*
X028778Y026574D01*
X028540Y026574D01*
X028383Y026731D01*
X028062Y026731D01*
X028062Y026889D02*
X027966Y026984D01*
X027966Y027854D01*
X028754Y027854D02*
X028754Y028260D01*
X028560Y028454D01*
X027460Y028454D01*
X027360Y028354D01*
X026760Y028454D02*
X026560Y028654D01*
X026560Y029554D01*
X026660Y029654D01*
X027045Y029654D01*
X027045Y029969D02*
X026445Y029969D01*
X026260Y030154D01*
X026260Y030754D01*
X022560Y029554D02*
X022260Y029854D01*
X022025Y029854D01*
X021960Y029788D01*
X022560Y029554D02*
X022560Y026754D01*
X022420Y026614D01*
X022058Y026614D01*
X021800Y026614D01*
X021643Y026771D01*
X021342Y026771D01*
X021342Y026929D02*
X021386Y026973D01*
X021386Y027814D01*
X022174Y027814D02*
X022174Y027044D01*
X022058Y026929D01*
X022058Y026456D02*
X021763Y026456D01*
X021660Y026354D01*
X021660Y025554D01*
X021320Y025214D01*
X022058Y025475D02*
X022320Y025214D01*
X022058Y025475D02*
X022058Y026299D01*
X021342Y026299D02*
X020381Y026299D01*
X020260Y026420D01*
X020860Y026554D02*
X020860Y027054D01*
X020760Y027154D01*
X020314Y027154D01*
X020260Y027207D01*
X020860Y026554D02*
X020957Y026456D01*
X021342Y026456D01*
X026860Y026260D02*
X026861Y026259D01*
X028062Y026259D01*
X028062Y026416D02*
X027697Y026416D01*
X027460Y026654D01*
X027460Y026954D01*
X027360Y027054D01*
X026866Y027054D01*
X026860Y027047D01*
X028360Y026254D02*
X028360Y025754D01*
X027860Y025254D01*
X028778Y025335D02*
X028860Y025254D01*
X028778Y025335D02*
X028778Y026259D01*
X028778Y026416D02*
X028523Y026416D01*
X028360Y026254D01*
X028778Y026889D02*
X028754Y026913D01*
X028754Y027854D01*
X015800Y026794D02*
X015800Y029434D01*
X015560Y029674D01*
X015135Y029674D01*
X015060Y029748D01*
X013745Y029714D02*
X013460Y029714D01*
X013360Y029614D01*
X013360Y028714D01*
X014486Y027514D02*
X014522Y027478D01*
X014522Y026929D01*
X014522Y026771D02*
X014783Y026771D01*
X014940Y026614D01*
X015238Y026614D01*
X015620Y026614D01*
X015800Y026794D01*
X015274Y026964D02*
X015238Y026929D01*
X015274Y026964D02*
X015274Y027514D01*
X015240Y027547D01*
X014180Y027014D02*
X014180Y026514D01*
X014237Y026456D01*
X014522Y026456D01*
X014522Y026299D02*
X013680Y026299D01*
X013680Y026320D01*
X013680Y027107D02*
X013686Y027114D01*
X014080Y027114D01*
X014180Y027014D01*
X014840Y026394D02*
X014840Y025434D01*
X014660Y025254D01*
X015238Y025675D02*
X015660Y025254D01*
X015238Y025675D02*
X015238Y026299D01*
X015238Y026456D02*
X014903Y026456D01*
X014840Y026394D01*
X013730Y030014D02*
X013745Y030029D01*
X013730Y030014D02*
X013260Y030014D01*
X013060Y030214D01*
X013060Y030514D01*
D28*
X028060Y018660D02*
X029060Y019660D01*
X033560Y019660D01*
X033760Y019460D01*
X033760Y017360D01*
X033760Y013960D01*
X032760Y013960D02*
X032760Y017360D01*
X032760Y018660D01*
X032360Y019060D01*
X028060Y018660D02*
X028060Y017360D01*
X028060Y013960D01*
X028060Y008980D01*
X027560Y008480D01*
X027320Y008240D01*
X027320Y007320D01*
X027360Y007280D01*
X028360Y006354D02*
X028965Y006354D01*
X029411Y006800D01*
X029260Y008060D02*
X029260Y008280D01*
X029060Y008480D01*
X027560Y008480D01*
X029060Y008480D02*
X029800Y008480D01*
X030829Y007451D01*
X030829Y006800D01*
X031760Y007360D02*
X031760Y005995D01*
X031160Y005395D01*
X029660Y005395D02*
X029560Y005295D01*
X029560Y004960D01*
X031760Y007360D02*
X032760Y008360D01*
X032760Y013960D01*
X027060Y013960D02*
X027060Y017360D01*
X019120Y012520D02*
X019120Y011834D01*
X019086Y011800D01*
X018400Y011800D01*
X017668Y012532D01*
X017668Y016309D01*
X017680Y016321D01*
X017680Y017440D01*
X017080Y018040D01*
X016260Y018040D01*
X015135Y018040D01*
X014465Y018040D02*
X013695Y018040D01*
X013025Y018040D02*
X012944Y017959D01*
X012944Y016309D01*
X019120Y011046D02*
X020474Y011046D01*
X025460Y006060D01*
X019120Y010480D02*
X019120Y011046D01*
X019120Y010480D02*
X018492Y009852D01*
X017668Y009852D01*
X015160Y007575D02*
X014200Y007575D01*
X014200Y008080D01*
X013731Y008549D01*
X013731Y009852D01*
X012157Y009852D02*
X012157Y007578D01*
X012160Y007575D01*
X013240Y007575D01*
X014200Y006905D02*
X014200Y005680D01*
X012400Y005680D02*
X012160Y005920D01*
X012160Y006905D01*
D29*
X012400Y005680D03*
X014200Y005680D03*
X016460Y007760D03*
X019760Y009660D03*
X020460Y009460D03*
X017760Y011260D03*
X019120Y012520D03*
X018860Y014260D03*
X022460Y012660D03*
X016260Y017660D03*
X013460Y019760D03*
X022760Y018160D03*
X024160Y020160D03*
X028660Y019760D03*
X032360Y019060D03*
X036560Y021060D03*
X033160Y028554D03*
X032660Y030854D03*
X026760Y028454D03*
X026260Y030754D03*
X020260Y028554D03*
X019760Y030654D03*
X013360Y028714D03*
X013060Y030514D03*
X037860Y012760D03*
X030860Y011560D03*
X029260Y008060D03*
X032660Y006460D03*
X029560Y004960D03*
X025460Y006060D03*
X020360Y007260D03*
X035960Y007560D03*
D30*
X012120Y006845D02*
X012120Y003693D01*
X012170Y003714D01*
X012350Y003714D01*
X012517Y003645D01*
X012645Y003517D01*
X012714Y003350D01*
X012714Y003170D01*
X012693Y003120D01*
X037400Y003120D01*
X037400Y003851D01*
X037470Y004021D01*
X037599Y004150D01*
X038400Y004951D01*
X038400Y006968D01*
X038250Y006906D01*
X038070Y006906D01*
X037903Y006975D01*
X037775Y007103D01*
X037706Y007270D01*
X037706Y007450D01*
X037775Y007617D01*
X037903Y007745D01*
X038070Y007814D01*
X038250Y007814D01*
X038400Y007752D01*
X038400Y017469D01*
X037470Y018399D01*
X037400Y018568D01*
X037400Y018958D01*
X037317Y018875D01*
X037150Y018806D01*
X036970Y018806D01*
X036803Y018875D01*
X036675Y019003D01*
X036606Y019170D01*
X036606Y019350D01*
X036675Y019517D01*
X036803Y019645D01*
X036970Y019714D01*
X037150Y019714D01*
X037317Y019645D01*
X037400Y019562D01*
X037400Y022969D01*
X036969Y023400D01*
X036859Y023400D01*
X036963Y023296D01*
X036976Y023265D01*
X037270Y022971D01*
X037270Y022549D01*
X036971Y022250D01*
X036549Y022250D01*
X036260Y022539D01*
X036040Y022319D01*
X036040Y021232D01*
X036003Y021144D01*
X035936Y021077D01*
X035096Y020237D01*
X035008Y020200D01*
X028219Y020200D01*
X026576Y018557D01*
X026488Y018520D01*
X014705Y018520D01*
X014705Y018515D01*
X014796Y018515D01*
X014825Y018486D01*
X014858Y018495D01*
X015075Y018495D01*
X015075Y018100D01*
X015195Y018100D01*
X015551Y018100D01*
X015551Y018356D01*
X015540Y018397D01*
X015519Y018434D01*
X015489Y018463D01*
X015452Y018484D01*
X015412Y018495D01*
X015195Y018495D01*
X015195Y018100D01*
X015195Y017980D01*
X015551Y017980D01*
X015551Y017724D01*
X015540Y017683D01*
X015519Y017646D01*
X015489Y017617D01*
X015452Y017596D01*
X015412Y017585D01*
X015195Y017585D01*
X015195Y017980D01*
X015075Y017980D01*
X015075Y017585D01*
X014858Y017585D01*
X014825Y017594D01*
X014796Y017565D01*
X014135Y017565D01*
X014080Y017620D01*
X014025Y017565D01*
X013364Y017565D01*
X013360Y017569D01*
X013356Y017565D01*
X013244Y017565D01*
X013244Y017080D01*
X013255Y017080D01*
X013338Y016997D01*
X013421Y017080D01*
X014042Y017080D01*
X014125Y016997D01*
X014208Y017080D01*
X014830Y017080D01*
X014912Y016997D01*
X014995Y017080D01*
X015617Y017080D01*
X015700Y016997D01*
X015783Y017080D01*
X016404Y017080D01*
X016487Y016997D01*
X016570Y017080D01*
X017192Y017080D01*
X017293Y016978D01*
X017304Y016998D01*
X017334Y017028D01*
X017370Y017049D01*
X017411Y017060D01*
X017610Y017060D01*
X017610Y016367D01*
X017726Y016367D01*
X017726Y017060D01*
X017926Y017060D01*
X017966Y017049D01*
X018003Y017028D01*
X018033Y016998D01*
X018054Y016961D01*
X018065Y016921D01*
X018065Y016367D01*
X017726Y016367D01*
X017726Y016251D01*
X017726Y015558D01*
X017926Y015558D01*
X017966Y015569D01*
X018003Y015590D01*
X018033Y015620D01*
X018054Y015657D01*
X018065Y015697D01*
X018065Y016251D01*
X017726Y016251D01*
X017610Y016251D01*
X017610Y015558D01*
X017411Y015558D01*
X017370Y015569D01*
X017334Y015590D01*
X017304Y015620D01*
X017293Y015640D01*
X017192Y015538D01*
X016570Y015538D01*
X016487Y015621D01*
X016404Y015538D01*
X015783Y015538D01*
X015700Y015621D01*
X015617Y015538D01*
X014995Y015538D01*
X014912Y015621D01*
X014830Y015538D01*
X014208Y015538D01*
X014125Y015621D01*
X014042Y015538D01*
X013421Y015538D01*
X013338Y015621D01*
X013255Y015538D01*
X012633Y015538D01*
X012550Y015621D01*
X012467Y015538D01*
X012120Y015538D01*
X012120Y010623D01*
X012467Y010623D01*
X012550Y010540D01*
X012633Y010623D01*
X013255Y010623D01*
X013338Y010540D01*
X013421Y010623D01*
X014042Y010623D01*
X014125Y010540D01*
X014208Y010623D01*
X014830Y010623D01*
X014912Y010540D01*
X014995Y010623D01*
X015617Y010623D01*
X015700Y010540D01*
X015783Y010623D01*
X016404Y010623D01*
X016487Y010540D01*
X016570Y010623D01*
X017192Y010623D01*
X017275Y010540D01*
X017358Y010623D01*
X017979Y010623D01*
X018085Y010517D01*
X018085Y010152D01*
X018368Y010152D01*
X018820Y010604D01*
X018820Y010610D01*
X018730Y010610D01*
X018625Y010716D01*
X018625Y011377D01*
X018702Y011454D01*
X018677Y011480D01*
X018656Y011516D01*
X018645Y011557D01*
X018645Y011774D01*
X019060Y011774D01*
X019060Y011894D01*
X019060Y012250D01*
X018784Y012250D01*
X018743Y012239D01*
X018707Y012218D01*
X018677Y012188D01*
X018656Y012151D01*
X018645Y012111D01*
X018645Y011894D01*
X019060Y011894D01*
X019180Y011894D01*
X019180Y012250D01*
X019456Y012250D01*
X019497Y012239D01*
X019533Y012218D01*
X019563Y012188D01*
X019584Y012151D01*
X019595Y012111D01*
X019595Y011894D01*
X019180Y011894D01*
X019180Y011774D01*
X019595Y011774D01*
X019595Y011557D01*
X019584Y011516D01*
X019563Y011480D01*
X019538Y011454D01*
X019615Y011377D01*
X019615Y011346D01*
X020533Y011346D01*
X020644Y011301D01*
X025486Y006458D01*
X025539Y006458D01*
X025686Y006398D01*
X025798Y006286D01*
X025830Y006206D01*
X025830Y006650D01*
X025936Y006755D01*
X025995Y006755D01*
X025970Y006780D01*
X025970Y007780D01*
X026075Y007885D01*
X026645Y007885D01*
X026750Y007780D01*
X026750Y006780D01*
X026700Y006730D01*
X026700Y006703D01*
X026736Y006724D01*
X026777Y006735D01*
X026994Y006735D01*
X026994Y006320D01*
X027114Y006320D01*
X027606Y006320D01*
X027606Y006200D01*
X027250Y006200D01*
X027114Y006200D01*
X027114Y006320D01*
X027114Y006699D01*
X027088Y006706D01*
X027052Y006727D01*
X027022Y006757D01*
X027001Y006793D01*
X026990Y006834D01*
X026990Y007235D01*
X027315Y007235D01*
X027315Y007325D01*
X027315Y007865D01*
X027129Y007865D01*
X027088Y007854D01*
X027052Y007833D01*
X027022Y007803D01*
X027001Y007767D01*
X026990Y007726D01*
X026990Y007325D01*
X027315Y007325D01*
X027405Y007325D01*
X027405Y007865D01*
X027591Y007865D01*
X027632Y007854D01*
X027668Y007833D01*
X027698Y007803D01*
X027719Y007767D01*
X027730Y007726D01*
X027730Y007325D01*
X027405Y007325D01*
X027405Y007235D01*
X027730Y007235D01*
X027730Y006834D01*
X027719Y006793D01*
X027698Y006757D01*
X027668Y006727D01*
X027632Y006706D01*
X027606Y006699D01*
X027606Y006320D01*
X027726Y006320D01*
X027726Y006735D01*
X027943Y006735D01*
X027984Y006724D01*
X028020Y006703D01*
X028020Y006730D01*
X027970Y006780D01*
X027970Y007780D01*
X028075Y007885D01*
X028645Y007885D01*
X028750Y007780D01*
X028750Y007220D01*
X028825Y007295D01*
X029998Y007295D01*
X030103Y007190D01*
X030103Y006410D01*
X029998Y006305D01*
X029341Y006305D01*
X029135Y006099D01*
X029025Y006054D01*
X028890Y006054D01*
X028890Y005905D01*
X029060Y005735D01*
X031076Y005735D01*
X031460Y006119D01*
X031460Y006378D01*
X031439Y006357D01*
X031402Y006336D01*
X031362Y006325D01*
X030889Y006325D01*
X030889Y006740D01*
X030769Y006740D01*
X030769Y006325D01*
X030296Y006325D01*
X030255Y006336D01*
X030219Y006357D01*
X030189Y006387D01*
X030168Y006423D01*
X030157Y006464D01*
X030157Y006740D01*
X030769Y006740D01*
X030769Y006860D01*
X030769Y007275D01*
X030296Y007275D01*
X030255Y007264D01*
X030219Y007243D01*
X030189Y007213D01*
X030168Y007177D01*
X030157Y007136D01*
X030157Y006860D01*
X030769Y006860D01*
X030889Y006860D01*
X030889Y007275D01*
X031362Y007275D01*
X031402Y007264D01*
X031439Y007243D01*
X031460Y007222D01*
X031460Y007420D01*
X031506Y007530D01*
X031590Y007614D01*
X032460Y008484D01*
X032460Y013281D01*
X032353Y013388D01*
X032280Y013565D01*
X032280Y014355D01*
X032353Y014532D01*
X032460Y014639D01*
X032460Y016681D01*
X032353Y016788D01*
X032280Y016965D01*
X032280Y017755D01*
X032353Y017932D01*
X032460Y018039D01*
X032460Y018536D01*
X032334Y018662D01*
X032281Y018662D01*
X032134Y018722D01*
X032022Y018834D01*
X031962Y018981D01*
X031962Y019139D01*
X032022Y019286D01*
X032134Y019398D01*
X032281Y019458D01*
X032439Y019458D01*
X032586Y019398D01*
X032698Y019286D01*
X032758Y019139D01*
X032758Y019086D01*
X033014Y018830D01*
X033060Y018720D01*
X033060Y018039D01*
X033167Y017932D01*
X033240Y017755D01*
X033240Y016965D01*
X033167Y016788D01*
X033060Y016681D01*
X033060Y014639D01*
X033167Y014532D01*
X033240Y014355D01*
X033240Y013565D01*
X033167Y013388D01*
X033060Y013281D01*
X033060Y008300D01*
X033014Y008190D01*
X032060Y007236D01*
X032060Y005935D01*
X032017Y005831D01*
X032130Y005831D01*
X032226Y005735D01*
X032294Y005735D01*
X032390Y005831D01*
X033130Y005831D01*
X033226Y005735D01*
X033294Y005735D01*
X033390Y005831D01*
X034130Y005831D01*
X034226Y005735D01*
X034294Y005735D01*
X034390Y005831D01*
X035130Y005831D01*
X035226Y005735D01*
X035894Y005735D01*
X035990Y005831D01*
X036730Y005831D01*
X036835Y005725D01*
X036835Y005064D01*
X036831Y005060D01*
X036835Y005056D01*
X036835Y004395D01*
X036730Y004289D01*
X036711Y004289D01*
X036731Y004270D01*
X036971Y004270D01*
X037270Y003971D01*
X037270Y003549D01*
X036971Y003250D01*
X036549Y003250D01*
X036260Y003539D01*
X035971Y003250D01*
X035549Y003250D01*
X035260Y003539D01*
X034971Y003250D01*
X034549Y003250D01*
X034260Y003539D01*
X033971Y003250D01*
X033549Y003250D01*
X033260Y003539D01*
X032971Y003250D01*
X032549Y003250D01*
X032260Y003539D01*
X031971Y003250D01*
X031549Y003250D01*
X031250Y003549D01*
X031250Y003971D01*
X031420Y004141D01*
X031420Y004289D01*
X031390Y004289D01*
X031285Y004395D01*
X031285Y005055D01*
X029952Y005055D01*
X029958Y005039D01*
X029958Y004881D01*
X029898Y004734D01*
X029786Y004622D01*
X029639Y004562D01*
X029481Y004562D01*
X029334Y004622D01*
X029222Y004734D01*
X029162Y004881D01*
X029162Y005039D01*
X029168Y005055D01*
X028874Y005055D01*
X028784Y004965D01*
X028123Y004965D01*
X028046Y005042D01*
X028020Y005017D01*
X027984Y004996D01*
X027943Y004985D01*
X027726Y004985D01*
X027726Y005400D01*
X027606Y005400D01*
X027250Y005400D01*
X027114Y005400D01*
X027114Y005520D01*
X027606Y005520D01*
X027606Y005400D01*
X027606Y004985D01*
X027389Y004985D01*
X027360Y004993D01*
X027331Y004985D01*
X027114Y004985D01*
X027114Y005400D01*
X026994Y005400D01*
X026994Y004985D01*
X026777Y004985D01*
X026736Y004996D01*
X026700Y005017D01*
X026674Y005042D01*
X026606Y004975D01*
X026606Y004395D01*
X026731Y004270D01*
X026971Y004270D01*
X027270Y003971D01*
X027270Y003549D01*
X026971Y003250D01*
X026549Y003250D01*
X026260Y003539D01*
X025971Y003250D01*
X025549Y003250D01*
X025260Y003539D01*
X024971Y003250D01*
X024549Y003250D01*
X024260Y003539D01*
X023971Y003250D01*
X023549Y003250D01*
X023260Y003539D01*
X022971Y003250D01*
X022549Y003250D01*
X022250Y003549D01*
X022250Y003971D01*
X022549Y004270D01*
X022971Y004270D01*
X023260Y003981D01*
X023549Y004270D01*
X023971Y004270D01*
X024260Y003981D01*
X024549Y004270D01*
X024971Y004270D01*
X025260Y003981D01*
X025549Y004270D01*
X025926Y004270D01*
X025926Y004975D01*
X025830Y005070D01*
X025830Y005850D01*
X025841Y005860D01*
X025830Y005870D01*
X025830Y005914D01*
X025798Y005834D01*
X025686Y005722D01*
X025539Y005662D01*
X025381Y005662D01*
X025234Y005722D01*
X025122Y005834D01*
X025062Y005981D01*
X025062Y006034D01*
X020349Y010746D01*
X019615Y010746D01*
X019615Y010716D01*
X019510Y010610D01*
X019420Y010610D01*
X019420Y010420D01*
X019374Y010310D01*
X019290Y010226D01*
X018662Y009598D01*
X018552Y009552D01*
X018085Y009552D01*
X018085Y009187D01*
X017979Y009082D01*
X017358Y009082D01*
X017275Y009165D01*
X017192Y009082D01*
X016570Y009082D01*
X016487Y009165D01*
X016404Y009082D01*
X015783Y009082D01*
X015700Y009165D01*
X015617Y009082D01*
X014995Y009082D01*
X014912Y009165D01*
X014830Y009082D01*
X014208Y009082D01*
X014125Y009165D01*
X014042Y009082D01*
X014031Y009082D01*
X014031Y008673D01*
X014370Y008334D01*
X014454Y008250D01*
X014500Y008140D01*
X014500Y008011D01*
X017772Y008011D01*
X017890Y008130D02*
X014500Y008130D01*
X014500Y008011D02*
X014570Y008011D01*
X014675Y007905D01*
X014675Y007875D01*
X014685Y007875D01*
X014685Y007905D01*
X014790Y008011D01*
X015530Y008011D01*
X015635Y007905D01*
X015635Y007244D01*
X015631Y007240D01*
X015635Y007236D01*
X015635Y007145D01*
X016906Y007145D01*
X019362Y009601D01*
X019362Y009739D01*
X019422Y009886D01*
X019534Y009998D01*
X019681Y010058D01*
X019839Y010058D01*
X019986Y009998D01*
X020098Y009886D01*
X020158Y009739D01*
X020158Y009721D01*
X020234Y009798D01*
X020381Y009858D01*
X020539Y009858D01*
X020686Y009798D01*
X020798Y009686D01*
X020858Y009539D01*
X020858Y009381D01*
X020798Y009234D01*
X020686Y009122D01*
X020539Y009062D01*
X020401Y009062D01*
X016196Y004857D01*
X016108Y004820D01*
X013712Y004820D01*
X013624Y004857D01*
X013557Y004924D01*
X013037Y005444D01*
X013000Y005532D01*
X013000Y006469D01*
X012870Y006469D01*
X012765Y006575D01*
X012765Y007236D01*
X012769Y007240D01*
X012765Y007244D01*
X012765Y007275D01*
X012635Y007275D01*
X012635Y007244D01*
X012606Y007215D01*
X012615Y007182D01*
X012615Y006965D01*
X012220Y006965D01*
X012220Y006845D01*
X012220Y006489D01*
X012476Y006489D01*
X012517Y006500D01*
X012554Y006521D01*
X012583Y006551D01*
X012604Y006588D01*
X012615Y006628D01*
X012615Y006845D01*
X012220Y006845D01*
X012120Y006845D01*
X012120Y006826D02*
X012220Y006826D01*
X012220Y006708D02*
X012120Y006708D01*
X012120Y006589D02*
X012220Y006589D01*
X012120Y006471D02*
X012869Y006471D01*
X012765Y006589D02*
X012605Y006589D01*
X012615Y006708D02*
X012765Y006708D01*
X012765Y006826D02*
X012615Y006826D01*
X012765Y006945D02*
X012220Y006945D01*
X012615Y007063D02*
X012765Y007063D01*
X012765Y007182D02*
X012615Y007182D01*
X013240Y006905D02*
X013240Y005580D01*
X013760Y005060D01*
X016060Y005060D01*
X020460Y009460D01*
X020831Y009315D02*
X021781Y009315D01*
X021663Y009433D02*
X020858Y009433D01*
X020853Y009552D02*
X021544Y009552D01*
X021426Y009670D02*
X020804Y009670D01*
X020694Y009789D02*
X021307Y009789D01*
X021189Y009907D02*
X020076Y009907D01*
X020138Y009789D02*
X020226Y009789D01*
X019918Y010026D02*
X021070Y010026D01*
X020952Y010144D02*
X019208Y010144D01*
X019090Y010026D02*
X019602Y010026D01*
X019444Y009907D02*
X018971Y009907D01*
X018853Y009789D02*
X019382Y009789D01*
X019362Y009670D02*
X018734Y009670D01*
X019075Y009315D02*
X018085Y009315D01*
X018085Y009433D02*
X019194Y009433D01*
X019312Y009552D02*
X018085Y009552D01*
X018085Y009196D02*
X018957Y009196D01*
X018838Y009078D02*
X014031Y009078D01*
X014031Y008959D02*
X018720Y008959D01*
X018601Y008841D02*
X014031Y008841D01*
X014031Y008722D02*
X018483Y008722D01*
X018364Y008604D02*
X014101Y008604D01*
X014219Y008485D02*
X018246Y008485D01*
X018127Y008367D02*
X014338Y008367D01*
X014455Y008248D02*
X018009Y008248D01*
X018332Y007893D02*
X018553Y007893D01*
X018450Y008011D02*
X018672Y008011D01*
X018569Y008130D02*
X018790Y008130D01*
X018687Y008248D02*
X018909Y008248D01*
X018806Y008367D02*
X019027Y008367D01*
X018924Y008485D02*
X019146Y008485D01*
X019043Y008604D02*
X019264Y008604D01*
X019161Y008722D02*
X019383Y008722D01*
X019280Y008841D02*
X019501Y008841D01*
X019398Y008959D02*
X019620Y008959D01*
X019517Y009078D02*
X019738Y009078D01*
X019635Y009196D02*
X019857Y009196D01*
X019839Y009262D02*
X019981Y009321D01*
X015961Y005300D01*
X013859Y005300D01*
X013480Y005679D01*
X013480Y006469D01*
X013610Y006469D01*
X013715Y006575D01*
X013715Y007236D01*
X013711Y007240D01*
X013715Y007244D01*
X013715Y007905D01*
X013610Y008011D01*
X012870Y008011D01*
X012765Y007905D01*
X012765Y007875D01*
X012635Y007875D01*
X012635Y007905D01*
X012530Y008011D01*
X012457Y008011D01*
X013845Y008011D01*
X013830Y008011D01*
X013725Y007905D01*
X013725Y007244D01*
X013754Y007215D01*
X013745Y007182D01*
X013745Y006965D01*
X014140Y006965D01*
X014140Y006845D01*
X014260Y006845D01*
X014260Y006489D01*
X014516Y006489D01*
X014557Y006500D01*
X014594Y006521D01*
X014623Y006551D01*
X014644Y006588D01*
X014655Y006628D01*
X014655Y006845D01*
X014260Y006845D01*
X014260Y006965D01*
X014655Y006965D01*
X014655Y007182D01*
X014646Y007215D01*
X014675Y007244D01*
X014675Y007275D01*
X014685Y007275D01*
X014685Y007244D01*
X014689Y007240D01*
X014685Y007236D01*
X014685Y006575D01*
X014790Y006469D01*
X015530Y006469D01*
X015635Y006575D01*
X015635Y006665D01*
X017053Y006665D01*
X017141Y006702D01*
X019701Y009262D01*
X019839Y009262D01*
X019966Y009315D02*
X019975Y009315D01*
X019760Y009660D02*
X017005Y006905D01*
X015160Y006905D01*
X014685Y006945D02*
X014260Y006945D01*
X014260Y006826D02*
X014140Y006826D01*
X014140Y006845D02*
X014140Y006489D01*
X013884Y006489D01*
X013843Y006500D01*
X013806Y006521D01*
X013777Y006551D01*
X013756Y006588D01*
X013745Y006628D01*
X013745Y006845D01*
X014140Y006845D01*
X014140Y006945D02*
X013715Y006945D01*
X013715Y007063D02*
X013745Y007063D01*
X013745Y007182D02*
X013715Y007182D01*
X013715Y007300D02*
X013725Y007300D01*
X013715Y007419D02*
X013725Y007419D01*
X013715Y007537D02*
X013725Y007537D01*
X013715Y007656D02*
X013725Y007656D01*
X013715Y007774D02*
X013725Y007774D01*
X013715Y007893D02*
X013725Y007893D01*
X013845Y008011D02*
X013477Y008379D01*
X013431Y008489D01*
X013431Y009082D01*
X013421Y009082D01*
X013338Y009165D01*
X013255Y009082D01*
X012633Y009082D01*
X012550Y009165D01*
X012467Y009082D01*
X012457Y009082D01*
X012457Y008011D01*
X012457Y008130D02*
X013726Y008130D01*
X013608Y008248D02*
X012457Y008248D01*
X012457Y008367D02*
X013489Y008367D01*
X013433Y008485D02*
X012457Y008485D01*
X012457Y008604D02*
X013431Y008604D01*
X013431Y008722D02*
X012457Y008722D01*
X012457Y008841D02*
X013431Y008841D01*
X013431Y008959D02*
X012457Y008959D01*
X012457Y009078D02*
X013431Y009078D01*
X012765Y007893D02*
X012635Y007893D01*
X013715Y006826D02*
X013745Y006826D01*
X013745Y006708D02*
X013715Y006708D01*
X013715Y006589D02*
X013755Y006589D01*
X013611Y006471D02*
X014789Y006471D01*
X014685Y006589D02*
X014645Y006589D01*
X014655Y006708D02*
X014685Y006708D01*
X014685Y006826D02*
X014655Y006826D01*
X014655Y007063D02*
X014685Y007063D01*
X014685Y007182D02*
X014655Y007182D01*
X014260Y006708D02*
X014140Y006708D01*
X014140Y006589D02*
X014260Y006589D01*
X013480Y006352D02*
X017013Y006352D01*
X017131Y006471D02*
X015531Y006471D01*
X015635Y006589D02*
X017250Y006589D01*
X017147Y006708D02*
X017368Y006708D01*
X017265Y006826D02*
X017487Y006826D01*
X017384Y006945D02*
X017605Y006945D01*
X017502Y007063D02*
X017724Y007063D01*
X017621Y007182D02*
X017842Y007182D01*
X017739Y007300D02*
X017961Y007300D01*
X017858Y007419D02*
X018079Y007419D01*
X017976Y007537D02*
X018198Y007537D01*
X018095Y007656D02*
X018316Y007656D01*
X018213Y007774D02*
X018435Y007774D01*
X018758Y007419D02*
X023677Y007419D01*
X023559Y007537D02*
X018876Y007537D01*
X018995Y007656D02*
X023440Y007656D01*
X023322Y007774D02*
X019113Y007774D01*
X019232Y007893D02*
X023203Y007893D01*
X023085Y008011D02*
X019350Y008011D01*
X019469Y008130D02*
X022966Y008130D01*
X022848Y008248D02*
X019587Y008248D01*
X019706Y008367D02*
X022729Y008367D01*
X022611Y008485D02*
X019824Y008485D01*
X019943Y008604D02*
X022492Y008604D01*
X022374Y008722D02*
X020061Y008722D01*
X020180Y008841D02*
X022255Y008841D01*
X022137Y008959D02*
X020298Y008959D01*
X020577Y009078D02*
X022018Y009078D01*
X021900Y009196D02*
X020759Y009196D01*
X022037Y009907D02*
X025054Y009907D01*
X025054Y009789D02*
X022156Y009789D01*
X022274Y009670D02*
X025054Y009670D01*
X025054Y009552D02*
X022393Y009552D01*
X022511Y009433D02*
X025054Y009433D01*
X025054Y009315D02*
X022630Y009315D01*
X022748Y009196D02*
X025054Y009196D01*
X025054Y009078D02*
X022867Y009078D01*
X022985Y008959D02*
X025054Y008959D01*
X025054Y008841D02*
X023104Y008841D01*
X023222Y008722D02*
X025054Y008722D01*
X025054Y008604D02*
X023341Y008604D01*
X023459Y008485D02*
X025054Y008485D01*
X025054Y008436D02*
X025159Y008331D01*
X029561Y008331D01*
X029666Y008436D01*
X029666Y012684D01*
X029561Y012789D01*
X025159Y012789D01*
X025054Y012684D01*
X025054Y008436D01*
X025124Y008367D02*
X023578Y008367D01*
X023696Y008248D02*
X032224Y008248D01*
X032342Y008367D02*
X029596Y008367D01*
X029666Y008485D02*
X032460Y008485D01*
X032460Y008604D02*
X029666Y008604D01*
X029666Y008722D02*
X032460Y008722D01*
X032460Y008841D02*
X029666Y008841D01*
X029666Y008959D02*
X032460Y008959D01*
X032460Y009078D02*
X029666Y009078D01*
X029666Y009196D02*
X032460Y009196D01*
X032460Y009315D02*
X029666Y009315D01*
X029666Y009433D02*
X032460Y009433D01*
X032460Y009552D02*
X029666Y009552D01*
X029666Y009670D02*
X032460Y009670D01*
X032460Y009789D02*
X029666Y009789D01*
X029666Y009907D02*
X032460Y009907D01*
X032460Y010026D02*
X029666Y010026D01*
X029666Y010144D02*
X032460Y010144D01*
X032460Y010263D02*
X029666Y010263D01*
X029666Y010381D02*
X032460Y010381D01*
X032460Y010500D02*
X029666Y010500D01*
X029666Y010618D02*
X032460Y010618D01*
X032460Y010737D02*
X029666Y010737D01*
X029666Y010855D02*
X032460Y010855D01*
X032460Y010974D02*
X029666Y010974D01*
X029666Y011092D02*
X032460Y011092D01*
X032460Y011211D02*
X029666Y011211D01*
X029666Y011329D02*
X032460Y011329D01*
X032460Y011448D02*
X029666Y011448D01*
X029666Y011566D02*
X032460Y011566D01*
X032460Y011685D02*
X029666Y011685D01*
X029666Y011803D02*
X032460Y011803D01*
X032460Y011922D02*
X029666Y011922D01*
X029666Y012040D02*
X032460Y012040D01*
X032460Y012159D02*
X029666Y012159D01*
X029666Y012277D02*
X032460Y012277D01*
X032460Y012396D02*
X029666Y012396D01*
X029666Y012514D02*
X032460Y012514D01*
X032460Y012633D02*
X029666Y012633D01*
X029599Y012751D02*
X032460Y012751D01*
X032460Y012870D02*
X012120Y012870D01*
X012120Y012988D02*
X032460Y012988D01*
X032460Y013107D02*
X012120Y013107D01*
X012120Y013225D02*
X026856Y013225D01*
X026788Y013253D02*
X026965Y013180D01*
X027155Y013180D01*
X027332Y013253D01*
X027467Y013388D01*
X027540Y013565D01*
X027540Y014355D01*
X027467Y014532D01*
X027360Y014639D01*
X027360Y016681D01*
X027467Y016788D01*
X027540Y016965D01*
X027540Y017755D01*
X027467Y017932D01*
X027332Y018067D01*
X027155Y018140D01*
X026965Y018140D01*
X026788Y018067D01*
X026653Y017932D01*
X026580Y017755D01*
X026580Y016965D01*
X026653Y016788D01*
X026760Y016681D01*
X026760Y014639D01*
X026653Y014532D01*
X026580Y014355D01*
X026580Y013565D01*
X026653Y013388D01*
X026788Y013253D01*
X026698Y013344D02*
X012120Y013344D01*
X012120Y013462D02*
X026622Y013462D01*
X026580Y013581D02*
X012120Y013581D01*
X012120Y013699D02*
X026580Y013699D01*
X026580Y013818D02*
X012120Y013818D01*
X012120Y013936D02*
X026580Y013936D01*
X026580Y014055D02*
X012120Y014055D01*
X012120Y014173D02*
X026580Y014173D01*
X026580Y014292D02*
X012120Y014292D01*
X012120Y014410D02*
X026603Y014410D01*
X026652Y014529D02*
X012120Y014529D01*
X012120Y014647D02*
X026760Y014647D01*
X026760Y014766D02*
X012120Y014766D01*
X012120Y014884D02*
X026760Y014884D01*
X026760Y015003D02*
X012120Y015003D01*
X012120Y015121D02*
X026760Y015121D01*
X026760Y015240D02*
X012120Y015240D01*
X012120Y015358D02*
X026760Y015358D01*
X026760Y015477D02*
X012120Y015477D01*
X012524Y015595D02*
X012577Y015595D01*
X013311Y015595D02*
X013364Y015595D01*
X014099Y015595D02*
X014151Y015595D01*
X014886Y015595D02*
X014939Y015595D01*
X015674Y015595D02*
X015726Y015595D01*
X016461Y015595D02*
X016514Y015595D01*
X017248Y015595D02*
X017329Y015595D01*
X017610Y015595D02*
X017726Y015595D01*
X017726Y015714D02*
X017610Y015714D01*
X017610Y015832D02*
X017726Y015832D01*
X017726Y015951D02*
X017610Y015951D01*
X017610Y016069D02*
X017726Y016069D01*
X017726Y016188D02*
X017610Y016188D01*
X017726Y016306D02*
X026760Y016306D01*
X026760Y016188D02*
X018065Y016188D01*
X018065Y016069D02*
X026760Y016069D01*
X026760Y015951D02*
X018065Y015951D01*
X018065Y015832D02*
X026760Y015832D01*
X026760Y015714D02*
X018065Y015714D01*
X018007Y015595D02*
X026760Y015595D01*
X027360Y015595D02*
X032460Y015595D01*
X032460Y015477D02*
X027360Y015477D01*
X027360Y015358D02*
X032460Y015358D01*
X032460Y015240D02*
X027360Y015240D01*
X027360Y015121D02*
X032460Y015121D01*
X032460Y015003D02*
X027360Y015003D01*
X027360Y014884D02*
X032460Y014884D01*
X032460Y014766D02*
X027360Y014766D01*
X027360Y014647D02*
X027810Y014647D01*
X027819Y014653D02*
X027760Y014611D01*
X027709Y014560D01*
X027667Y014501D01*
X027634Y014437D01*
X027611Y014368D01*
X027600Y014296D01*
X027600Y014000D01*
X028020Y014000D01*
X028020Y014719D01*
X027952Y014709D01*
X027883Y014686D01*
X027819Y014653D01*
X027687Y014529D02*
X027468Y014529D01*
X027517Y014410D02*
X027625Y014410D01*
X027600Y014292D02*
X027540Y014292D01*
X027540Y014173D02*
X027600Y014173D01*
X027600Y014055D02*
X027540Y014055D01*
X027540Y013936D02*
X028020Y013936D01*
X028020Y013920D02*
X027600Y013920D01*
X027600Y013624D01*
X027611Y013552D01*
X027634Y013483D01*
X027667Y013419D01*
X027709Y013360D01*
X027760Y013309D01*
X027819Y013267D01*
X027883Y013234D01*
X027952Y013211D01*
X028020Y013201D01*
X028020Y013920D01*
X028100Y013920D01*
X028100Y014000D01*
X028520Y014000D01*
X028520Y014296D01*
X028509Y014368D01*
X028486Y014437D01*
X028453Y014501D01*
X028411Y014560D01*
X028360Y014611D01*
X028301Y014653D01*
X028237Y014686D01*
X028168Y014709D01*
X028100Y014719D01*
X028100Y014000D01*
X028020Y014000D01*
X028020Y013920D01*
X028100Y013920D02*
X028100Y013201D01*
X028168Y013211D01*
X028237Y013234D01*
X028301Y013267D01*
X028360Y013309D01*
X028411Y013360D01*
X028453Y013419D01*
X028486Y013483D01*
X028509Y013552D01*
X028520Y013624D01*
X028520Y013920D01*
X028100Y013920D01*
X028100Y013936D02*
X028580Y013936D01*
X028580Y013818D02*
X028520Y013818D01*
X028520Y013699D02*
X028580Y013699D01*
X028580Y013581D02*
X028513Y013581D01*
X028580Y013565D02*
X028653Y013388D01*
X028788Y013253D01*
X028965Y013180D01*
X029155Y013180D01*
X029332Y013253D01*
X029467Y013388D01*
X029540Y013565D01*
X029540Y014355D01*
X029467Y014532D01*
X029332Y014667D01*
X029155Y014740D01*
X028965Y014740D01*
X028788Y014667D01*
X028653Y014532D01*
X028580Y014355D01*
X028580Y013565D01*
X028622Y013462D02*
X028475Y013462D01*
X028394Y013344D02*
X028698Y013344D01*
X028856Y013225D02*
X028210Y013225D01*
X028100Y013225D02*
X028020Y013225D01*
X027910Y013225D02*
X027264Y013225D01*
X027422Y013344D02*
X027726Y013344D01*
X027645Y013462D02*
X027498Y013462D01*
X027540Y013581D02*
X027607Y013581D01*
X027600Y013699D02*
X027540Y013699D01*
X027540Y013818D02*
X027600Y013818D01*
X028020Y013818D02*
X028100Y013818D01*
X028100Y013699D02*
X028020Y013699D01*
X028020Y013581D02*
X028100Y013581D01*
X028100Y013462D02*
X028020Y013462D01*
X028020Y013344D02*
X028100Y013344D01*
X028100Y014055D02*
X028020Y014055D01*
X028020Y014173D02*
X028100Y014173D01*
X028100Y014292D02*
X028020Y014292D01*
X028020Y014410D02*
X028100Y014410D01*
X028100Y014529D02*
X028020Y014529D01*
X028020Y014647D02*
X028100Y014647D01*
X028310Y014647D02*
X028768Y014647D01*
X028652Y014529D02*
X028433Y014529D01*
X028495Y014410D02*
X028603Y014410D01*
X028580Y014292D02*
X028520Y014292D01*
X028520Y014173D02*
X028580Y014173D01*
X028580Y014055D02*
X028520Y014055D01*
X029352Y014647D02*
X029768Y014647D01*
X029788Y014667D02*
X029653Y014532D01*
X029580Y014355D01*
X029580Y013565D01*
X029653Y013388D01*
X029788Y013253D01*
X029965Y013180D01*
X030155Y013180D01*
X030332Y013253D01*
X030467Y013388D01*
X030540Y013565D01*
X030540Y014355D01*
X030467Y014532D01*
X030332Y014667D01*
X030155Y014740D01*
X029965Y014740D01*
X029788Y014667D01*
X029652Y014529D02*
X029468Y014529D01*
X029517Y014410D02*
X029603Y014410D01*
X029580Y014292D02*
X029540Y014292D01*
X029540Y014173D02*
X029580Y014173D01*
X029580Y014055D02*
X029540Y014055D01*
X029540Y013936D02*
X029580Y013936D01*
X029580Y013818D02*
X029540Y013818D01*
X029540Y013699D02*
X029580Y013699D01*
X029580Y013581D02*
X029540Y013581D01*
X029498Y013462D02*
X029622Y013462D01*
X029698Y013344D02*
X029422Y013344D01*
X029264Y013225D02*
X029856Y013225D01*
X030264Y013225D02*
X032460Y013225D01*
X032398Y013344D02*
X030422Y013344D01*
X030498Y013462D02*
X032322Y013462D01*
X032280Y013581D02*
X030540Y013581D01*
X030540Y013699D02*
X032280Y013699D01*
X032280Y013818D02*
X030540Y013818D01*
X030540Y013936D02*
X032280Y013936D01*
X032280Y014055D02*
X030540Y014055D01*
X030540Y014173D02*
X032280Y014173D01*
X032280Y014292D02*
X030540Y014292D01*
X030517Y014410D02*
X032303Y014410D01*
X032352Y014529D02*
X030468Y014529D01*
X030352Y014647D02*
X032460Y014647D01*
X033060Y014647D02*
X033510Y014647D01*
X033519Y014653D02*
X033460Y014611D01*
X033409Y014560D01*
X033367Y014501D01*
X033334Y014437D01*
X033311Y014368D01*
X033300Y014296D01*
X033300Y014000D01*
X033720Y014000D01*
X033720Y014719D01*
X033652Y014709D01*
X033583Y014686D01*
X033519Y014653D01*
X033387Y014529D02*
X033168Y014529D01*
X033217Y014410D02*
X033325Y014410D01*
X033300Y014292D02*
X033240Y014292D01*
X033240Y014173D02*
X033300Y014173D01*
X033300Y014055D02*
X033240Y014055D01*
X033240Y013936D02*
X033720Y013936D01*
X033720Y013920D02*
X033300Y013920D01*
X033300Y013624D01*
X033311Y013552D01*
X033334Y013483D01*
X033367Y013419D01*
X033409Y013360D01*
X033460Y013309D01*
X033519Y013267D01*
X033583Y013234D01*
X033652Y013211D01*
X033720Y013201D01*
X033720Y013920D01*
X033800Y013920D01*
X033800Y014000D01*
X034220Y014000D01*
X034220Y014296D01*
X034209Y014368D01*
X034186Y014437D01*
X034153Y014501D01*
X034111Y014560D01*
X034060Y014611D01*
X034001Y014653D01*
X033937Y014686D01*
X033868Y014709D01*
X033800Y014719D01*
X033800Y014000D01*
X033720Y014000D01*
X033720Y013920D01*
X033800Y013920D02*
X033800Y013201D01*
X033868Y013211D01*
X033937Y013234D01*
X034001Y013267D01*
X034060Y013309D01*
X034111Y013360D01*
X034153Y013419D01*
X034186Y013483D01*
X034209Y013552D01*
X034220Y013624D01*
X034220Y013920D01*
X033800Y013920D01*
X033800Y013936D02*
X034280Y013936D01*
X034280Y013818D02*
X034220Y013818D01*
X034220Y013699D02*
X034280Y013699D01*
X034280Y013581D02*
X034213Y013581D01*
X034280Y013565D02*
X034353Y013388D01*
X034488Y013253D01*
X034665Y013180D01*
X034855Y013180D01*
X035032Y013253D01*
X035167Y013388D01*
X035240Y013565D01*
X035240Y014355D01*
X035167Y014532D01*
X035032Y014667D01*
X035000Y014680D01*
X035000Y016640D01*
X035032Y016653D01*
X035167Y016788D01*
X035240Y016965D01*
X035240Y017755D01*
X035167Y017932D01*
X035032Y018067D01*
X034855Y018140D01*
X034665Y018140D01*
X034488Y018067D01*
X034353Y017932D01*
X034280Y017755D01*
X034280Y016965D01*
X034353Y016788D01*
X034488Y016653D01*
X034520Y016640D01*
X034520Y014680D01*
X034488Y014667D01*
X034353Y014532D01*
X034280Y014355D01*
X034280Y013565D01*
X034322Y013462D02*
X034175Y013462D01*
X034094Y013344D02*
X034398Y013344D01*
X034556Y013225D02*
X033910Y013225D01*
X033800Y013225D02*
X033720Y013225D01*
X033610Y013225D02*
X033060Y013225D01*
X033060Y013107D02*
X038400Y013107D01*
X038400Y013225D02*
X035964Y013225D01*
X036032Y013253D02*
X036167Y013388D01*
X036240Y013565D01*
X036240Y014355D01*
X036167Y014532D01*
X036032Y014667D01*
X035855Y014740D01*
X035665Y014740D01*
X035488Y014667D01*
X035353Y014532D01*
X035280Y014355D01*
X035280Y013565D01*
X035353Y013388D01*
X035488Y013253D01*
X035665Y013180D01*
X035855Y013180D01*
X036032Y013253D01*
X036122Y013344D02*
X038400Y013344D01*
X038400Y013462D02*
X036198Y013462D01*
X036240Y013581D02*
X038400Y013581D01*
X038400Y013699D02*
X036240Y013699D01*
X036240Y013818D02*
X038400Y013818D01*
X038400Y013936D02*
X036240Y013936D01*
X036240Y014055D02*
X038400Y014055D01*
X038400Y014173D02*
X036240Y014173D01*
X036240Y014292D02*
X038400Y014292D01*
X038400Y014410D02*
X036217Y014410D01*
X036168Y014529D02*
X038400Y014529D01*
X038400Y014647D02*
X036052Y014647D01*
X035468Y014647D02*
X035052Y014647D01*
X035000Y014766D02*
X038400Y014766D01*
X038400Y014884D02*
X035000Y014884D01*
X035000Y015003D02*
X038400Y015003D01*
X038400Y015121D02*
X035000Y015121D01*
X035000Y015240D02*
X038400Y015240D01*
X038400Y015358D02*
X035000Y015358D01*
X035000Y015477D02*
X038400Y015477D01*
X038400Y015595D02*
X035000Y015595D01*
X035000Y015714D02*
X038400Y015714D01*
X038400Y015832D02*
X035000Y015832D01*
X035000Y015951D02*
X038400Y015951D01*
X038400Y016069D02*
X035000Y016069D01*
X035000Y016188D02*
X038400Y016188D01*
X038400Y016306D02*
X035000Y016306D01*
X035000Y016425D02*
X038400Y016425D01*
X038400Y016543D02*
X035000Y016543D01*
X035040Y016662D02*
X035480Y016662D01*
X035488Y016653D02*
X035665Y016580D01*
X035855Y016580D01*
X036032Y016653D01*
X036167Y016788D01*
X036240Y016965D01*
X036240Y017755D01*
X036167Y017932D01*
X036032Y018067D01*
X035855Y018140D01*
X035665Y018140D01*
X035488Y018067D01*
X035353Y017932D01*
X035280Y017755D01*
X035280Y016965D01*
X035353Y016788D01*
X035488Y016653D01*
X035361Y016780D02*
X035159Y016780D01*
X035213Y016899D02*
X035307Y016899D01*
X035280Y017017D02*
X035240Y017017D01*
X035240Y017136D02*
X035280Y017136D01*
X035280Y017254D02*
X035240Y017254D01*
X035240Y017373D02*
X035280Y017373D01*
X035280Y017491D02*
X035240Y017491D01*
X035240Y017610D02*
X035280Y017610D01*
X035280Y017728D02*
X035240Y017728D01*
X035202Y017847D02*
X035318Y017847D01*
X035386Y017965D02*
X035134Y017965D01*
X034992Y018084D02*
X035528Y018084D01*
X035992Y018084D02*
X037786Y018084D01*
X037667Y018202D02*
X033060Y018202D01*
X033060Y018084D02*
X033578Y018084D01*
X033583Y018086D02*
X033519Y018053D01*
X033460Y018011D01*
X033409Y017960D01*
X033367Y017901D01*
X033334Y017837D01*
X033311Y017768D01*
X033300Y017696D01*
X033300Y017400D01*
X033720Y017400D01*
X033720Y018119D01*
X033652Y018109D01*
X033583Y018086D01*
X033720Y018084D02*
X033800Y018084D01*
X033800Y018119D02*
X033800Y017400D01*
X034220Y017400D01*
X034220Y017696D01*
X034209Y017768D01*
X034186Y017837D01*
X034153Y017901D01*
X034111Y017960D01*
X034060Y018011D01*
X034001Y018053D01*
X033937Y018086D01*
X033868Y018109D01*
X033800Y018119D01*
X033942Y018084D02*
X034528Y018084D01*
X034386Y017965D02*
X034106Y017965D01*
X034181Y017847D02*
X034318Y017847D01*
X034280Y017728D02*
X034215Y017728D01*
X034220Y017610D02*
X034280Y017610D01*
X034280Y017491D02*
X034220Y017491D01*
X034280Y017373D02*
X033800Y017373D01*
X033800Y017400D02*
X033800Y017320D01*
X034220Y017320D01*
X034220Y017024D01*
X034209Y016952D01*
X034186Y016883D01*
X034153Y016819D01*
X034111Y016760D01*
X034060Y016709D01*
X034001Y016667D01*
X033937Y016634D01*
X033868Y016611D01*
X033800Y016601D01*
X033800Y017320D01*
X033720Y017320D01*
X033720Y016601D01*
X033652Y016611D01*
X033583Y016634D01*
X033519Y016667D01*
X033460Y016709D01*
X033409Y016760D01*
X033367Y016819D01*
X033334Y016883D01*
X033311Y016952D01*
X033300Y017024D01*
X033300Y017320D01*
X033720Y017320D01*
X033720Y017400D01*
X033800Y017400D01*
X033720Y017373D02*
X033240Y017373D01*
X033240Y017491D02*
X033300Y017491D01*
X033300Y017610D02*
X033240Y017610D01*
X033240Y017728D02*
X033305Y017728D01*
X033339Y017847D02*
X033202Y017847D01*
X033134Y017965D02*
X033414Y017965D01*
X033720Y017965D02*
X033800Y017965D01*
X033800Y017847D02*
X033720Y017847D01*
X033720Y017728D02*
X033800Y017728D01*
X033800Y017610D02*
X033720Y017610D01*
X033720Y017491D02*
X033800Y017491D01*
X033800Y017254D02*
X033720Y017254D01*
X033720Y017136D02*
X033800Y017136D01*
X033800Y017017D02*
X033720Y017017D01*
X033720Y016899D02*
X033800Y016899D01*
X033800Y016780D02*
X033720Y016780D01*
X033720Y016662D02*
X033800Y016662D01*
X033991Y016662D02*
X034480Y016662D01*
X034520Y016543D02*
X033060Y016543D01*
X033060Y016425D02*
X034520Y016425D01*
X034520Y016306D02*
X033060Y016306D01*
X033060Y016188D02*
X034520Y016188D01*
X034520Y016069D02*
X033060Y016069D01*
X033060Y015951D02*
X034520Y015951D01*
X034520Y015832D02*
X033060Y015832D01*
X033060Y015714D02*
X034520Y015714D01*
X034520Y015595D02*
X033060Y015595D01*
X033060Y015477D02*
X034520Y015477D01*
X034520Y015358D02*
X033060Y015358D01*
X033060Y015240D02*
X034520Y015240D01*
X034520Y015121D02*
X033060Y015121D01*
X033060Y015003D02*
X034520Y015003D01*
X034520Y014884D02*
X033060Y014884D01*
X033060Y014766D02*
X034520Y014766D01*
X034468Y014647D02*
X034010Y014647D01*
X034133Y014529D02*
X034352Y014529D01*
X034303Y014410D02*
X034195Y014410D01*
X034220Y014292D02*
X034280Y014292D01*
X034280Y014173D02*
X034220Y014173D01*
X034220Y014055D02*
X034280Y014055D01*
X033800Y014055D02*
X033720Y014055D01*
X033720Y014173D02*
X033800Y014173D01*
X033800Y014292D02*
X033720Y014292D01*
X033720Y014410D02*
X033800Y014410D01*
X033800Y014529D02*
X033720Y014529D01*
X033720Y014647D02*
X033800Y014647D01*
X033800Y013818D02*
X033720Y013818D01*
X033720Y013699D02*
X033800Y013699D01*
X033800Y013581D02*
X033720Y013581D01*
X033720Y013462D02*
X033800Y013462D01*
X033800Y013344D02*
X033720Y013344D01*
X033426Y013344D02*
X033122Y013344D01*
X033198Y013462D02*
X033345Y013462D01*
X033307Y013581D02*
X033240Y013581D01*
X033240Y013699D02*
X033300Y013699D01*
X033300Y013818D02*
X033240Y013818D01*
X033060Y012988D02*
X038400Y012988D01*
X038400Y012870D02*
X033060Y012870D01*
X033060Y012751D02*
X038400Y012751D01*
X038400Y012633D02*
X033060Y012633D01*
X033060Y012514D02*
X038400Y012514D01*
X038400Y012396D02*
X033060Y012396D01*
X033060Y012277D02*
X038400Y012277D01*
X038400Y012159D02*
X033060Y012159D01*
X033060Y012040D02*
X038400Y012040D01*
X038400Y011922D02*
X033060Y011922D01*
X033060Y011803D02*
X038400Y011803D01*
X038400Y011685D02*
X033060Y011685D01*
X033060Y011566D02*
X038400Y011566D01*
X038400Y011448D02*
X033060Y011448D01*
X033060Y011329D02*
X038400Y011329D01*
X038400Y011211D02*
X033060Y011211D01*
X033060Y011092D02*
X038400Y011092D01*
X038400Y010974D02*
X033060Y010974D01*
X033060Y010855D02*
X038400Y010855D01*
X038400Y010737D02*
X033060Y010737D01*
X033060Y010618D02*
X038400Y010618D01*
X038400Y010500D02*
X033060Y010500D01*
X033060Y010381D02*
X038400Y010381D01*
X038400Y010263D02*
X033060Y010263D01*
X033060Y010144D02*
X038400Y010144D01*
X038400Y010026D02*
X033060Y010026D01*
X033060Y009907D02*
X038400Y009907D01*
X038400Y009789D02*
X033060Y009789D01*
X033060Y009670D02*
X038400Y009670D01*
X038400Y009552D02*
X033060Y009552D01*
X033060Y009433D02*
X038400Y009433D01*
X038400Y009315D02*
X033060Y009315D01*
X033060Y009196D02*
X038400Y009196D01*
X038400Y009078D02*
X033060Y009078D01*
X033060Y008959D02*
X038400Y008959D01*
X038400Y008841D02*
X033060Y008841D01*
X033060Y008722D02*
X038400Y008722D01*
X038400Y008604D02*
X033060Y008604D01*
X033060Y008485D02*
X038400Y008485D01*
X038400Y008367D02*
X033060Y008367D01*
X033038Y008248D02*
X038400Y008248D01*
X038400Y008130D02*
X032954Y008130D01*
X032835Y008011D02*
X038400Y008011D01*
X038400Y007893D02*
X036190Y007893D01*
X036186Y007898D02*
X036039Y007958D01*
X035881Y007958D01*
X035734Y007898D01*
X035637Y007800D01*
X033712Y007800D01*
X033624Y007763D01*
X032719Y006858D01*
X032581Y006858D01*
X032434Y006798D01*
X032322Y006686D01*
X032262Y006539D01*
X032262Y006381D01*
X032322Y006234D01*
X032434Y006122D01*
X032581Y006062D01*
X032739Y006062D01*
X032886Y006122D01*
X032998Y006234D01*
X033058Y006381D01*
X033058Y006519D01*
X033859Y007320D01*
X035637Y007320D01*
X035734Y007222D01*
X035881Y007162D01*
X036039Y007162D01*
X036186Y007222D01*
X036298Y007334D01*
X036358Y007481D01*
X036358Y007639D01*
X036298Y007786D01*
X036186Y007898D01*
X036302Y007774D02*
X037974Y007774D01*
X037814Y007656D02*
X036351Y007656D01*
X036358Y007537D02*
X037742Y007537D01*
X037706Y007419D02*
X036332Y007419D01*
X036263Y007300D02*
X037706Y007300D01*
X037743Y007182D02*
X036087Y007182D01*
X035833Y007182D02*
X033721Y007182D01*
X033839Y007300D02*
X035657Y007300D01*
X035960Y007560D02*
X033760Y007560D01*
X032660Y006460D01*
X032503Y006826D02*
X032060Y006826D01*
X032060Y006708D02*
X032344Y006708D01*
X032283Y006589D02*
X032060Y006589D01*
X032060Y006471D02*
X032262Y006471D01*
X032274Y006352D02*
X032060Y006352D01*
X032060Y006234D02*
X032323Y006234D01*
X032453Y006115D02*
X032060Y006115D01*
X032060Y005997D02*
X038400Y005997D01*
X038400Y006115D02*
X032867Y006115D01*
X032997Y006234D02*
X038400Y006234D01*
X038400Y006352D02*
X033046Y006352D01*
X033058Y006471D02*
X038400Y006471D01*
X038400Y006589D02*
X033128Y006589D01*
X033247Y006708D02*
X038400Y006708D01*
X038400Y006826D02*
X033365Y006826D01*
X033484Y006945D02*
X037978Y006945D01*
X037815Y007063D02*
X033602Y007063D01*
X033279Y007419D02*
X032243Y007419D01*
X032361Y007537D02*
X033398Y007537D01*
X033516Y007656D02*
X032480Y007656D01*
X032598Y007774D02*
X033650Y007774D01*
X032717Y007893D02*
X035729Y007893D01*
X038346Y007774D02*
X038400Y007774D01*
X038400Y006945D02*
X038342Y006945D01*
X038400Y005878D02*
X032036Y005878D01*
X032201Y005760D02*
X032319Y005760D01*
X031456Y006115D02*
X029151Y006115D01*
X029269Y006234D02*
X031460Y006234D01*
X031460Y006352D02*
X031430Y006352D01*
X031338Y005997D02*
X028890Y005997D01*
X028917Y005878D02*
X031219Y005878D01*
X031101Y005760D02*
X029035Y005760D01*
X029166Y005049D02*
X028868Y005049D01*
X029162Y004930D02*
X026606Y004930D01*
X026606Y004812D02*
X029191Y004812D01*
X029264Y004693D02*
X026606Y004693D01*
X026606Y004575D02*
X029450Y004575D01*
X029670Y004575D02*
X031285Y004575D01*
X031285Y004693D02*
X029856Y004693D01*
X029929Y004812D02*
X031285Y004812D01*
X031285Y004930D02*
X029958Y004930D01*
X029954Y005049D02*
X031285Y005049D01*
X031285Y004456D02*
X026606Y004456D01*
X026663Y004338D02*
X031342Y004338D01*
X031420Y004219D02*
X030022Y004219D01*
X029971Y004270D02*
X029549Y004270D01*
X029250Y003971D01*
X029250Y003549D01*
X029549Y003250D01*
X029971Y003250D01*
X030270Y003549D01*
X030270Y003971D01*
X029971Y004270D01*
X030141Y004101D02*
X031379Y004101D01*
X031261Y003982D02*
X030259Y003982D01*
X030270Y003864D02*
X031250Y003864D01*
X031250Y003745D02*
X030270Y003745D01*
X030270Y003627D02*
X031250Y003627D01*
X031291Y003508D02*
X030229Y003508D01*
X030111Y003390D02*
X031409Y003390D01*
X031528Y003271D02*
X029992Y003271D01*
X029528Y003271D02*
X028964Y003271D01*
X028963Y003270D02*
X029250Y003557D01*
X029250Y003722D01*
X028798Y003722D01*
X028798Y003798D01*
X029250Y003798D01*
X029250Y003963D01*
X028963Y004250D01*
X028798Y004250D01*
X028798Y003798D01*
X028722Y003798D01*
X028722Y003722D01*
X028798Y003722D01*
X028798Y003270D01*
X028963Y003270D01*
X028798Y003271D02*
X028722Y003271D01*
X028722Y003270D02*
X028722Y003722D01*
X028270Y003722D01*
X028270Y003557D01*
X028557Y003270D01*
X028722Y003270D01*
X028722Y003390D02*
X028798Y003390D01*
X028798Y003508D02*
X028722Y003508D01*
X028722Y003627D02*
X028798Y003627D01*
X028798Y003745D02*
X029250Y003745D01*
X029250Y003627D02*
X029250Y003627D01*
X029291Y003508D02*
X029201Y003508D01*
X029082Y003390D02*
X029409Y003390D01*
X029250Y003864D02*
X029250Y003864D01*
X029261Y003982D02*
X029231Y003982D01*
X029112Y004101D02*
X029379Y004101D01*
X029498Y004219D02*
X028994Y004219D01*
X028798Y004219D02*
X028722Y004219D01*
X028722Y004250D02*
X028557Y004250D01*
X028270Y003963D01*
X028270Y003798D01*
X028722Y003798D01*
X028722Y004250D01*
X028722Y004101D02*
X028798Y004101D01*
X028798Y003982D02*
X028722Y003982D01*
X028722Y003864D02*
X028798Y003864D01*
X028722Y003745D02*
X027798Y003745D01*
X027798Y003722D02*
X027798Y003798D01*
X028250Y003798D01*
X028250Y003963D01*
X027963Y004250D01*
X027798Y004250D01*
X027798Y003798D01*
X027722Y003798D01*
X027722Y003722D01*
X027798Y003722D01*
X028250Y003722D01*
X028250Y003557D01*
X027963Y003270D01*
X027798Y003270D01*
X027798Y003722D01*
X027722Y003722D02*
X027722Y003270D01*
X027557Y003270D01*
X027270Y003557D01*
X027270Y003722D01*
X027722Y003722D01*
X027722Y003745D02*
X027270Y003745D01*
X027270Y003798D02*
X027722Y003798D01*
X027722Y004250D01*
X027557Y004250D01*
X027270Y003963D01*
X027270Y003798D01*
X027270Y003864D02*
X027270Y003864D01*
X027259Y003982D02*
X027289Y003982D01*
X027408Y004101D02*
X027141Y004101D01*
X027022Y004219D02*
X027526Y004219D01*
X027722Y004219D02*
X027798Y004219D01*
X027798Y004101D02*
X027722Y004101D01*
X027722Y003982D02*
X027798Y003982D01*
X027798Y003864D02*
X027722Y003864D01*
X027722Y003627D02*
X027798Y003627D01*
X027798Y003508D02*
X027722Y003508D01*
X027722Y003390D02*
X027798Y003390D01*
X027798Y003271D02*
X027722Y003271D01*
X027556Y003271D02*
X026992Y003271D01*
X027111Y003390D02*
X027438Y003390D01*
X027319Y003508D02*
X027229Y003508D01*
X027270Y003627D02*
X027270Y003627D01*
X027964Y003271D02*
X028556Y003271D01*
X028438Y003390D02*
X028082Y003390D01*
X028201Y003508D02*
X028319Y003508D01*
X028270Y003627D02*
X028250Y003627D01*
X028250Y003864D02*
X028270Y003864D01*
X028289Y003982D02*
X028231Y003982D01*
X028112Y004101D02*
X028408Y004101D01*
X028526Y004219D02*
X027994Y004219D01*
X027726Y005049D02*
X027606Y005049D01*
X027606Y005167D02*
X027726Y005167D01*
X027726Y005286D02*
X027606Y005286D01*
X027606Y005404D02*
X027114Y005404D01*
X027114Y005520D02*
X026994Y005520D01*
X026994Y005785D01*
X026994Y006200D01*
X027114Y006200D01*
X027114Y005520D01*
X027114Y005523D02*
X026994Y005523D01*
X026994Y005641D02*
X027114Y005641D01*
X027114Y005760D02*
X026994Y005760D01*
X026994Y005878D02*
X027114Y005878D01*
X027114Y005997D02*
X026994Y005997D01*
X026994Y006115D02*
X027114Y006115D01*
X027114Y006234D02*
X027606Y006234D01*
X027606Y006200D02*
X027726Y006200D01*
X027726Y005520D01*
X027606Y005520D01*
X027606Y005935D01*
X027606Y006200D01*
X027606Y006115D02*
X027726Y006115D01*
X027726Y005997D02*
X027606Y005997D01*
X027606Y005878D02*
X027726Y005878D01*
X027726Y005760D02*
X027606Y005760D01*
X027606Y005641D02*
X027726Y005641D01*
X027726Y005523D02*
X027606Y005523D01*
X027114Y005286D02*
X026994Y005286D01*
X026994Y005167D02*
X027114Y005167D01*
X027114Y005049D02*
X026994Y005049D01*
X025926Y004930D02*
X016269Y004930D01*
X016388Y005049D02*
X025852Y005049D01*
X025830Y005167D02*
X016506Y005167D01*
X016625Y005286D02*
X025830Y005286D01*
X025830Y005404D02*
X016743Y005404D01*
X016862Y005523D02*
X025830Y005523D01*
X025830Y005641D02*
X016980Y005641D01*
X017099Y005760D02*
X025197Y005760D01*
X025104Y005878D02*
X017217Y005878D01*
X017336Y005997D02*
X025062Y005997D01*
X024981Y006115D02*
X017454Y006115D01*
X017573Y006234D02*
X024862Y006234D01*
X024744Y006352D02*
X017691Y006352D01*
X017810Y006471D02*
X024625Y006471D01*
X024507Y006589D02*
X017928Y006589D01*
X018047Y006708D02*
X024388Y006708D01*
X024270Y006826D02*
X018165Y006826D01*
X018284Y006945D02*
X024151Y006945D01*
X024033Y007063D02*
X018402Y007063D01*
X018521Y007182D02*
X023914Y007182D01*
X023796Y007300D02*
X018639Y007300D01*
X017653Y007893D02*
X015635Y007893D01*
X015635Y007774D02*
X017535Y007774D01*
X017416Y007656D02*
X015635Y007656D01*
X015635Y007537D02*
X017298Y007537D01*
X017179Y007419D02*
X015635Y007419D01*
X015635Y007300D02*
X017061Y007300D01*
X016942Y007182D02*
X015635Y007182D01*
X014685Y007893D02*
X014675Y007893D01*
X013000Y006352D02*
X012120Y006352D01*
X012120Y006234D02*
X013000Y006234D01*
X013000Y006115D02*
X012120Y006115D01*
X012120Y005997D02*
X013000Y005997D01*
X013000Y005878D02*
X012120Y005878D01*
X012120Y005760D02*
X013000Y005760D01*
X013000Y005641D02*
X012120Y005641D01*
X012120Y005523D02*
X013004Y005523D01*
X013077Y005404D02*
X012120Y005404D01*
X012120Y005286D02*
X013195Y005286D01*
X013314Y005167D02*
X012120Y005167D01*
X012120Y005049D02*
X013432Y005049D01*
X013551Y004930D02*
X012120Y004930D01*
X012120Y004812D02*
X025926Y004812D01*
X025926Y004693D02*
X012120Y004693D01*
X012120Y004575D02*
X025926Y004575D01*
X025926Y004456D02*
X012120Y004456D01*
X012120Y004338D02*
X025926Y004338D01*
X025498Y004219D02*
X025022Y004219D01*
X025141Y004101D02*
X025379Y004101D01*
X025261Y003982D02*
X025259Y003982D01*
X025229Y003508D02*
X025291Y003508D01*
X025409Y003390D02*
X025111Y003390D01*
X024992Y003271D02*
X025528Y003271D01*
X025992Y003271D02*
X026528Y003271D01*
X026409Y003390D02*
X026111Y003390D01*
X026229Y003508D02*
X026291Y003508D01*
X024528Y003271D02*
X023992Y003271D01*
X024111Y003390D02*
X024409Y003390D01*
X024291Y003508D02*
X024229Y003508D01*
X024259Y003982D02*
X024261Y003982D01*
X024379Y004101D02*
X024141Y004101D01*
X024022Y004219D02*
X024498Y004219D01*
X023498Y004219D02*
X023022Y004219D01*
X023141Y004101D02*
X023379Y004101D01*
X023261Y003982D02*
X023259Y003982D01*
X023229Y003508D02*
X023291Y003508D01*
X023409Y003390D02*
X023111Y003390D01*
X022992Y003271D02*
X023528Y003271D01*
X022528Y003271D02*
X012714Y003271D01*
X012707Y003153D02*
X037400Y003153D01*
X037400Y003271D02*
X036992Y003271D01*
X037111Y003390D02*
X037400Y003390D01*
X037400Y003508D02*
X037229Y003508D01*
X037270Y003627D02*
X037400Y003627D01*
X037400Y003745D02*
X037270Y003745D01*
X037270Y003864D02*
X037405Y003864D01*
X037454Y003982D02*
X037259Y003982D01*
X037141Y004101D02*
X037550Y004101D01*
X037668Y004219D02*
X037022Y004219D01*
X036778Y004338D02*
X037787Y004338D01*
X037905Y004456D02*
X036835Y004456D01*
X036835Y004575D02*
X038024Y004575D01*
X038142Y004693D02*
X036835Y004693D01*
X036835Y004812D02*
X038261Y004812D01*
X038379Y004930D02*
X036835Y004930D01*
X036835Y005049D02*
X038400Y005049D01*
X038400Y005167D02*
X036835Y005167D01*
X036835Y005286D02*
X038400Y005286D01*
X038400Y005404D02*
X036835Y005404D01*
X036835Y005523D02*
X038400Y005523D01*
X038400Y005641D02*
X036835Y005641D01*
X036801Y005760D02*
X038400Y005760D01*
X035919Y005760D02*
X035201Y005760D01*
X034319Y005760D02*
X034201Y005760D01*
X033319Y005760D02*
X033201Y005760D01*
X032805Y006945D02*
X032060Y006945D01*
X032060Y007063D02*
X032924Y007063D01*
X033042Y007182D02*
X032060Y007182D01*
X032124Y007300D02*
X033161Y007300D01*
X031987Y008011D02*
X023933Y008011D01*
X023815Y008130D02*
X032105Y008130D01*
X031868Y007893D02*
X024052Y007893D01*
X024170Y007774D02*
X025970Y007774D01*
X025970Y007656D02*
X024289Y007656D01*
X024407Y007537D02*
X025970Y007537D01*
X025970Y007419D02*
X024526Y007419D01*
X024644Y007300D02*
X025970Y007300D01*
X025970Y007182D02*
X024763Y007182D01*
X024881Y007063D02*
X025970Y007063D01*
X025970Y006945D02*
X025000Y006945D01*
X025118Y006826D02*
X025970Y006826D01*
X025888Y006708D02*
X025237Y006708D01*
X025355Y006589D02*
X025830Y006589D01*
X025830Y006471D02*
X025474Y006471D01*
X025731Y006352D02*
X025830Y006352D01*
X025819Y006234D02*
X025830Y006234D01*
X025816Y005878D02*
X025830Y005878D01*
X025830Y005760D02*
X025723Y005760D01*
X026994Y006352D02*
X027114Y006352D01*
X027114Y006471D02*
X026994Y006471D01*
X026994Y006589D02*
X027114Y006589D01*
X027085Y006708D02*
X026994Y006708D01*
X026992Y006826D02*
X026750Y006826D01*
X026750Y006945D02*
X026990Y006945D01*
X026990Y007063D02*
X026750Y007063D01*
X026750Y007182D02*
X026990Y007182D01*
X026990Y007419D02*
X026750Y007419D01*
X026750Y007537D02*
X026990Y007537D01*
X026990Y007656D02*
X026750Y007656D01*
X026750Y007774D02*
X027005Y007774D01*
X027315Y007774D02*
X027405Y007774D01*
X027405Y007656D02*
X027315Y007656D01*
X027315Y007537D02*
X027405Y007537D01*
X027405Y007419D02*
X027315Y007419D01*
X027315Y007300D02*
X026750Y007300D01*
X026707Y006708D02*
X026700Y006708D01*
X027606Y006589D02*
X027726Y006589D01*
X027726Y006471D02*
X027606Y006471D01*
X027606Y006352D02*
X027726Y006352D01*
X027726Y006708D02*
X027635Y006708D01*
X027728Y006826D02*
X027970Y006826D01*
X027970Y006945D02*
X027730Y006945D01*
X027730Y007063D02*
X027970Y007063D01*
X027970Y007182D02*
X027730Y007182D01*
X027730Y007419D02*
X027970Y007419D01*
X027970Y007537D02*
X027730Y007537D01*
X027730Y007656D02*
X027970Y007656D01*
X027970Y007774D02*
X027715Y007774D01*
X028750Y007774D02*
X031750Y007774D01*
X031631Y007656D02*
X028750Y007656D01*
X028750Y007537D02*
X031513Y007537D01*
X031460Y007419D02*
X028750Y007419D01*
X028750Y007300D02*
X031460Y007300D01*
X030889Y007182D02*
X030769Y007182D01*
X030769Y007063D02*
X030889Y007063D01*
X030889Y006945D02*
X030769Y006945D01*
X030769Y006826D02*
X030103Y006826D01*
X030103Y006708D02*
X030157Y006708D01*
X030157Y006589D02*
X030103Y006589D01*
X030103Y006471D02*
X030157Y006471D01*
X030227Y006352D02*
X030045Y006352D01*
X030103Y006945D02*
X030157Y006945D01*
X030157Y007063D02*
X030103Y007063D01*
X030103Y007182D02*
X030171Y007182D01*
X030769Y006708D02*
X030889Y006708D01*
X030889Y006589D02*
X030769Y006589D01*
X030769Y006471D02*
X030889Y006471D01*
X030889Y006352D02*
X030769Y006352D01*
X028020Y006708D02*
X028013Y006708D01*
X027970Y007300D02*
X027405Y007300D01*
X025054Y010026D02*
X021919Y010026D01*
X021800Y010144D02*
X025054Y010144D01*
X025054Y010263D02*
X021682Y010263D01*
X021563Y010381D02*
X025054Y010381D01*
X025054Y010500D02*
X021445Y010500D01*
X021326Y010618D02*
X025054Y010618D01*
X025054Y010737D02*
X021208Y010737D01*
X021089Y010855D02*
X025054Y010855D01*
X025054Y010974D02*
X020971Y010974D01*
X020852Y011092D02*
X025054Y011092D01*
X025054Y011211D02*
X020734Y011211D01*
X020575Y011329D02*
X025054Y011329D01*
X025054Y011448D02*
X019544Y011448D01*
X019595Y011566D02*
X025054Y011566D01*
X025054Y011685D02*
X019595Y011685D01*
X019595Y011922D02*
X025054Y011922D01*
X025054Y012040D02*
X019595Y012040D01*
X019580Y012159D02*
X025054Y012159D01*
X025054Y012277D02*
X012120Y012277D01*
X012120Y012159D02*
X018660Y012159D01*
X018645Y012040D02*
X012120Y012040D01*
X012120Y011922D02*
X018645Y011922D01*
X018645Y011685D02*
X012120Y011685D01*
X012120Y011803D02*
X019060Y011803D01*
X019060Y011922D02*
X019180Y011922D01*
X019180Y012040D02*
X019060Y012040D01*
X019060Y012159D02*
X019180Y012159D01*
X019180Y011803D02*
X025054Y011803D01*
X025054Y012396D02*
X012120Y012396D01*
X012120Y012514D02*
X025054Y012514D01*
X025054Y012633D02*
X012120Y012633D01*
X012120Y012751D02*
X025121Y012751D01*
X020833Y010263D02*
X019327Y010263D01*
X019404Y010381D02*
X020715Y010381D01*
X020596Y010500D02*
X019420Y010500D01*
X019517Y010618D02*
X020478Y010618D01*
X020359Y010737D02*
X019615Y010737D01*
X018723Y010618D02*
X017984Y010618D01*
X018085Y010500D02*
X018715Y010500D01*
X018597Y010381D02*
X018085Y010381D01*
X018085Y010263D02*
X018478Y010263D01*
X018625Y010737D02*
X012120Y010737D01*
X012120Y010855D02*
X018625Y010855D01*
X018625Y010974D02*
X012120Y010974D01*
X012120Y011092D02*
X018625Y011092D01*
X018625Y011211D02*
X012120Y011211D01*
X012120Y011329D02*
X018625Y011329D01*
X018696Y011448D02*
X012120Y011448D01*
X012120Y011566D02*
X018645Y011566D01*
X017353Y010618D02*
X017197Y010618D01*
X016565Y010618D02*
X016409Y010618D01*
X015778Y010618D02*
X015622Y010618D01*
X014991Y010618D02*
X014834Y010618D01*
X014203Y010618D02*
X014047Y010618D01*
X013416Y010618D02*
X013260Y010618D01*
X012628Y010618D02*
X012472Y010618D01*
X013480Y006234D02*
X016894Y006234D01*
X016776Y006115D02*
X013480Y006115D01*
X013480Y005997D02*
X016657Y005997D01*
X016539Y005878D02*
X013480Y005878D01*
X013480Y005760D02*
X016420Y005760D01*
X016302Y005641D02*
X013518Y005641D01*
X013637Y005523D02*
X016183Y005523D01*
X016065Y005404D02*
X013755Y005404D01*
X012120Y004219D02*
X022498Y004219D01*
X022379Y004101D02*
X012120Y004101D01*
X012120Y003982D02*
X022261Y003982D01*
X022250Y003864D02*
X012120Y003864D01*
X012120Y003745D02*
X022250Y003745D01*
X022250Y003627D02*
X012535Y003627D01*
X012648Y003508D02*
X022291Y003508D01*
X022409Y003390D02*
X012697Y003390D01*
X031992Y003271D02*
X032528Y003271D01*
X032409Y003390D02*
X032111Y003390D01*
X032229Y003508D02*
X032291Y003508D01*
X032992Y003271D02*
X033528Y003271D01*
X033409Y003390D02*
X033111Y003390D01*
X033229Y003508D02*
X033291Y003508D01*
X033992Y003271D02*
X034528Y003271D01*
X034409Y003390D02*
X034111Y003390D01*
X034229Y003508D02*
X034291Y003508D01*
X034992Y003271D02*
X035528Y003271D01*
X035409Y003390D02*
X035111Y003390D01*
X035229Y003508D02*
X035291Y003508D01*
X035992Y003271D02*
X036528Y003271D01*
X036409Y003390D02*
X036111Y003390D01*
X036229Y003508D02*
X036291Y003508D01*
X035556Y013225D02*
X034964Y013225D01*
X035122Y013344D02*
X035398Y013344D01*
X035322Y013462D02*
X035198Y013462D01*
X035240Y013581D02*
X035280Y013581D01*
X035280Y013699D02*
X035240Y013699D01*
X035240Y013818D02*
X035280Y013818D01*
X035280Y013936D02*
X035240Y013936D01*
X035240Y014055D02*
X035280Y014055D01*
X035280Y014173D02*
X035240Y014173D01*
X035240Y014292D02*
X035280Y014292D01*
X035303Y014410D02*
X035217Y014410D01*
X035168Y014529D02*
X035352Y014529D01*
X034760Y013960D02*
X034760Y017360D01*
X034280Y017254D02*
X034220Y017254D01*
X034220Y017136D02*
X034280Y017136D01*
X034280Y017017D02*
X034219Y017017D01*
X034191Y016899D02*
X034307Y016899D01*
X034361Y016780D02*
X034125Y016780D01*
X033529Y016662D02*
X033060Y016662D01*
X033159Y016780D02*
X033395Y016780D01*
X033329Y016899D02*
X033213Y016899D01*
X033240Y017017D02*
X033301Y017017D01*
X033300Y017136D02*
X033240Y017136D01*
X033240Y017254D02*
X033300Y017254D01*
X032280Y017254D02*
X030540Y017254D01*
X030540Y017136D02*
X032280Y017136D01*
X032280Y017017D02*
X030540Y017017D01*
X030540Y016965D02*
X030540Y017755D01*
X030467Y017932D01*
X030332Y018067D01*
X030155Y018140D01*
X029965Y018140D01*
X029788Y018067D01*
X029653Y017932D01*
X029580Y017755D01*
X029580Y016965D01*
X029653Y016788D01*
X029788Y016653D01*
X029965Y016580D01*
X030155Y016580D01*
X030332Y016653D01*
X030467Y016788D01*
X030540Y016965D01*
X030513Y016899D02*
X032307Y016899D01*
X032361Y016780D02*
X030459Y016780D01*
X030340Y016662D02*
X032460Y016662D01*
X032460Y016543D02*
X027360Y016543D01*
X027360Y016425D02*
X032460Y016425D01*
X032460Y016306D02*
X027360Y016306D01*
X027360Y016188D02*
X032460Y016188D01*
X032460Y016069D02*
X027360Y016069D01*
X027360Y015951D02*
X032460Y015951D01*
X032460Y015832D02*
X027360Y015832D01*
X027360Y015714D02*
X032460Y015714D01*
X029780Y016662D02*
X029340Y016662D01*
X029332Y016653D02*
X029467Y016788D01*
X029540Y016965D01*
X029540Y017755D01*
X029467Y017932D01*
X029332Y018067D01*
X029155Y018140D01*
X028965Y018140D01*
X028788Y018067D01*
X028653Y017932D01*
X028580Y017755D01*
X028580Y016965D01*
X028653Y016788D01*
X028788Y016653D01*
X028965Y016580D01*
X029155Y016580D01*
X029332Y016653D01*
X029459Y016780D02*
X029661Y016780D01*
X029607Y016899D02*
X029513Y016899D01*
X029540Y017017D02*
X029580Y017017D01*
X029580Y017136D02*
X029540Y017136D01*
X029540Y017254D02*
X029580Y017254D01*
X029580Y017373D02*
X029540Y017373D01*
X029540Y017491D02*
X029580Y017491D01*
X029580Y017610D02*
X029540Y017610D01*
X029540Y017728D02*
X029580Y017728D01*
X029618Y017847D02*
X029502Y017847D01*
X029434Y017965D02*
X029686Y017965D01*
X029828Y018084D02*
X029292Y018084D01*
X028828Y018084D02*
X028242Y018084D01*
X028237Y018086D02*
X028168Y018109D01*
X028100Y018119D01*
X028100Y017400D01*
X028520Y017400D01*
X028520Y017696D01*
X028509Y017768D01*
X028486Y017837D01*
X028453Y017901D01*
X028411Y017960D01*
X028360Y018011D01*
X028301Y018053D01*
X028237Y018086D01*
X028100Y018084D02*
X028020Y018084D01*
X028020Y018119D02*
X027952Y018109D01*
X027883Y018086D01*
X027819Y018053D01*
X027760Y018011D01*
X027709Y017960D01*
X027667Y017901D01*
X027634Y017837D01*
X027611Y017768D01*
X027600Y017696D01*
X027600Y017400D01*
X028020Y017400D01*
X028020Y018119D01*
X027878Y018084D02*
X027292Y018084D01*
X027434Y017965D02*
X027714Y017965D01*
X027639Y017847D02*
X027502Y017847D01*
X027540Y017728D02*
X027605Y017728D01*
X027600Y017610D02*
X027540Y017610D01*
X027540Y017491D02*
X027600Y017491D01*
X027540Y017373D02*
X028020Y017373D01*
X028020Y017400D02*
X028020Y017320D01*
X028100Y017320D01*
X028100Y017400D01*
X028020Y017400D01*
X028020Y017320D02*
X027600Y017320D01*
X027600Y017024D01*
X027611Y016952D01*
X027634Y016883D01*
X027667Y016819D01*
X027709Y016760D01*
X027760Y016709D01*
X027819Y016667D01*
X027883Y016634D01*
X027952Y016611D01*
X028020Y016601D01*
X028020Y017320D01*
X028020Y017254D02*
X028100Y017254D01*
X028100Y017320D02*
X028100Y016601D01*
X028168Y016611D01*
X028237Y016634D01*
X028301Y016667D01*
X028360Y016709D01*
X028411Y016760D01*
X028453Y016819D01*
X028486Y016883D01*
X028509Y016952D01*
X028520Y017024D01*
X028520Y017320D01*
X028100Y017320D01*
X028100Y017373D02*
X028580Y017373D01*
X028580Y017491D02*
X028520Y017491D01*
X028520Y017610D02*
X028580Y017610D01*
X028580Y017728D02*
X028515Y017728D01*
X028481Y017847D02*
X028618Y017847D01*
X028686Y017965D02*
X028406Y017965D01*
X028100Y017965D02*
X028020Y017965D01*
X028020Y017847D02*
X028100Y017847D01*
X028100Y017728D02*
X028020Y017728D01*
X028020Y017610D02*
X028100Y017610D01*
X028100Y017491D02*
X028020Y017491D01*
X028020Y017136D02*
X028100Y017136D01*
X028100Y017017D02*
X028020Y017017D01*
X028020Y016899D02*
X028100Y016899D01*
X028100Y016780D02*
X028020Y016780D01*
X028020Y016662D02*
X028100Y016662D01*
X028291Y016662D02*
X028780Y016662D01*
X028661Y016780D02*
X028425Y016780D01*
X028491Y016899D02*
X028607Y016899D01*
X028580Y017017D02*
X028519Y017017D01*
X028520Y017136D02*
X028580Y017136D01*
X028580Y017254D02*
X028520Y017254D01*
X027829Y016662D02*
X027360Y016662D01*
X027459Y016780D02*
X027695Y016780D01*
X027629Y016899D02*
X027513Y016899D01*
X027540Y017017D02*
X027601Y017017D01*
X027600Y017136D02*
X027540Y017136D01*
X027540Y017254D02*
X027600Y017254D01*
X026580Y017254D02*
X013244Y017254D01*
X013244Y017136D02*
X026580Y017136D01*
X026580Y017017D02*
X018013Y017017D01*
X018065Y016899D02*
X026607Y016899D01*
X026661Y016780D02*
X018065Y016780D01*
X018065Y016662D02*
X026760Y016662D01*
X026760Y016543D02*
X018065Y016543D01*
X018065Y016425D02*
X026760Y016425D01*
X026580Y017373D02*
X013244Y017373D01*
X013244Y017491D02*
X026580Y017491D01*
X026580Y017610D02*
X015476Y017610D01*
X015551Y017728D02*
X026580Y017728D01*
X026618Y017847D02*
X015551Y017847D01*
X015551Y017965D02*
X026686Y017965D01*
X026828Y018084D02*
X015195Y018084D01*
X015195Y018202D02*
X015075Y018202D01*
X015075Y018321D02*
X015195Y018321D01*
X015195Y018439D02*
X015075Y018439D01*
X015513Y018439D02*
X032460Y018439D01*
X032460Y018321D02*
X015551Y018321D01*
X015551Y018202D02*
X032460Y018202D01*
X032460Y018084D02*
X030292Y018084D01*
X030434Y017965D02*
X032386Y017965D01*
X032318Y017847D02*
X030502Y017847D01*
X030540Y017728D02*
X032280Y017728D01*
X032280Y017610D02*
X030540Y017610D01*
X030540Y017491D02*
X032280Y017491D01*
X032280Y017373D02*
X030540Y017373D01*
X032247Y018676D02*
X026695Y018676D01*
X026577Y018558D02*
X032438Y018558D01*
X032062Y018795D02*
X026814Y018795D01*
X026932Y018913D02*
X031990Y018913D01*
X031962Y019032D02*
X027051Y019032D01*
X027169Y019150D02*
X031966Y019150D01*
X032015Y019269D02*
X027288Y019269D01*
X027406Y019387D02*
X032124Y019387D01*
X032596Y019387D02*
X036622Y019387D01*
X036606Y019269D02*
X032705Y019269D01*
X032754Y019150D02*
X036614Y019150D01*
X036664Y019032D02*
X032813Y019032D01*
X032931Y018913D02*
X036765Y018913D01*
X037355Y018913D02*
X037400Y018913D01*
X037400Y018795D02*
X033029Y018795D01*
X033060Y018676D02*
X037400Y018676D01*
X037405Y018558D02*
X033060Y018558D01*
X033060Y018439D02*
X037454Y018439D01*
X037549Y018321D02*
X033060Y018321D01*
X035048Y020217D02*
X037400Y020217D01*
X037400Y020335D02*
X035194Y020335D01*
X035313Y020454D02*
X037400Y020454D01*
X037400Y020572D02*
X035431Y020572D01*
X035550Y020691D02*
X037400Y020691D01*
X037400Y020809D02*
X035668Y020809D01*
X035787Y020928D02*
X037400Y020928D01*
X037400Y021046D02*
X035905Y021046D01*
X036012Y021165D02*
X037400Y021165D01*
X037400Y021283D02*
X036040Y021283D01*
X036040Y021402D02*
X037400Y021402D01*
X037400Y021520D02*
X036040Y021520D01*
X036040Y021639D02*
X037400Y021639D01*
X037400Y021757D02*
X036040Y021757D01*
X036040Y021876D02*
X037400Y021876D01*
X037400Y021994D02*
X036040Y021994D01*
X036040Y022113D02*
X037400Y022113D01*
X037400Y022231D02*
X036040Y022231D01*
X036071Y022350D02*
X036449Y022350D01*
X036331Y022468D02*
X036189Y022468D01*
X035800Y022720D02*
X035760Y022760D01*
X035800Y022720D02*
X035800Y021280D01*
X034960Y020440D01*
X028120Y020440D01*
X026440Y018760D01*
X014560Y018760D01*
X014465Y018665D01*
X014465Y018040D01*
X014090Y017610D02*
X014070Y017610D01*
X014105Y017017D02*
X014145Y017017D01*
X014892Y017017D02*
X014933Y017017D01*
X015075Y017610D02*
X015195Y017610D01*
X015195Y017728D02*
X015075Y017728D01*
X015075Y017847D02*
X015195Y017847D01*
X015195Y017965D02*
X015075Y017965D01*
X015679Y017017D02*
X015720Y017017D01*
X016467Y017017D02*
X016508Y017017D01*
X016260Y017660D02*
X016260Y018040D01*
X017254Y017017D02*
X017323Y017017D01*
X017610Y017017D02*
X017726Y017017D01*
X017726Y016899D02*
X017610Y016899D01*
X017610Y016780D02*
X017726Y016780D01*
X017726Y016662D02*
X017610Y016662D01*
X017610Y016543D02*
X017726Y016543D01*
X017726Y016425D02*
X017610Y016425D01*
X013358Y017017D02*
X013317Y017017D01*
X012157Y016309D02*
X012157Y018637D01*
X012680Y019160D01*
X026260Y019160D01*
X027860Y020760D01*
X034760Y020760D01*
X035260Y021260D01*
X035260Y023160D01*
X035460Y023360D01*
X036560Y023360D01*
X036760Y023160D01*
X036760Y022760D01*
X037270Y022705D02*
X037400Y022705D01*
X037400Y022587D02*
X037270Y022587D01*
X037189Y022468D02*
X037400Y022468D01*
X037400Y022350D02*
X037071Y022350D01*
X037270Y022824D02*
X037400Y022824D01*
X037400Y022942D02*
X037270Y022942D01*
X037309Y023061D02*
X037181Y023061D01*
X037190Y023179D02*
X037062Y023179D01*
X037072Y023298D02*
X036962Y023298D01*
X035570Y023600D02*
X035412Y023600D01*
X035324Y023563D01*
X035124Y023363D01*
X035057Y023296D01*
X035024Y023217D01*
X034971Y023270D01*
X034549Y023270D01*
X034260Y022981D01*
X033971Y023270D01*
X033549Y023270D01*
X033260Y022981D01*
X032971Y023270D01*
X032549Y023270D01*
X032260Y022981D01*
X031971Y023270D01*
X031549Y023270D01*
X031492Y023213D01*
X031485Y023220D01*
X031021Y023220D01*
X030971Y023270D01*
X030549Y023270D01*
X030499Y023220D01*
X030435Y023220D01*
X030400Y023185D01*
X030400Y023121D01*
X030260Y022981D01*
X029971Y023270D01*
X029549Y023270D01*
X029250Y022971D01*
X029250Y022549D01*
X029549Y022250D01*
X029971Y022250D01*
X030260Y022539D01*
X030400Y022399D01*
X030400Y021135D01*
X030435Y021100D01*
X031485Y021100D01*
X031520Y021135D01*
X031520Y022279D01*
X031549Y022250D01*
X031971Y022250D01*
X032260Y022539D01*
X032549Y022250D01*
X032971Y022250D01*
X033260Y022539D01*
X033549Y022250D01*
X033971Y022250D01*
X034260Y022539D01*
X034549Y022250D01*
X034971Y022250D01*
X035020Y022299D01*
X035020Y021359D01*
X034661Y021000D01*
X027812Y021000D01*
X027724Y020963D01*
X026161Y019400D01*
X012632Y019400D01*
X012544Y019363D01*
X012120Y018939D01*
X012120Y022827D01*
X012170Y022806D01*
X012350Y022806D01*
X012517Y022875D01*
X012645Y023003D01*
X012714Y023170D01*
X012714Y023350D01*
X012645Y023517D01*
X012517Y023645D01*
X012390Y023697D01*
X012420Y023768D01*
X012420Y024534D01*
X012565Y024474D01*
X012755Y024474D01*
X012932Y024547D01*
X013067Y024682D01*
X013140Y024858D01*
X013140Y025649D01*
X013067Y025826D01*
X012932Y025961D01*
X012920Y025966D01*
X012920Y030028D01*
X013030Y029918D01*
X013165Y029784D01*
X013205Y029784D01*
X013130Y029709D01*
X013130Y029047D01*
X013022Y028939D01*
X012962Y028793D01*
X012962Y028635D01*
X013022Y028488D01*
X013134Y028376D01*
X013281Y028316D01*
X013439Y028316D01*
X013586Y028376D01*
X013698Y028488D01*
X013758Y028635D01*
X013758Y028793D01*
X013753Y028805D01*
X013918Y028805D01*
X013939Y028826D01*
X013941Y028825D01*
X014060Y028825D01*
X014060Y029084D01*
X014060Y029342D01*
X014023Y029342D01*
X014023Y029541D01*
X014023Y030085D01*
X014060Y030085D01*
X014060Y030344D01*
X014060Y030602D01*
X014005Y030602D01*
X014005Y030627D01*
X014074Y030696D01*
X014100Y030671D01*
X014136Y030650D01*
X014177Y030639D01*
X014187Y030639D01*
X014150Y030602D01*
X014060Y030602D01*
X014060Y030344D01*
X014060Y030344D01*
X014060Y030085D01*
X014117Y030085D01*
X014117Y030029D01*
X014375Y030029D01*
X014375Y030029D01*
X014117Y030029D01*
X014117Y029909D01*
X014127Y029871D01*
X014117Y029833D01*
X014117Y029714D01*
X014375Y029714D01*
X014375Y029714D01*
X014375Y030029D01*
X014375Y030029D01*
X014375Y029770D01*
X014375Y029714D01*
X014375Y029714D01*
X014117Y029714D01*
X014117Y029594D01*
X014127Y029556D01*
X014117Y029518D01*
X014117Y029399D01*
X014375Y029399D01*
X014375Y029399D01*
X014375Y029714D01*
X014375Y029714D01*
X014375Y029657D01*
X014375Y029399D01*
X014375Y029399D01*
X014117Y029399D01*
X014117Y029342D01*
X014060Y029342D01*
X014060Y029084D01*
X014060Y029084D01*
X014060Y028825D01*
X014179Y028825D01*
X014181Y028826D01*
X014202Y028805D01*
X014548Y028805D01*
X014566Y028824D01*
X014585Y028824D01*
X014585Y028749D01*
X014690Y028643D01*
X015430Y028643D01*
X015535Y028749D01*
X015535Y029373D01*
X015570Y029338D01*
X015570Y027983D01*
X015551Y027989D01*
X015334Y027989D01*
X015334Y027574D01*
X015214Y027574D01*
X015214Y027989D01*
X014997Y027989D01*
X014956Y027978D01*
X014920Y027957D01*
X014894Y027931D01*
X014817Y028009D01*
X014156Y028009D01*
X014050Y027903D01*
X014050Y027543D01*
X013290Y027543D01*
X013185Y027438D01*
X013185Y026777D01*
X013262Y026700D01*
X013237Y026674D01*
X013216Y026638D01*
X013205Y026597D01*
X013205Y026380D01*
X013620Y026380D01*
X013620Y026260D01*
X013740Y026260D01*
X013740Y026007D01*
X013700Y026013D01*
X013700Y025294D01*
X013620Y025294D01*
X013620Y025904D01*
X013620Y026260D01*
X013205Y026260D01*
X013205Y026043D01*
X013216Y026002D01*
X013237Y025966D01*
X013267Y025936D01*
X013303Y025915D01*
X013344Y025904D01*
X013360Y025904D01*
X013309Y025853D01*
X013267Y025795D01*
X013234Y025730D01*
X013211Y025661D01*
X013200Y025590D01*
X013200Y025294D01*
X013620Y025294D01*
X013620Y025214D01*
X013200Y025214D01*
X013200Y024917D01*
X013211Y024846D01*
X013234Y024777D01*
X013267Y024713D01*
X013309Y024654D01*
X013360Y024603D01*
X013419Y024560D01*
X013483Y024527D01*
X013552Y024505D01*
X013620Y024494D01*
X013620Y025214D01*
X013700Y025214D01*
X013700Y025294D01*
X014120Y025294D01*
X014120Y025590D01*
X014109Y025661D01*
X014086Y025730D01*
X014053Y025795D01*
X014011Y025853D01*
X013960Y025904D01*
X014016Y025904D01*
X014057Y025915D01*
X014093Y025936D01*
X014123Y025966D01*
X014144Y026002D01*
X014155Y026043D01*
X014155Y026226D01*
X014206Y026226D01*
X014215Y026194D01*
X014236Y026157D01*
X014266Y026127D01*
X014302Y026106D01*
X014343Y026095D01*
X014522Y026095D01*
X014610Y026095D01*
X014610Y026034D01*
X014565Y026034D01*
X014388Y025961D01*
X014253Y025826D01*
X014180Y025649D01*
X014180Y024858D01*
X014253Y024682D01*
X014388Y024547D01*
X014565Y024474D01*
X014755Y024474D01*
X014932Y024547D01*
X015067Y024682D01*
X015140Y024858D01*
X015140Y025448D01*
X015180Y025408D01*
X015180Y024858D01*
X015253Y024682D01*
X015388Y024547D01*
X015565Y024474D01*
X015755Y024474D01*
X015900Y024534D01*
X015900Y023768D01*
X015970Y023599D01*
X016099Y023470D01*
X016268Y023400D01*
X018751Y023400D01*
X018921Y023470D01*
X019050Y023599D01*
X019120Y023768D01*
X019120Y024477D01*
X019225Y024434D01*
X019415Y024434D01*
X019592Y024507D01*
X019727Y024642D01*
X019800Y024818D01*
X019800Y025609D01*
X019727Y025786D01*
X019592Y025921D01*
X019580Y025926D01*
X019580Y030194D01*
X019624Y030150D01*
X019971Y029804D01*
X019924Y029757D01*
X019857Y029690D01*
X019820Y029601D01*
X019820Y028706D01*
X019857Y028618D01*
X019862Y028612D01*
X019862Y028475D01*
X019922Y028328D01*
X020034Y028216D01*
X020181Y028156D01*
X020339Y028156D01*
X020486Y028216D01*
X020598Y028328D01*
X020658Y028475D01*
X020658Y028633D01*
X020603Y028765D01*
X020678Y028765D01*
X020699Y028786D01*
X020701Y028785D01*
X020820Y028785D01*
X020820Y029044D01*
X020820Y029302D01*
X020783Y029302D01*
X020783Y029532D01*
X020783Y029816D01*
X020783Y030045D01*
X020820Y030045D01*
X020820Y030304D01*
X020820Y030562D01*
X020701Y030562D01*
X020700Y030562D01*
X020774Y030636D01*
X020800Y030611D01*
X020836Y030590D01*
X020877Y030579D01*
X020927Y030579D01*
X020910Y030562D01*
X020820Y030562D01*
X020820Y030304D01*
X020820Y030304D01*
X020820Y030045D01*
X020877Y030045D01*
X020877Y029989D01*
X021135Y029989D01*
X021393Y029989D01*
X021393Y030059D01*
X021485Y030059D01*
X021485Y029458D01*
X021489Y029454D01*
X021485Y029450D01*
X021485Y029304D01*
X021393Y029304D01*
X021393Y029359D01*
X021393Y029478D01*
X021383Y029516D01*
X021393Y029554D01*
X021393Y029674D01*
X021393Y029793D01*
X021383Y029831D01*
X021393Y029869D01*
X021393Y029989D01*
X021135Y029989D01*
X021135Y029989D01*
X021135Y029989D01*
X020877Y029989D01*
X020877Y029869D01*
X020887Y029831D01*
X020877Y029793D01*
X020877Y029674D01*
X021135Y029674D01*
X021135Y029674D01*
X021135Y029989D01*
X021135Y029989D01*
X021135Y029932D01*
X021135Y029674D01*
X021393Y029674D01*
X021135Y029674D01*
X021135Y029674D01*
X021135Y029674D01*
X020877Y029674D01*
X020877Y029554D01*
X020887Y029516D01*
X020877Y029478D01*
X020877Y029359D01*
X021135Y029359D01*
X021135Y029359D01*
X021135Y029674D01*
X021135Y029674D01*
X021135Y029617D01*
X021135Y029359D01*
X021393Y029359D01*
X021135Y029359D01*
X021135Y029359D01*
X021135Y029359D01*
X020877Y029359D01*
X020877Y029302D01*
X020820Y029302D01*
X020820Y029044D01*
X020820Y029044D01*
X020820Y028785D01*
X020939Y028785D01*
X020941Y028786D01*
X020962Y028765D01*
X021308Y028765D01*
X021326Y028784D01*
X021490Y028784D01*
X021590Y028683D01*
X022330Y028683D01*
X022330Y028683D01*
X022330Y028289D01*
X022234Y028289D01*
X022234Y027874D01*
X022114Y027874D01*
X022114Y028289D01*
X021897Y028289D01*
X021856Y028278D01*
X021820Y028257D01*
X021794Y028231D01*
X021717Y028309D01*
X021056Y028309D01*
X020950Y028203D01*
X020950Y027424D01*
X021056Y027319D01*
X021156Y027319D01*
X021156Y027152D01*
X021110Y027152D01*
X021090Y027132D01*
X021090Y027149D01*
X020990Y027249D01*
X020855Y027384D01*
X020755Y027384D01*
X020755Y027538D01*
X020650Y027643D01*
X019870Y027643D01*
X019765Y027538D01*
X019765Y026877D01*
X019842Y026800D01*
X019817Y026774D01*
X019796Y026738D01*
X019785Y026697D01*
X019785Y026480D01*
X020200Y026480D01*
X020200Y026360D01*
X020320Y026360D01*
X020320Y026004D01*
X020596Y026004D01*
X020637Y026015D01*
X020673Y026036D01*
X020703Y026066D01*
X020724Y026102D01*
X020735Y026143D01*
X020735Y026353D01*
X020765Y026324D01*
X020862Y026226D01*
X021026Y026226D01*
X021035Y026194D01*
X021056Y026157D01*
X021086Y026127D01*
X021122Y026106D01*
X021163Y026095D01*
X021342Y026095D01*
X021430Y026095D01*
X021430Y025988D01*
X021415Y025994D01*
X021225Y025994D01*
X021048Y025921D01*
X020913Y025786D01*
X020840Y025609D01*
X020840Y024818D01*
X020913Y024642D01*
X021048Y024507D01*
X021225Y024434D01*
X021415Y024434D01*
X021592Y024507D01*
X021727Y024642D01*
X021800Y024818D01*
X021800Y025368D01*
X021828Y025397D01*
X021828Y025380D01*
X021840Y025368D01*
X021840Y024818D01*
X021913Y024642D01*
X022048Y024507D01*
X022225Y024434D01*
X022415Y024434D01*
X022592Y024507D01*
X022600Y024515D01*
X022600Y023768D01*
X022670Y023599D01*
X022799Y023470D01*
X022968Y023400D01*
X025351Y023400D01*
X025521Y023470D01*
X025650Y023599D01*
X025720Y023768D01*
X025720Y024492D01*
X025765Y024474D01*
X025955Y024474D01*
X026132Y024547D01*
X026267Y024682D01*
X026340Y024858D01*
X026340Y025649D01*
X026267Y025826D01*
X026132Y025961D01*
X026120Y025966D01*
X026120Y029968D01*
X026165Y029924D01*
X026350Y029739D01*
X026420Y029739D01*
X026330Y029649D01*
X026330Y028558D01*
X026362Y028527D01*
X026362Y028375D01*
X026422Y028228D01*
X026534Y028116D01*
X026681Y028056D01*
X026839Y028056D01*
X026986Y028116D01*
X027098Y028228D01*
X027158Y028375D01*
X027158Y028533D01*
X027098Y028679D01*
X027031Y028745D01*
X027218Y028745D01*
X027239Y028766D01*
X027241Y028765D01*
X027360Y028765D01*
X027360Y029024D01*
X027360Y029282D01*
X027323Y029282D01*
X027323Y029481D01*
X027323Y030025D01*
X027360Y030025D01*
X027360Y030284D01*
X027360Y030522D01*
X027360Y030522D01*
X027360Y030284D01*
X027360Y030284D01*
X027360Y030025D01*
X027417Y030025D01*
X027417Y029969D01*
X027675Y029969D01*
X027933Y029969D01*
X027933Y030039D01*
X028041Y030039D01*
X028085Y029996D01*
X028085Y029558D01*
X028089Y029554D01*
X028085Y029550D01*
X028085Y029284D01*
X027933Y029284D01*
X027933Y029339D01*
X027933Y029458D01*
X027923Y029496D01*
X027933Y029534D01*
X027933Y029654D01*
X027933Y029773D01*
X027923Y029811D01*
X027933Y029849D01*
X027933Y029969D01*
X027675Y029969D01*
X027675Y029969D01*
X027675Y029969D01*
X027417Y029969D01*
X027417Y029849D01*
X027427Y029811D01*
X027417Y029773D01*
X027417Y029654D01*
X027675Y029654D01*
X027675Y029654D01*
X027675Y029969D01*
X027675Y029969D01*
X027675Y029912D01*
X027675Y029654D01*
X027933Y029654D01*
X027675Y029654D01*
X027675Y029654D01*
X027675Y029654D01*
X027417Y029654D01*
X027417Y029534D01*
X027427Y029496D01*
X027417Y029458D01*
X027417Y029339D01*
X027675Y029339D01*
X027675Y029339D01*
X027675Y029654D01*
X027675Y029654D01*
X027675Y029597D01*
X027675Y029339D01*
X027933Y029339D01*
X027675Y029339D01*
X027675Y029339D01*
X027675Y029339D01*
X027417Y029339D01*
X027417Y029282D01*
X027360Y029282D01*
X027360Y029024D01*
X027360Y029024D01*
X027360Y028765D01*
X027479Y028765D01*
X027481Y028766D01*
X027502Y028745D01*
X027848Y028745D01*
X027866Y028764D01*
X028416Y028764D01*
X028463Y028783D01*
X028930Y028783D01*
X028930Y028783D01*
X028930Y028329D01*
X028814Y028329D01*
X028814Y027914D01*
X028694Y027914D01*
X028694Y028329D01*
X028477Y028329D01*
X028436Y028318D01*
X028400Y028297D01*
X028374Y028271D01*
X028297Y028349D01*
X027636Y028349D01*
X027530Y028243D01*
X027530Y027464D01*
X027636Y027359D01*
X027736Y027359D01*
X027736Y027019D01*
X027724Y027007D01*
X027724Y026715D01*
X027690Y026749D01*
X027690Y027049D01*
X027590Y027149D01*
X027455Y027284D01*
X027355Y027284D01*
X027355Y027378D01*
X027250Y027483D01*
X026470Y027483D01*
X026365Y027378D01*
X026365Y026717D01*
X026442Y026640D01*
X026417Y026614D01*
X026396Y026578D01*
X026385Y026537D01*
X026385Y026320D01*
X026800Y026320D01*
X026800Y026200D01*
X026920Y026200D01*
X026920Y026320D01*
X027335Y026320D01*
X027335Y026453D01*
X027365Y026424D01*
X027602Y026186D01*
X027746Y026186D01*
X027755Y026154D01*
X027776Y026117D01*
X027806Y026087D01*
X027842Y026066D01*
X027883Y026055D01*
X028062Y026055D01*
X028130Y026055D01*
X028130Y025961D01*
X027955Y026034D01*
X027765Y026034D01*
X027588Y025961D01*
X027453Y025826D01*
X027380Y025649D01*
X027380Y024858D01*
X027453Y024682D01*
X027588Y024547D01*
X027765Y024474D01*
X027955Y024474D01*
X028132Y024547D01*
X028267Y024682D01*
X028340Y024858D01*
X028340Y025408D01*
X028380Y025448D01*
X028380Y024858D01*
X028453Y024682D01*
X028588Y024547D01*
X028765Y024474D01*
X028955Y024474D01*
X029100Y024534D01*
X029100Y023768D01*
X029170Y023599D01*
X029299Y023470D01*
X029468Y023400D01*
X031751Y023400D01*
X031921Y023470D01*
X032050Y023599D01*
X032120Y023768D01*
X032120Y024392D01*
X032165Y024374D01*
X032355Y024374D01*
X032532Y024447D01*
X032667Y024582D01*
X032740Y024758D01*
X032740Y025549D01*
X032809Y025549D01*
X032811Y025561D02*
X032800Y025490D01*
X032800Y025194D01*
X033220Y025194D01*
X033220Y025913D01*
X033200Y025910D01*
X033200Y026100D01*
X033320Y026100D01*
X033320Y026220D01*
X033735Y026220D01*
X033735Y026353D01*
X033922Y026166D01*
X034086Y026166D01*
X034095Y026134D01*
X034116Y026097D01*
X034146Y026067D01*
X034182Y026046D01*
X034223Y026035D01*
X034402Y026035D01*
X034530Y026035D01*
X034530Y025861D01*
X034355Y025934D01*
X034165Y025934D01*
X033988Y025861D01*
X033853Y025726D01*
X033780Y025549D01*
X033711Y025549D01*
X033709Y025561D02*
X033686Y025630D01*
X033653Y025695D01*
X033614Y025749D01*
X033637Y025755D01*
X033673Y025776D01*
X033703Y025806D01*
X033724Y025842D01*
X033735Y025883D01*
X033735Y026100D01*
X033320Y026100D01*
X033320Y025910D01*
X033300Y025913D01*
X033300Y025194D01*
X033220Y025194D01*
X033220Y025114D01*
X032800Y025114D01*
X032800Y024817D01*
X032811Y024746D01*
X032834Y024677D01*
X032867Y024613D01*
X032909Y024554D01*
X032960Y024503D01*
X033019Y024460D01*
X033083Y024427D01*
X033152Y024405D01*
X033220Y024394D01*
X033220Y025114D01*
X033300Y025114D01*
X033300Y025194D01*
X033720Y025194D01*
X033720Y025490D01*
X033709Y025561D01*
X033780Y025549D02*
X033780Y024758D01*
X033853Y024582D01*
X033988Y024447D01*
X034165Y024374D01*
X034355Y024374D01*
X034532Y024447D01*
X034667Y024582D01*
X034740Y024758D01*
X034740Y025308D01*
X034780Y025348D01*
X034780Y024758D01*
X034853Y024582D01*
X034988Y024447D01*
X035165Y024374D01*
X035355Y024374D01*
X035500Y024434D01*
X035500Y023768D01*
X035570Y023600D01*
X035548Y023653D02*
X032072Y023653D01*
X032120Y023772D02*
X035500Y023772D01*
X035500Y023890D02*
X032120Y023890D01*
X032120Y024009D02*
X035500Y024009D01*
X035500Y024127D02*
X032120Y024127D01*
X032120Y024246D02*
X035500Y024246D01*
X035500Y024364D02*
X032120Y024364D01*
X032568Y024483D02*
X032988Y024483D01*
X032875Y024601D02*
X032675Y024601D01*
X032724Y024720D02*
X032820Y024720D01*
X032800Y024838D02*
X032740Y024838D01*
X032740Y024957D02*
X032800Y024957D01*
X032800Y025075D02*
X032740Y025075D01*
X032740Y025194D02*
X033220Y025194D01*
X033300Y025194D02*
X033780Y025194D01*
X033720Y025114D02*
X033300Y025114D01*
X033300Y024394D01*
X033368Y024405D01*
X033437Y024427D01*
X033501Y024460D01*
X033560Y024503D01*
X033611Y024554D01*
X033653Y024613D01*
X033686Y024677D01*
X033709Y024746D01*
X033720Y024817D01*
X033720Y025114D01*
X033720Y025075D02*
X033780Y025075D01*
X033780Y024957D02*
X033720Y024957D01*
X033720Y024838D02*
X033780Y024838D01*
X033796Y024720D02*
X033700Y024720D01*
X033645Y024601D02*
X033845Y024601D01*
X033952Y024483D02*
X033532Y024483D01*
X033300Y024483D02*
X033220Y024483D01*
X033220Y024601D02*
X033300Y024601D01*
X033300Y024720D02*
X033220Y024720D01*
X033220Y024838D02*
X033300Y024838D01*
X033300Y024957D02*
X033220Y024957D01*
X033220Y025075D02*
X033300Y025075D01*
X033300Y025312D02*
X033220Y025312D01*
X033220Y025431D02*
X033300Y025431D01*
X033300Y025549D02*
X033220Y025549D01*
X033220Y025668D02*
X033300Y025668D01*
X033300Y025786D02*
X033220Y025786D01*
X033220Y025905D02*
X033300Y025905D01*
X033320Y026023D02*
X033200Y026023D01*
X033200Y026100D02*
X032785Y026100D01*
X032785Y025883D01*
X032796Y025842D01*
X032817Y025806D01*
X032847Y025776D01*
X032883Y025755D01*
X032906Y025749D01*
X032867Y025695D01*
X032834Y025630D01*
X032811Y025561D01*
X032740Y025549D02*
X032667Y025726D01*
X032532Y025861D01*
X032520Y025866D01*
X032520Y030068D01*
X032565Y030024D01*
X032850Y029739D01*
X032920Y029739D01*
X032830Y029649D01*
X032830Y028787D01*
X032822Y028779D01*
X032762Y028633D01*
X032762Y028475D01*
X032822Y028328D01*
X032934Y028216D01*
X033081Y028156D01*
X033239Y028156D01*
X033386Y028216D01*
X033498Y028328D01*
X033558Y028475D01*
X033558Y028633D01*
X033512Y028745D01*
X033718Y028745D01*
X033739Y028766D01*
X033741Y028765D01*
X033860Y028765D01*
X033860Y029024D01*
X033860Y029282D01*
X033823Y029282D01*
X033823Y029481D01*
X033823Y030025D01*
X033860Y030025D01*
X033860Y030284D01*
X033860Y030025D01*
X033917Y030025D01*
X033917Y029969D01*
X034175Y029969D01*
X034433Y029969D01*
X034433Y030039D01*
X034505Y030039D01*
X034505Y029398D01*
X034509Y029394D01*
X034505Y029390D01*
X034505Y029284D01*
X034433Y029284D01*
X034433Y029339D01*
X034433Y029458D01*
X034423Y029496D01*
X034433Y029534D01*
X034433Y029654D01*
X034433Y029773D01*
X034423Y029811D01*
X034433Y029849D01*
X034433Y029969D01*
X034175Y029969D01*
X034175Y029969D01*
X034175Y029969D01*
X033917Y029969D01*
X033917Y029849D01*
X033927Y029811D01*
X033917Y029773D01*
X033917Y029654D01*
X034175Y029654D01*
X034175Y029654D01*
X034175Y029969D01*
X034175Y029969D01*
X034175Y029912D01*
X034175Y029654D01*
X034433Y029654D01*
X034175Y029654D01*
X034175Y029654D01*
X034175Y029654D01*
X033917Y029654D01*
X033917Y029534D01*
X033927Y029496D01*
X033917Y029458D01*
X033917Y029339D01*
X034175Y029339D01*
X034175Y029339D01*
X034175Y029654D01*
X034175Y029654D01*
X034175Y029395D01*
X034175Y029339D01*
X034433Y029339D01*
X034175Y029339D01*
X034175Y029339D01*
X034175Y029339D01*
X033917Y029339D01*
X033917Y029282D01*
X033860Y029282D01*
X033860Y029024D01*
X033860Y029024D01*
X033860Y028765D01*
X033979Y028765D01*
X033981Y028766D01*
X034002Y028745D01*
X034348Y028745D01*
X034366Y028764D01*
X034505Y028764D01*
X034505Y028729D01*
X034610Y028623D01*
X035350Y028623D01*
X035430Y028703D01*
X035430Y028029D01*
X035314Y028029D01*
X035314Y027614D01*
X035194Y027614D01*
X035194Y028029D01*
X034977Y028029D01*
X034936Y028018D01*
X034900Y027997D01*
X034874Y027971D01*
X034797Y028049D01*
X034136Y028049D01*
X034030Y027943D01*
X034030Y027164D01*
X034136Y027059D01*
X034136Y027059D01*
X034064Y026987D01*
X034064Y026675D01*
X033990Y026749D01*
X033990Y026849D01*
X033890Y026949D01*
X033755Y027084D01*
X033755Y027278D01*
X033650Y027383D01*
X032870Y027383D01*
X032765Y027278D01*
X032765Y026617D01*
X032842Y026540D01*
X032817Y026514D01*
X032796Y026478D01*
X032785Y026437D01*
X032785Y026220D01*
X033200Y026220D01*
X033200Y026100D01*
X033200Y026142D02*
X032520Y026142D01*
X032520Y026260D02*
X032785Y026260D01*
X032785Y026379D02*
X032520Y026379D01*
X032520Y026497D02*
X032807Y026497D01*
X032766Y026616D02*
X032520Y026616D01*
X032520Y026734D02*
X032765Y026734D01*
X032765Y026853D02*
X032520Y026853D01*
X032520Y026971D02*
X032765Y026971D01*
X032765Y027090D02*
X032520Y027090D01*
X032520Y027208D02*
X032765Y027208D01*
X032814Y027327D02*
X032520Y027327D01*
X032520Y027445D02*
X034030Y027445D01*
X034030Y027327D02*
X033706Y027327D01*
X033755Y027208D02*
X034030Y027208D01*
X034105Y027090D02*
X033755Y027090D01*
X033755Y027084D02*
X033755Y027084D01*
X033868Y026971D02*
X034064Y026971D01*
X034064Y026853D02*
X033986Y026853D01*
X034005Y026734D02*
X034064Y026734D01*
X033828Y026260D02*
X033735Y026260D01*
X033735Y026023D02*
X034530Y026023D01*
X034530Y025905D02*
X034426Y025905D01*
X034402Y026035D02*
X034402Y026166D01*
X034402Y026166D01*
X034402Y026035D01*
X034402Y026142D02*
X034402Y026142D01*
X034093Y026142D02*
X033320Y026142D01*
X033735Y025905D02*
X034094Y025905D01*
X033914Y025786D02*
X033683Y025786D01*
X033667Y025668D02*
X033829Y025668D01*
X033780Y025431D02*
X033720Y025431D01*
X033720Y025312D02*
X033780Y025312D01*
X034744Y025312D02*
X034780Y025312D01*
X034780Y025194D02*
X034740Y025194D01*
X034740Y025075D02*
X034780Y025075D01*
X034780Y024957D02*
X034740Y024957D01*
X034740Y024838D02*
X034780Y024838D01*
X034796Y024720D02*
X034724Y024720D01*
X034675Y024601D02*
X034845Y024601D01*
X034952Y024483D02*
X034568Y024483D01*
X035295Y023535D02*
X031985Y023535D01*
X031790Y023416D02*
X035177Y023416D01*
X035058Y023298D02*
X012714Y023298D01*
X012714Y023179D02*
X018858Y023179D01*
X018949Y023270D02*
X018650Y022971D01*
X018650Y022549D01*
X018949Y022250D01*
X019371Y022250D01*
X019660Y022539D01*
X019949Y022250D01*
X020371Y022250D01*
X020660Y022539D01*
X020949Y022250D01*
X021371Y022250D01*
X021670Y022549D01*
X021670Y022971D01*
X021371Y023270D01*
X020949Y023270D01*
X020660Y022981D01*
X020371Y023270D01*
X019949Y023270D01*
X019660Y022981D01*
X019371Y023270D01*
X018949Y023270D01*
X018790Y023416D02*
X022930Y023416D01*
X022949Y023270D02*
X022650Y022971D01*
X022650Y022549D01*
X022920Y022279D01*
X022920Y021811D01*
X022710Y021811D01*
X022605Y021705D01*
X022605Y021044D01*
X022609Y021040D01*
X022605Y021036D01*
X022605Y020945D01*
X015364Y020945D01*
X015364Y021050D01*
X015259Y021155D01*
X014519Y021155D01*
X014414Y021050D01*
X014414Y020310D01*
X014519Y020205D01*
X015259Y020205D01*
X015364Y020310D01*
X015364Y020465D01*
X022605Y020465D01*
X022605Y020375D01*
X022710Y020269D01*
X023450Y020269D01*
X023555Y020375D01*
X023555Y021036D01*
X023551Y021040D01*
X023555Y021044D01*
X023555Y021705D01*
X023450Y021811D01*
X023400Y021811D01*
X023400Y022279D01*
X023660Y022539D01*
X023949Y022250D01*
X024371Y022250D01*
X024660Y022539D01*
X024949Y022250D01*
X025371Y022250D01*
X025660Y022539D01*
X025949Y022250D01*
X026371Y022250D01*
X026660Y022539D01*
X026949Y022250D01*
X027371Y022250D01*
X027660Y022539D01*
X027949Y022250D01*
X028371Y022250D01*
X028670Y022549D01*
X028670Y022971D01*
X028371Y023270D01*
X027949Y023270D01*
X027660Y022981D01*
X027371Y023270D01*
X026949Y023270D01*
X026660Y022981D01*
X026371Y023270D01*
X025949Y023270D01*
X025660Y022981D01*
X025371Y023270D01*
X024949Y023270D01*
X024660Y022981D01*
X024371Y023270D01*
X023949Y023270D01*
X023660Y022981D01*
X023371Y023270D01*
X022949Y023270D01*
X022858Y023179D02*
X022434Y023179D01*
X022363Y023250D02*
X022650Y022963D01*
X022650Y022798D01*
X022198Y022798D01*
X022198Y022722D01*
X022650Y022722D01*
X022650Y022557D01*
X022363Y022270D01*
X022198Y022270D01*
X022198Y022722D01*
X022122Y022722D01*
X022122Y022270D01*
X021957Y022270D01*
X021670Y022557D01*
X021670Y022722D01*
X022122Y022722D01*
X022122Y022798D01*
X021670Y022798D01*
X021670Y022963D01*
X021957Y023250D01*
X022122Y023250D01*
X022122Y022798D01*
X022198Y022798D01*
X022198Y023250D01*
X022363Y023250D01*
X022198Y023179D02*
X022122Y023179D01*
X022122Y023061D02*
X022198Y023061D01*
X022198Y022942D02*
X022122Y022942D01*
X022122Y022824D02*
X022198Y022824D01*
X022198Y022705D02*
X022122Y022705D01*
X022122Y022587D02*
X022198Y022587D01*
X022198Y022468D02*
X022122Y022468D01*
X022122Y022350D02*
X022198Y022350D01*
X022443Y022350D02*
X022849Y022350D01*
X022920Y022231D02*
X012120Y022231D01*
X012120Y022113D02*
X022920Y022113D01*
X022920Y021994D02*
X012120Y021994D01*
X012120Y021876D02*
X022920Y021876D01*
X022657Y021757D02*
X012120Y021757D01*
X012120Y021639D02*
X022605Y021639D01*
X022605Y021520D02*
X012120Y021520D01*
X012120Y021402D02*
X022605Y021402D01*
X022605Y021283D02*
X012120Y021283D01*
X012120Y021165D02*
X022605Y021165D01*
X022605Y021046D02*
X015364Y021046D01*
X015060Y020760D02*
X014969Y020760D01*
X014889Y020680D01*
X015060Y020760D02*
X015115Y020705D01*
X023080Y020705D01*
X023555Y020691D02*
X027451Y020691D01*
X027570Y020809D02*
X023555Y020809D01*
X023555Y020928D02*
X027688Y020928D01*
X027333Y020572D02*
X023555Y020572D01*
X023555Y020454D02*
X027214Y020454D01*
X027096Y020335D02*
X023515Y020335D01*
X023555Y021046D02*
X034707Y021046D01*
X034825Y021165D02*
X031520Y021165D01*
X031520Y021283D02*
X034944Y021283D01*
X035020Y021402D02*
X031520Y021402D01*
X031520Y021520D02*
X035020Y021520D01*
X035020Y021639D02*
X031520Y021639D01*
X031520Y021757D02*
X035020Y021757D01*
X035020Y021876D02*
X031520Y021876D01*
X031520Y021994D02*
X035020Y021994D01*
X035020Y022113D02*
X031520Y022113D01*
X031520Y022231D02*
X035020Y022231D01*
X034449Y022350D02*
X034071Y022350D01*
X034189Y022468D02*
X034331Y022468D01*
X034339Y023061D02*
X034181Y023061D01*
X034062Y023179D02*
X034458Y023179D01*
X033458Y023179D02*
X033062Y023179D01*
X033181Y023061D02*
X033339Y023061D01*
X033331Y022468D02*
X033189Y022468D01*
X033071Y022350D02*
X033449Y022350D01*
X032449Y022350D02*
X032071Y022350D01*
X032189Y022468D02*
X032331Y022468D01*
X032339Y023061D02*
X032181Y023061D01*
X032062Y023179D02*
X032458Y023179D01*
X030400Y023179D02*
X030062Y023179D01*
X030181Y023061D02*
X030339Y023061D01*
X030331Y022468D02*
X030189Y022468D01*
X030071Y022350D02*
X030400Y022350D01*
X030400Y022231D02*
X023400Y022231D01*
X023400Y022113D02*
X030400Y022113D01*
X030400Y021994D02*
X023400Y021994D01*
X023400Y021876D02*
X030400Y021876D01*
X030400Y021757D02*
X023503Y021757D01*
X023555Y021639D02*
X030400Y021639D01*
X030400Y021520D02*
X023555Y021520D01*
X023555Y021402D02*
X030400Y021402D01*
X030400Y021283D02*
X023555Y021283D01*
X023555Y021165D02*
X030400Y021165D01*
X029449Y022350D02*
X028471Y022350D01*
X028589Y022468D02*
X029331Y022468D01*
X029250Y022587D02*
X028670Y022587D01*
X028670Y022705D02*
X029250Y022705D01*
X029250Y022824D02*
X028670Y022824D01*
X028670Y022942D02*
X029250Y022942D01*
X029339Y023061D02*
X028581Y023061D01*
X028462Y023179D02*
X029458Y023179D01*
X029430Y023416D02*
X025390Y023416D01*
X025585Y023535D02*
X029235Y023535D01*
X029148Y023653D02*
X025672Y023653D01*
X025720Y023772D02*
X029100Y023772D01*
X029100Y023890D02*
X025720Y023890D01*
X025720Y024009D02*
X029100Y024009D01*
X029100Y024127D02*
X025720Y024127D01*
X025720Y024246D02*
X029100Y024246D01*
X029100Y024364D02*
X025720Y024364D01*
X025720Y024483D02*
X025743Y024483D01*
X025977Y024483D02*
X027743Y024483D01*
X027977Y024483D02*
X028743Y024483D01*
X028977Y024483D02*
X029100Y024483D01*
X028534Y024601D02*
X028186Y024601D01*
X028283Y024720D02*
X028437Y024720D01*
X028388Y024838D02*
X028332Y024838D01*
X028340Y024957D02*
X028380Y024957D01*
X028380Y025075D02*
X028340Y025075D01*
X028340Y025194D02*
X028380Y025194D01*
X028380Y025312D02*
X028340Y025312D01*
X028362Y025431D02*
X028380Y025431D01*
X028130Y026023D02*
X027981Y026023D01*
X028062Y026055D02*
X028062Y026186D01*
X028062Y026055D01*
X028062Y026142D02*
X028062Y026142D01*
X028062Y026186D02*
X028062Y026186D01*
X027762Y026142D02*
X027335Y026142D01*
X027335Y026200D02*
X027335Y025983D01*
X027324Y025942D01*
X027303Y025906D01*
X027273Y025876D01*
X027237Y025855D01*
X027214Y025849D01*
X027253Y025795D01*
X027286Y025730D01*
X027309Y025661D01*
X027320Y025590D01*
X027320Y025294D01*
X026900Y025294D01*
X026820Y025294D01*
X026820Y026013D01*
X026800Y026010D01*
X026800Y026200D01*
X026385Y026200D01*
X026385Y025983D01*
X026396Y025942D01*
X026417Y025906D01*
X026447Y025876D01*
X026483Y025855D01*
X026506Y025849D01*
X026467Y025795D01*
X026434Y025730D01*
X026411Y025661D01*
X026400Y025590D01*
X026400Y025294D01*
X026820Y025294D01*
X026820Y025214D01*
X026400Y025214D01*
X026400Y024917D01*
X026411Y024846D01*
X026434Y024777D01*
X026467Y024713D01*
X026509Y024654D01*
X026560Y024603D01*
X026619Y024560D01*
X026683Y024527D01*
X026752Y024505D01*
X026820Y024494D01*
X026820Y025214D01*
X026900Y025214D01*
X026900Y025294D01*
X026900Y026013D01*
X026920Y026010D01*
X026920Y026200D01*
X027335Y026200D01*
X027335Y026023D02*
X027739Y026023D01*
X027532Y025905D02*
X027302Y025905D01*
X027258Y025786D02*
X027437Y025786D01*
X027388Y025668D02*
X027307Y025668D01*
X027320Y025549D02*
X027380Y025549D01*
X027380Y025431D02*
X027320Y025431D01*
X027320Y025312D02*
X027380Y025312D01*
X027320Y025214D02*
X026900Y025214D01*
X026900Y024494D01*
X026968Y024505D01*
X027037Y024527D01*
X027101Y024560D01*
X027160Y024603D01*
X027211Y024654D01*
X027253Y024713D01*
X027286Y024777D01*
X027309Y024846D01*
X027320Y024917D01*
X027320Y025214D01*
X027320Y025194D02*
X027380Y025194D01*
X027380Y025075D02*
X027320Y025075D01*
X027320Y024957D02*
X027380Y024957D01*
X027388Y024838D02*
X027306Y024838D01*
X027257Y024720D02*
X027437Y024720D01*
X027534Y024601D02*
X027157Y024601D01*
X026900Y024601D02*
X026820Y024601D01*
X026820Y024720D02*
X026900Y024720D01*
X026900Y024838D02*
X026820Y024838D01*
X026820Y024957D02*
X026900Y024957D01*
X026900Y025075D02*
X026820Y025075D01*
X026820Y025194D02*
X026900Y025194D01*
X026900Y025312D02*
X026820Y025312D01*
X026820Y025431D02*
X026900Y025431D01*
X026900Y025549D02*
X026820Y025549D01*
X026820Y025668D02*
X026900Y025668D01*
X026900Y025786D02*
X026820Y025786D01*
X026820Y025905D02*
X026900Y025905D01*
X026920Y026023D02*
X026800Y026023D01*
X026800Y026142D02*
X026920Y026142D01*
X026920Y026260D02*
X027528Y026260D01*
X027410Y026379D02*
X027335Y026379D01*
X027705Y026734D02*
X027724Y026734D01*
X027724Y026853D02*
X027690Y026853D01*
X027690Y026971D02*
X027724Y026971D01*
X027736Y027090D02*
X027649Y027090D01*
X027736Y027208D02*
X027531Y027208D01*
X027355Y027327D02*
X027736Y027327D01*
X027550Y027445D02*
X027288Y027445D01*
X027530Y027564D02*
X026120Y027564D01*
X026120Y027682D02*
X027530Y027682D01*
X027530Y027801D02*
X026120Y027801D01*
X026120Y027919D02*
X027530Y027919D01*
X027530Y028038D02*
X026120Y028038D01*
X026120Y028156D02*
X026495Y028156D01*
X026403Y028275D02*
X026120Y028275D01*
X026120Y028393D02*
X026362Y028393D01*
X026362Y028512D02*
X026120Y028512D01*
X026120Y028630D02*
X026330Y028630D01*
X026330Y028749D02*
X026120Y028749D01*
X026120Y028867D02*
X026330Y028867D01*
X026330Y028986D02*
X026120Y028986D01*
X026120Y029104D02*
X026330Y029104D01*
X026330Y029223D02*
X026120Y029223D01*
X026120Y029341D02*
X026330Y029341D01*
X026330Y029460D02*
X026120Y029460D01*
X026120Y029578D02*
X026330Y029578D01*
X026378Y029697D02*
X026120Y029697D01*
X026120Y029815D02*
X026273Y029815D01*
X026155Y029934D02*
X026120Y029934D01*
X027323Y029934D02*
X027417Y029934D01*
X027426Y029815D02*
X027323Y029815D01*
X027323Y029697D02*
X027417Y029697D01*
X027417Y029578D02*
X027323Y029578D01*
X027323Y029460D02*
X027417Y029460D01*
X027417Y029341D02*
X027323Y029341D01*
X027360Y029223D02*
X027360Y029223D01*
X027360Y029104D02*
X027360Y029104D01*
X027360Y029024D02*
X027360Y029024D01*
X027360Y028986D02*
X027360Y028986D01*
X027360Y028867D02*
X027360Y028867D01*
X027221Y028749D02*
X027499Y028749D01*
X027851Y028749D02*
X028930Y028749D01*
X028930Y028630D02*
X027118Y028630D01*
X027158Y028512D02*
X028930Y028512D01*
X028930Y028393D02*
X027158Y028393D01*
X027117Y028275D02*
X027562Y028275D01*
X027530Y028156D02*
X027025Y028156D01*
X026432Y027445D02*
X026120Y027445D01*
X026120Y027327D02*
X026365Y027327D01*
X026365Y027208D02*
X026120Y027208D01*
X026120Y027090D02*
X026365Y027090D01*
X026365Y026971D02*
X026120Y026971D01*
X026120Y026853D02*
X026365Y026853D01*
X026365Y026734D02*
X026120Y026734D01*
X026120Y026616D02*
X026418Y026616D01*
X026385Y026497D02*
X026120Y026497D01*
X026120Y026379D02*
X026385Y026379D01*
X026385Y026142D02*
X026120Y026142D01*
X026120Y026260D02*
X026800Y026260D01*
X026385Y026023D02*
X026120Y026023D01*
X026188Y025905D02*
X026418Y025905D01*
X026462Y025786D02*
X026283Y025786D01*
X026332Y025668D02*
X026413Y025668D01*
X026400Y025549D02*
X026340Y025549D01*
X026340Y025431D02*
X026400Y025431D01*
X026400Y025312D02*
X026340Y025312D01*
X026340Y025194D02*
X026400Y025194D01*
X026400Y025075D02*
X026340Y025075D01*
X026340Y024957D02*
X026400Y024957D01*
X026414Y024838D02*
X026332Y024838D01*
X026283Y024720D02*
X026463Y024720D01*
X026563Y024601D02*
X026186Y024601D01*
X026462Y023179D02*
X026858Y023179D01*
X026739Y023061D02*
X026581Y023061D01*
X026589Y022468D02*
X026731Y022468D01*
X026849Y022350D02*
X026471Y022350D01*
X027471Y022350D02*
X027849Y022350D01*
X027731Y022468D02*
X027589Y022468D01*
X027581Y023061D02*
X027739Y023061D01*
X027858Y023179D02*
X027462Y023179D01*
X025858Y023179D02*
X025462Y023179D01*
X025581Y023061D02*
X025739Y023061D01*
X025731Y022468D02*
X025589Y022468D01*
X025471Y022350D02*
X025849Y022350D01*
X024849Y022350D02*
X024471Y022350D01*
X024589Y022468D02*
X024731Y022468D01*
X024739Y023061D02*
X024581Y023061D01*
X024462Y023179D02*
X024858Y023179D01*
X023858Y023179D02*
X023462Y023179D01*
X023581Y023061D02*
X023739Y023061D01*
X023731Y022468D02*
X023589Y022468D01*
X023471Y022350D02*
X023849Y022350D01*
X023160Y022760D02*
X023160Y021455D01*
X023080Y021375D01*
X021877Y022350D02*
X021471Y022350D01*
X021589Y022468D02*
X021759Y022468D01*
X021670Y022587D02*
X021670Y022587D01*
X021670Y022705D02*
X021670Y022705D01*
X021670Y022824D02*
X021670Y022824D01*
X021670Y022942D02*
X021670Y022942D01*
X021581Y023061D02*
X021768Y023061D01*
X021886Y023179D02*
X021462Y023179D01*
X020858Y023179D02*
X020462Y023179D01*
X020581Y023061D02*
X020739Y023061D01*
X020731Y022468D02*
X020589Y022468D01*
X020471Y022350D02*
X020849Y022350D01*
X019849Y022350D02*
X019471Y022350D01*
X019589Y022468D02*
X019731Y022468D01*
X019739Y023061D02*
X019581Y023061D01*
X019462Y023179D02*
X019858Y023179D01*
X019072Y023653D02*
X022648Y023653D01*
X022600Y023772D02*
X019120Y023772D01*
X019120Y023890D02*
X022600Y023890D01*
X022600Y024009D02*
X019120Y024009D01*
X019120Y024127D02*
X022600Y024127D01*
X022600Y024246D02*
X019120Y024246D01*
X019120Y024364D02*
X022600Y024364D01*
X022600Y024483D02*
X022533Y024483D01*
X022107Y024483D02*
X021533Y024483D01*
X021686Y024601D02*
X021954Y024601D01*
X021881Y024720D02*
X021759Y024720D01*
X021800Y024838D02*
X021840Y024838D01*
X021840Y024957D02*
X021800Y024957D01*
X021800Y025075D02*
X021840Y025075D01*
X021840Y025194D02*
X021800Y025194D01*
X021800Y025312D02*
X021840Y025312D01*
X021430Y026023D02*
X020651Y026023D01*
X020735Y026142D02*
X021072Y026142D01*
X021032Y025905D02*
X020565Y025905D01*
X020561Y025907D02*
X020497Y025940D01*
X020428Y025962D01*
X020360Y025973D01*
X020360Y025254D01*
X020280Y025254D01*
X020280Y025973D01*
X020212Y025962D01*
X020143Y025940D01*
X020079Y025907D01*
X020020Y025865D01*
X019969Y025813D01*
X019927Y025755D01*
X019894Y025690D01*
X019871Y025621D01*
X019860Y025550D01*
X019860Y025254D01*
X020280Y025254D01*
X020280Y025174D01*
X019860Y025174D01*
X019860Y024877D01*
X019871Y024806D01*
X019894Y024737D01*
X019927Y024673D01*
X019969Y024614D01*
X020020Y024563D01*
X020079Y024520D01*
X020143Y024487D01*
X020212Y024465D01*
X020280Y024454D01*
X020280Y025174D01*
X020360Y025174D01*
X020360Y025254D01*
X020780Y025254D01*
X020780Y025550D01*
X020769Y025621D01*
X020746Y025690D01*
X020713Y025755D01*
X020671Y025813D01*
X020620Y025865D01*
X020561Y025907D01*
X020691Y025786D02*
X020914Y025786D01*
X020864Y025668D02*
X020754Y025668D01*
X020780Y025549D02*
X020840Y025549D01*
X020840Y025431D02*
X020780Y025431D01*
X020780Y025312D02*
X020840Y025312D01*
X020840Y025194D02*
X020360Y025194D01*
X020360Y025174D02*
X020780Y025174D01*
X020780Y024877D01*
X020769Y024806D01*
X020746Y024737D01*
X020713Y024673D01*
X020671Y024614D01*
X020620Y024563D01*
X020561Y024520D01*
X020497Y024487D01*
X020428Y024465D01*
X020360Y024454D01*
X020360Y025174D01*
X020280Y025194D02*
X019800Y025194D01*
X019800Y025312D02*
X019860Y025312D01*
X019860Y025431D02*
X019800Y025431D01*
X019800Y025549D02*
X019860Y025549D01*
X019886Y025668D02*
X019776Y025668D01*
X019726Y025786D02*
X019949Y025786D01*
X020075Y025905D02*
X019608Y025905D01*
X019580Y026023D02*
X019869Y026023D01*
X019883Y026015D02*
X019924Y026004D01*
X020200Y026004D01*
X020200Y026360D01*
X019785Y026360D01*
X019785Y026143D01*
X019796Y026102D01*
X019817Y026066D01*
X019847Y026036D01*
X019883Y026015D01*
X019785Y026142D02*
X019580Y026142D01*
X019580Y026260D02*
X019785Y026260D01*
X019580Y026379D02*
X020200Y026379D01*
X020200Y026260D02*
X020320Y026260D01*
X020320Y026142D02*
X020200Y026142D01*
X020200Y026023D02*
X020320Y026023D01*
X020280Y025905D02*
X020360Y025905D01*
X020360Y025786D02*
X020280Y025786D01*
X020280Y025668D02*
X020360Y025668D01*
X020360Y025549D02*
X020280Y025549D01*
X020280Y025431D02*
X020360Y025431D01*
X020360Y025312D02*
X020280Y025312D01*
X020280Y025075D02*
X020360Y025075D01*
X020360Y024957D02*
X020280Y024957D01*
X020280Y024838D02*
X020360Y024838D01*
X020360Y024720D02*
X020280Y024720D01*
X020280Y024601D02*
X020360Y024601D01*
X020360Y024483D02*
X020280Y024483D01*
X020158Y024483D02*
X019533Y024483D01*
X019686Y024601D02*
X019982Y024601D01*
X019903Y024720D02*
X019759Y024720D01*
X019800Y024838D02*
X019866Y024838D01*
X019860Y024957D02*
X019800Y024957D01*
X019800Y025075D02*
X019860Y025075D01*
X020780Y025075D02*
X020840Y025075D01*
X020840Y024957D02*
X020780Y024957D01*
X020774Y024838D02*
X020840Y024838D01*
X020881Y024720D02*
X020737Y024720D01*
X020658Y024601D02*
X020954Y024601D01*
X021107Y024483D02*
X020482Y024483D01*
X018985Y023535D02*
X022735Y023535D01*
X022739Y023061D02*
X022552Y023061D01*
X022650Y022942D02*
X022650Y022942D01*
X022650Y022824D02*
X022650Y022824D01*
X022650Y022705D02*
X022650Y022705D01*
X022650Y022587D02*
X022650Y022587D01*
X022731Y022468D02*
X022561Y022468D01*
X022605Y020454D02*
X015364Y020454D01*
X015364Y020335D02*
X022645Y020335D01*
X026266Y019506D02*
X012120Y019506D01*
X012120Y019624D02*
X026385Y019624D01*
X026503Y019743D02*
X012120Y019743D01*
X012120Y019861D02*
X026622Y019861D01*
X026740Y019980D02*
X012120Y019980D01*
X012120Y020098D02*
X026859Y020098D01*
X026977Y020217D02*
X015271Y020217D01*
X014507Y020217D02*
X012120Y020217D01*
X012120Y020335D02*
X013063Y020335D01*
X013067Y020323D02*
X013088Y020286D01*
X013118Y020257D01*
X013154Y020236D01*
X013195Y020225D01*
X013451Y020225D01*
X013451Y020620D01*
X013056Y020620D01*
X013056Y020364D01*
X013067Y020323D01*
X013056Y020454D02*
X012120Y020454D01*
X012120Y020572D02*
X013056Y020572D01*
X013056Y020740D02*
X013451Y020740D01*
X013451Y020620D01*
X013571Y020620D01*
X013571Y020225D01*
X013827Y020225D01*
X013868Y020236D01*
X013905Y020257D01*
X013934Y020286D01*
X013955Y020323D01*
X013966Y020364D01*
X013966Y020620D01*
X013571Y020620D01*
X013571Y020740D01*
X013451Y020740D01*
X013451Y021135D01*
X013195Y021135D01*
X013154Y021124D01*
X013118Y021103D01*
X013088Y021074D01*
X013067Y021037D01*
X013056Y020996D01*
X013056Y020740D01*
X013056Y020809D02*
X012120Y020809D01*
X012120Y020691D02*
X013451Y020691D01*
X013511Y020680D02*
X013511Y019811D01*
X013460Y019760D01*
X013451Y020335D02*
X013571Y020335D01*
X013571Y020454D02*
X013451Y020454D01*
X013451Y020572D02*
X013571Y020572D01*
X013571Y020691D02*
X014414Y020691D01*
X014414Y020809D02*
X013966Y020809D01*
X013966Y020740D02*
X013966Y020996D01*
X013955Y021037D01*
X013934Y021074D01*
X013905Y021103D01*
X013868Y021124D01*
X013827Y021135D01*
X013571Y021135D01*
X013571Y020740D01*
X013966Y020740D01*
X013966Y020572D02*
X014414Y020572D01*
X014414Y020454D02*
X013966Y020454D01*
X013959Y020335D02*
X014414Y020335D01*
X014414Y020928D02*
X013966Y020928D01*
X013950Y021046D02*
X014414Y021046D01*
X013571Y021046D02*
X013451Y021046D01*
X013451Y020928D02*
X013571Y020928D01*
X013571Y020809D02*
X013451Y020809D01*
X013056Y020928D02*
X012120Y020928D01*
X012120Y021046D02*
X013072Y021046D01*
X012120Y022350D02*
X018849Y022350D01*
X018731Y022468D02*
X012120Y022468D01*
X012120Y022587D02*
X018650Y022587D01*
X018650Y022705D02*
X012120Y022705D01*
X012120Y022824D02*
X012128Y022824D01*
X012392Y022824D02*
X018650Y022824D01*
X018650Y022942D02*
X012584Y022942D01*
X012668Y023061D02*
X018739Y023061D01*
X016230Y023416D02*
X012686Y023416D01*
X012627Y023535D02*
X016035Y023535D01*
X015948Y023653D02*
X012497Y023653D01*
X012420Y023772D02*
X015900Y023772D01*
X015900Y023890D02*
X012420Y023890D01*
X012420Y024009D02*
X015900Y024009D01*
X015900Y024127D02*
X012420Y024127D01*
X012420Y024246D02*
X015900Y024246D01*
X015900Y024364D02*
X012420Y024364D01*
X012420Y024483D02*
X012543Y024483D01*
X012777Y024483D02*
X014543Y024483D01*
X014777Y024483D02*
X015543Y024483D01*
X015777Y024483D02*
X015900Y024483D01*
X015334Y024601D02*
X014986Y024601D01*
X015083Y024720D02*
X015237Y024720D01*
X015188Y024838D02*
X015132Y024838D01*
X015140Y024957D02*
X015180Y024957D01*
X015180Y025075D02*
X015140Y025075D01*
X015140Y025194D02*
X015180Y025194D01*
X015180Y025312D02*
X015140Y025312D01*
X015140Y025431D02*
X015158Y025431D01*
X014539Y026023D02*
X014150Y026023D01*
X014155Y026142D02*
X014252Y026142D01*
X014332Y025905D02*
X014018Y025905D01*
X014058Y025786D02*
X014237Y025786D01*
X014188Y025668D02*
X014107Y025668D01*
X014120Y025549D02*
X014180Y025549D01*
X014180Y025431D02*
X014120Y025431D01*
X014120Y025312D02*
X014180Y025312D01*
X014120Y025214D02*
X013700Y025214D01*
X013700Y024494D01*
X013768Y024505D01*
X013837Y024527D01*
X013901Y024560D01*
X013960Y024603D01*
X014011Y024654D01*
X014053Y024713D01*
X014086Y024777D01*
X014109Y024846D01*
X014120Y024917D01*
X014120Y025214D01*
X014120Y025194D02*
X014180Y025194D01*
X014180Y025075D02*
X014120Y025075D01*
X014120Y024957D02*
X014180Y024957D01*
X014188Y024838D02*
X014106Y024838D01*
X014057Y024720D02*
X014237Y024720D01*
X014334Y024601D02*
X013957Y024601D01*
X013700Y024601D02*
X013620Y024601D01*
X013620Y024720D02*
X013700Y024720D01*
X013700Y024838D02*
X013620Y024838D01*
X013620Y024957D02*
X013700Y024957D01*
X013700Y025075D02*
X013620Y025075D01*
X013620Y025194D02*
X013700Y025194D01*
X013700Y025312D02*
X013620Y025312D01*
X013620Y025431D02*
X013700Y025431D01*
X013700Y025549D02*
X013620Y025549D01*
X013620Y025668D02*
X013700Y025668D01*
X013700Y025786D02*
X013620Y025786D01*
X013620Y025904D02*
X013620Y025904D01*
X013620Y025905D02*
X013700Y025905D01*
X013740Y026023D02*
X013620Y026023D01*
X013620Y026142D02*
X013740Y026142D01*
X013620Y026260D02*
X012920Y026260D01*
X012920Y026142D02*
X013205Y026142D01*
X013210Y026023D02*
X012920Y026023D01*
X012988Y025905D02*
X013342Y025905D01*
X013262Y025786D02*
X013083Y025786D01*
X013132Y025668D02*
X013213Y025668D01*
X013200Y025549D02*
X013140Y025549D01*
X013140Y025431D02*
X013200Y025431D01*
X013200Y025312D02*
X013140Y025312D01*
X013140Y025194D02*
X013200Y025194D01*
X013200Y025075D02*
X013140Y025075D01*
X013140Y024957D02*
X013200Y024957D01*
X013214Y024838D02*
X013132Y024838D01*
X013083Y024720D02*
X013263Y024720D01*
X013363Y024601D02*
X012986Y024601D01*
X014522Y026095D02*
X014522Y026226D01*
X014522Y026095D01*
X014522Y026142D02*
X014522Y026142D01*
X014522Y026226D02*
X014522Y026226D01*
X013620Y026379D02*
X012920Y026379D01*
X012920Y026497D02*
X013205Y026497D01*
X013210Y026616D02*
X012920Y026616D01*
X012920Y026734D02*
X013228Y026734D01*
X013185Y026853D02*
X012920Y026853D01*
X012920Y026971D02*
X013185Y026971D01*
X013185Y027090D02*
X012920Y027090D01*
X012920Y027208D02*
X013185Y027208D01*
X013185Y027327D02*
X012920Y027327D01*
X012920Y027445D02*
X013192Y027445D01*
X012920Y027564D02*
X014050Y027564D01*
X014050Y027682D02*
X012920Y027682D01*
X012920Y027801D02*
X014050Y027801D01*
X014066Y027919D02*
X012920Y027919D01*
X012920Y028038D02*
X015570Y028038D01*
X015570Y028156D02*
X012920Y028156D01*
X012920Y028275D02*
X015570Y028275D01*
X015570Y028393D02*
X013602Y028393D01*
X013707Y028512D02*
X015570Y028512D01*
X015570Y028630D02*
X013756Y028630D01*
X013758Y028749D02*
X014585Y028749D01*
X014060Y028867D02*
X014060Y028867D01*
X014060Y028986D02*
X014060Y028986D01*
X014060Y029084D02*
X014060Y029084D01*
X014060Y029104D02*
X014060Y029104D01*
X014060Y029223D02*
X014060Y029223D01*
X014060Y029341D02*
X014060Y029341D01*
X014023Y029460D02*
X014117Y029460D01*
X014121Y029578D02*
X014023Y029578D01*
X014023Y029697D02*
X014117Y029697D01*
X014117Y029815D02*
X014023Y029815D01*
X014023Y029934D02*
X014117Y029934D01*
X014117Y030052D02*
X014023Y030052D01*
X014060Y030171D02*
X014060Y030171D01*
X014060Y030289D02*
X014060Y030289D01*
X014060Y030344D02*
X014060Y030344D01*
X014060Y030408D02*
X014060Y030408D01*
X014060Y030526D02*
X014060Y030526D01*
X014023Y030645D02*
X014155Y030645D01*
X014394Y031174D02*
X014394Y031754D01*
X014514Y031754D01*
X014514Y031589D01*
X014514Y031174D01*
X014394Y031174D01*
X014394Y031237D02*
X014514Y031237D01*
X014514Y031356D02*
X014394Y031356D01*
X014394Y031474D02*
X014514Y031474D01*
X014514Y031593D02*
X014394Y031593D01*
X014394Y031711D02*
X014514Y031711D01*
X014375Y029934D02*
X014375Y029934D01*
X014375Y029815D02*
X014375Y029815D01*
X014375Y029697D02*
X014375Y029697D01*
X014375Y029578D02*
X014375Y029578D01*
X014375Y029460D02*
X014375Y029460D01*
X015535Y029341D02*
X015567Y029341D01*
X015570Y029223D02*
X015535Y029223D01*
X015535Y029104D02*
X015570Y029104D01*
X015570Y028986D02*
X015535Y028986D01*
X015535Y028867D02*
X015570Y028867D01*
X015570Y028749D02*
X015535Y028749D01*
X015334Y027919D02*
X015214Y027919D01*
X015214Y027801D02*
X015334Y027801D01*
X015334Y027682D02*
X015214Y027682D01*
X015214Y027454D02*
X015334Y027454D01*
X015334Y027132D01*
X015238Y027132D01*
X015214Y027132D01*
X015214Y027454D01*
X015214Y027445D02*
X015334Y027445D01*
X015334Y027327D02*
X015214Y027327D01*
X015214Y027208D02*
X015334Y027208D01*
X015238Y027132D02*
X015238Y026994D01*
X015238Y027132D01*
X015238Y027090D02*
X015238Y027090D01*
X015238Y026994D02*
X015238Y026994D01*
X013118Y028393D02*
X012920Y028393D01*
X012920Y028512D02*
X013013Y028512D01*
X012964Y028630D02*
X012920Y028630D01*
X012920Y028749D02*
X012962Y028749D01*
X012993Y028867D02*
X012920Y028867D01*
X012920Y028986D02*
X013069Y028986D01*
X013130Y029104D02*
X012920Y029104D01*
X012920Y029223D02*
X013130Y029223D01*
X013130Y029341D02*
X012920Y029341D01*
X012920Y029460D02*
X013130Y029460D01*
X013130Y029578D02*
X012920Y029578D01*
X012920Y029697D02*
X013130Y029697D01*
X013133Y029815D02*
X012920Y029815D01*
X012920Y029934D02*
X013015Y029934D01*
X019580Y029934D02*
X019841Y029934D01*
X019722Y030052D02*
X019580Y030052D01*
X019624Y030150D02*
X019624Y030150D01*
X019604Y030171D02*
X019580Y030171D01*
X019760Y030354D02*
X019760Y030654D01*
X019760Y030354D02*
X020125Y029989D01*
X020505Y029989D01*
X020783Y029934D02*
X020877Y029934D01*
X020882Y029815D02*
X020783Y029815D01*
X020783Y029697D02*
X020877Y029697D01*
X020877Y029578D02*
X020783Y029578D01*
X020783Y029460D02*
X020877Y029460D01*
X020877Y029341D02*
X020783Y029341D01*
X020820Y029223D02*
X020820Y029223D01*
X020820Y029104D02*
X020820Y029104D01*
X020820Y029044D02*
X020820Y029044D01*
X020820Y028986D02*
X020820Y028986D01*
X020820Y028867D02*
X020820Y028867D01*
X020610Y028749D02*
X021525Y028749D01*
X021485Y029341D02*
X021393Y029341D01*
X021393Y029460D02*
X021485Y029460D01*
X021485Y029578D02*
X021393Y029578D01*
X021393Y029697D02*
X021485Y029697D01*
X021485Y029815D02*
X021388Y029815D01*
X021393Y029934D02*
X021485Y029934D01*
X021485Y030052D02*
X021393Y030052D01*
X021135Y029934D02*
X021135Y029934D01*
X021135Y029815D02*
X021135Y029815D01*
X021135Y029697D02*
X021135Y029697D01*
X021135Y029578D02*
X021135Y029578D01*
X021135Y029460D02*
X021135Y029460D01*
X020505Y029674D02*
X020180Y029674D01*
X020060Y029554D01*
X020060Y028754D01*
X020260Y028554D01*
X020624Y028393D02*
X022330Y028393D01*
X022330Y028512D02*
X020658Y028512D01*
X020658Y028630D02*
X022330Y028630D01*
X022234Y028275D02*
X022114Y028275D01*
X022114Y028156D02*
X022234Y028156D01*
X022234Y028038D02*
X022114Y028038D01*
X022114Y027919D02*
X022234Y027919D01*
X022234Y027754D02*
X022234Y027339D01*
X022330Y027339D01*
X022330Y027084D01*
X022314Y027100D01*
X022278Y027121D01*
X022237Y027132D01*
X022058Y027132D01*
X021880Y027132D01*
X021839Y027121D01*
X021803Y027100D01*
X021773Y027070D01*
X021752Y027034D01*
X021742Y026997D01*
X021738Y027001D01*
X021679Y027001D01*
X021679Y027047D01*
X021616Y027109D01*
X021616Y027319D01*
X021717Y027319D01*
X021794Y027396D01*
X021820Y027371D01*
X021856Y027350D01*
X021897Y027339D01*
X022114Y027339D01*
X022114Y027754D01*
X022234Y027754D01*
X022234Y027682D02*
X022114Y027682D01*
X022114Y027564D02*
X022234Y027564D01*
X022234Y027445D02*
X022114Y027445D01*
X022330Y027327D02*
X021725Y027327D01*
X021616Y027208D02*
X022330Y027208D01*
X022324Y027090D02*
X022330Y027090D01*
X022058Y027090D02*
X022058Y027090D01*
X022058Y027132D02*
X022058Y026994D01*
X022058Y027132D01*
X022058Y026994D02*
X022058Y026994D01*
X021792Y027090D02*
X021636Y027090D01*
X021156Y027208D02*
X021031Y027208D01*
X021048Y027327D02*
X020912Y027327D01*
X020950Y027445D02*
X020755Y027445D01*
X020729Y027564D02*
X020950Y027564D01*
X020950Y027682D02*
X019580Y027682D01*
X019580Y027564D02*
X019791Y027564D01*
X019765Y027445D02*
X019580Y027445D01*
X019580Y027327D02*
X019765Y027327D01*
X019765Y027208D02*
X019580Y027208D01*
X019580Y027090D02*
X019765Y027090D01*
X019765Y026971D02*
X019580Y026971D01*
X019580Y026853D02*
X019789Y026853D01*
X019795Y026734D02*
X019580Y026734D01*
X019580Y026616D02*
X019785Y026616D01*
X019785Y026497D02*
X019580Y026497D01*
X020735Y026260D02*
X020828Y026260D01*
X021342Y026226D02*
X021342Y026095D01*
X021342Y026226D01*
X021342Y026226D01*
X021342Y026142D02*
X021342Y026142D01*
X020950Y027801D02*
X019580Y027801D01*
X019580Y027919D02*
X020950Y027919D01*
X020950Y028038D02*
X019580Y028038D01*
X019580Y028156D02*
X020180Y028156D01*
X020340Y028156D02*
X020950Y028156D01*
X021022Y028275D02*
X020544Y028275D01*
X019976Y028275D02*
X019580Y028275D01*
X019580Y028393D02*
X019896Y028393D01*
X019862Y028512D02*
X019580Y028512D01*
X019580Y028630D02*
X019851Y028630D01*
X019820Y028749D02*
X019580Y028749D01*
X019580Y028867D02*
X019820Y028867D01*
X019820Y028986D02*
X019580Y028986D01*
X019580Y029104D02*
X019820Y029104D01*
X019820Y029223D02*
X019580Y029223D01*
X019580Y029341D02*
X019820Y029341D01*
X019820Y029460D02*
X019580Y029460D01*
X019580Y029578D02*
X019820Y029578D01*
X019863Y029697D02*
X019580Y029697D01*
X019580Y029815D02*
X019959Y029815D01*
X020820Y030052D02*
X020820Y030052D01*
X020820Y030171D02*
X020820Y030171D01*
X020820Y030289D02*
X020820Y030289D01*
X020820Y030304D02*
X020820Y030304D01*
X020820Y030408D02*
X020820Y030408D01*
X020820Y030526D02*
X020820Y030526D01*
X021433Y030579D02*
X021471Y030590D01*
X021508Y030611D01*
X021538Y030640D01*
X021559Y030677D01*
X021570Y030718D01*
X021570Y030994D01*
X021214Y030994D01*
X021214Y031114D01*
X021094Y031114D01*
X021094Y031529D01*
X021094Y031794D01*
X021214Y031794D01*
X021214Y031914D01*
X021570Y031914D01*
X021570Y032076D01*
X021700Y031946D01*
X021700Y030579D01*
X021433Y030579D01*
X021540Y030645D02*
X021700Y030645D01*
X021700Y030763D02*
X021570Y030763D01*
X021570Y030882D02*
X021700Y030882D01*
X021700Y031000D02*
X021214Y031000D01*
X021214Y031114D02*
X021570Y031114D01*
X021570Y031390D01*
X021559Y031430D01*
X021545Y031454D01*
X021559Y031477D01*
X021570Y031518D01*
X021570Y031794D01*
X021214Y031794D01*
X021214Y031114D01*
X021214Y031119D02*
X021094Y031119D01*
X021094Y031237D02*
X021214Y031237D01*
X021214Y031356D02*
X021094Y031356D01*
X021094Y031474D02*
X021214Y031474D01*
X021214Y031593D02*
X021094Y031593D01*
X021094Y031711D02*
X021214Y031711D01*
X021214Y031830D02*
X021700Y031830D01*
X021698Y031948D02*
X021570Y031948D01*
X021570Y032067D02*
X021579Y032067D01*
X021570Y031711D02*
X021700Y031711D01*
X021700Y031593D02*
X021570Y031593D01*
X021557Y031474D02*
X021700Y031474D01*
X021700Y031356D02*
X021570Y031356D01*
X021570Y031237D02*
X021700Y031237D01*
X021700Y031119D02*
X021570Y031119D01*
X021751Y028275D02*
X021850Y028275D01*
X027360Y030052D02*
X027360Y030052D01*
X027360Y030171D02*
X027360Y030171D01*
X027360Y030284D02*
X027360Y030284D01*
X027360Y030289D02*
X027360Y030289D01*
X027360Y030408D02*
X027360Y030408D01*
X027675Y029934D02*
X027675Y029934D01*
X027675Y029815D02*
X027675Y029815D01*
X027675Y029697D02*
X027675Y029697D01*
X027675Y029578D02*
X027675Y029578D01*
X027675Y029460D02*
X027675Y029460D01*
X027675Y029341D02*
X027675Y029341D01*
X027933Y029341D02*
X028085Y029341D01*
X028085Y029460D02*
X027933Y029460D01*
X027933Y029578D02*
X028085Y029578D01*
X028085Y029697D02*
X027933Y029697D01*
X027924Y029815D02*
X028085Y029815D01*
X028085Y029934D02*
X027933Y029934D01*
X028170Y030631D02*
X028200Y030661D01*
X028200Y032046D01*
X028170Y032076D01*
X028170Y031814D01*
X027814Y031814D01*
X027814Y031694D01*
X028170Y031694D01*
X028170Y031418D01*
X028159Y031377D01*
X028145Y031354D01*
X028159Y031330D01*
X028170Y031290D01*
X028170Y031014D01*
X027814Y031014D01*
X027814Y030894D01*
X028170Y030894D01*
X028170Y030631D01*
X028170Y030645D02*
X028183Y030645D01*
X028170Y030763D02*
X028200Y030763D01*
X028200Y030882D02*
X028170Y030882D01*
X028200Y031000D02*
X027814Y031000D01*
X027814Y031014D02*
X027694Y031014D01*
X027694Y031429D01*
X027694Y031694D01*
X027814Y031694D01*
X027814Y031014D01*
X027814Y031119D02*
X027694Y031119D01*
X027694Y031237D02*
X027814Y031237D01*
X027814Y031356D02*
X027694Y031356D01*
X027694Y031474D02*
X027814Y031474D01*
X027814Y031593D02*
X027694Y031593D01*
X027814Y031711D02*
X028200Y031711D01*
X028200Y031593D02*
X028170Y031593D01*
X028170Y031474D02*
X028200Y031474D01*
X028200Y031356D02*
X028146Y031356D01*
X028170Y031237D02*
X028200Y031237D01*
X028200Y031119D02*
X028170Y031119D01*
X028170Y031830D02*
X028200Y031830D01*
X028200Y031948D02*
X028170Y031948D01*
X028170Y032067D02*
X028179Y032067D01*
X032520Y030052D02*
X032536Y030052D01*
X032520Y029934D02*
X032655Y029934D01*
X032773Y029815D02*
X032520Y029815D01*
X032520Y029697D02*
X032878Y029697D01*
X032830Y029578D02*
X032520Y029578D01*
X032520Y029460D02*
X032830Y029460D01*
X032830Y029341D02*
X032520Y029341D01*
X032520Y029223D02*
X032830Y029223D01*
X032830Y029104D02*
X032520Y029104D01*
X032520Y028986D02*
X032830Y028986D01*
X032830Y028867D02*
X032520Y028867D01*
X032520Y028749D02*
X032810Y028749D01*
X032762Y028630D02*
X032520Y028630D01*
X032520Y028512D02*
X032762Y028512D01*
X032796Y028393D02*
X032520Y028393D01*
X032520Y028275D02*
X032876Y028275D01*
X033080Y028156D02*
X032520Y028156D01*
X032520Y028038D02*
X034125Y028038D01*
X034030Y027919D02*
X032520Y027919D01*
X032520Y027801D02*
X034030Y027801D01*
X034030Y027682D02*
X032520Y027682D01*
X032520Y027564D02*
X034030Y027564D01*
X034696Y027059D02*
X034797Y027059D01*
X034874Y027136D01*
X034900Y027111D01*
X034936Y027090D01*
X034977Y027079D01*
X035194Y027079D01*
X035194Y027494D01*
X035314Y027494D01*
X035314Y027079D01*
X035430Y027079D01*
X035430Y026954D01*
X035425Y026974D01*
X035404Y027010D01*
X035374Y027040D01*
X035338Y027061D01*
X035297Y027072D01*
X035118Y027072D01*
X034940Y027072D01*
X034899Y027061D01*
X034863Y027040D01*
X034833Y027010D01*
X034812Y026974D01*
X034802Y026937D01*
X034798Y026941D01*
X034739Y026941D01*
X034739Y026987D01*
X034696Y027029D01*
X034696Y027059D01*
X034739Y026971D02*
X034811Y026971D01*
X034828Y027090D02*
X034936Y027090D01*
X035118Y027072D02*
X035118Y026934D01*
X035118Y026934D01*
X035118Y027072D01*
X035194Y027090D02*
X035314Y027090D01*
X035314Y027208D02*
X035194Y027208D01*
X035194Y027327D02*
X035314Y027327D01*
X035314Y027445D02*
X035194Y027445D01*
X035194Y027682D02*
X035314Y027682D01*
X035314Y027801D02*
X035194Y027801D01*
X035194Y027919D02*
X035314Y027919D01*
X035430Y028038D02*
X034808Y028038D01*
X034603Y028630D02*
X033558Y028630D01*
X033558Y028512D02*
X035430Y028512D01*
X035430Y028630D02*
X035357Y028630D01*
X035430Y028393D02*
X033524Y028393D01*
X033444Y028275D02*
X035430Y028275D01*
X035430Y028156D02*
X033240Y028156D01*
X033721Y028749D02*
X033999Y028749D01*
X033860Y028867D02*
X033860Y028867D01*
X033860Y028986D02*
X033860Y028986D01*
X033860Y029024D02*
X033860Y029024D01*
X033860Y029104D02*
X033860Y029104D01*
X033860Y029223D02*
X033860Y029223D01*
X033823Y029341D02*
X033917Y029341D01*
X033917Y029460D02*
X033823Y029460D01*
X033823Y029578D02*
X033917Y029578D01*
X033917Y029697D02*
X033823Y029697D01*
X033823Y029815D02*
X033926Y029815D01*
X033917Y029934D02*
X033823Y029934D01*
X033860Y030052D02*
X033860Y030052D01*
X033860Y030171D02*
X033860Y030171D01*
X033860Y030284D02*
X033860Y030284D01*
X034175Y029934D02*
X034175Y029934D01*
X034175Y029815D02*
X034175Y029815D01*
X034175Y029697D02*
X034175Y029697D01*
X034175Y029578D02*
X034175Y029578D01*
X034175Y029460D02*
X034175Y029460D01*
X034175Y029341D02*
X034175Y029341D01*
X034433Y029341D02*
X034505Y029341D01*
X034505Y029460D02*
X034433Y029460D01*
X034433Y029578D02*
X034505Y029578D01*
X034505Y029697D02*
X034433Y029697D01*
X034424Y029815D02*
X034505Y029815D01*
X034505Y029934D02*
X034433Y029934D01*
X034649Y030559D02*
X034659Y030577D01*
X034670Y030618D01*
X034670Y030894D01*
X034314Y030894D01*
X034314Y031014D01*
X034194Y031014D01*
X034194Y031694D01*
X034314Y031694D01*
X034314Y031814D01*
X034670Y031814D01*
X034670Y032076D01*
X034700Y032046D01*
X034700Y030561D01*
X034698Y030559D01*
X034649Y030559D01*
X034670Y030645D02*
X034700Y030645D01*
X034700Y030763D02*
X034670Y030763D01*
X034670Y030882D02*
X034700Y030882D01*
X034700Y031000D02*
X034314Y031000D01*
X034314Y031014D02*
X034670Y031014D01*
X034670Y031290D01*
X034659Y031330D01*
X034645Y031354D01*
X034659Y031377D01*
X034670Y031418D01*
X034670Y031694D01*
X034314Y031694D01*
X034314Y031279D01*
X034314Y031014D01*
X034314Y031119D02*
X034194Y031119D01*
X034194Y031237D02*
X034314Y031237D01*
X034314Y031356D02*
X034194Y031356D01*
X034194Y031474D02*
X034314Y031474D01*
X034314Y031593D02*
X034194Y031593D01*
X034314Y031711D02*
X034700Y031711D01*
X034700Y031593D02*
X034670Y031593D01*
X034670Y031474D02*
X034700Y031474D01*
X034700Y031356D02*
X034646Y031356D01*
X034670Y031237D02*
X034700Y031237D01*
X034700Y031119D02*
X034670Y031119D01*
X034670Y031830D02*
X034700Y031830D01*
X034700Y031948D02*
X034670Y031948D01*
X034670Y032067D02*
X034679Y032067D01*
X034505Y028749D02*
X034351Y028749D01*
X035118Y026971D02*
X035118Y026971D01*
X035426Y026971D02*
X035430Y026971D01*
X032785Y026023D02*
X032520Y026023D01*
X032520Y025905D02*
X032785Y025905D01*
X032837Y025786D02*
X032606Y025786D01*
X032691Y025668D02*
X032853Y025668D01*
X032800Y025431D02*
X032740Y025431D01*
X032740Y025312D02*
X032800Y025312D01*
X028930Y027092D02*
X028930Y027379D01*
X028814Y027379D01*
X028814Y027794D01*
X028694Y027794D01*
X028694Y027379D01*
X028477Y027379D01*
X028436Y027390D01*
X028400Y027411D01*
X028374Y027436D01*
X028297Y027359D01*
X028196Y027359D01*
X028196Y027112D01*
X028294Y027112D01*
X028399Y027007D01*
X028399Y026961D01*
X028463Y026961D01*
X028472Y026994D01*
X028493Y027030D01*
X028523Y027060D01*
X028559Y027081D01*
X028600Y027092D01*
X028778Y027092D01*
X028778Y026954D01*
X028778Y026954D01*
X028778Y027092D01*
X028930Y027092D01*
X028930Y027208D02*
X028196Y027208D01*
X028196Y027327D02*
X028930Y027327D01*
X028814Y027445D02*
X028694Y027445D01*
X028694Y027564D02*
X028814Y027564D01*
X028814Y027682D02*
X028694Y027682D01*
X028694Y027919D02*
X028814Y027919D01*
X028814Y028038D02*
X028694Y028038D01*
X028694Y028156D02*
X028814Y028156D01*
X028814Y028275D02*
X028694Y028275D01*
X028377Y028275D02*
X028371Y028275D01*
X028316Y027090D02*
X028591Y027090D01*
X028466Y026971D02*
X028399Y026971D01*
X028778Y026971D02*
X028778Y026971D01*
X028778Y027090D02*
X028778Y027090D01*
X028117Y020098D02*
X037400Y020098D01*
X037400Y019980D02*
X027999Y019980D01*
X027880Y019861D02*
X037400Y019861D01*
X037400Y019743D02*
X027762Y019743D01*
X027643Y019624D02*
X036782Y019624D01*
X036671Y019506D02*
X027525Y019506D01*
X036040Y016662D02*
X038400Y016662D01*
X038400Y016780D02*
X036159Y016780D01*
X036213Y016899D02*
X038400Y016899D01*
X038400Y017017D02*
X036240Y017017D01*
X036240Y017136D02*
X038400Y017136D01*
X038400Y017254D02*
X036240Y017254D01*
X036240Y017373D02*
X038400Y017373D01*
X038378Y017491D02*
X036240Y017491D01*
X036240Y017610D02*
X038260Y017610D01*
X038141Y017728D02*
X036240Y017728D01*
X036202Y017847D02*
X038023Y017847D01*
X037904Y017965D02*
X036134Y017965D01*
X037338Y019624D02*
X037400Y019624D01*
X012601Y019387D02*
X012120Y019387D01*
X012120Y019269D02*
X012449Y019269D01*
X012331Y019150D02*
X012120Y019150D01*
X012120Y019032D02*
X012212Y019032D01*
M02*
