G75*
%MOIN*%
%OFA0B0*%
%FSLAX24Y24*%
%IPPOS*%
%LPD*%
%AMOC8*
5,1,8,0,0,1.08239X$1,22.5*
%
%ADD10C,0.0787*%
%ADD11OC8,0.0740*%
%ADD12C,0.0680*%
%ADD13C,0.0516*%
D10*
X012260Y003260D03*
X038160Y007360D03*
X037060Y019260D03*
X012260Y023260D03*
D11*
X019160Y022760D03*
X020160Y022760D03*
X021160Y022760D03*
X022160Y022760D03*
X023160Y022760D03*
X024160Y022760D03*
X025160Y022760D03*
X026160Y022760D03*
X027160Y022760D03*
X028160Y022760D03*
X029760Y022760D03*
X030760Y022760D03*
X031760Y022760D03*
X032760Y022760D03*
X033760Y022760D03*
X034760Y022760D03*
X035760Y022760D03*
X036760Y022760D03*
X036760Y003760D03*
X035760Y003760D03*
X034760Y003760D03*
X033760Y003760D03*
X032760Y003760D03*
X031760Y003760D03*
X029760Y003760D03*
X028760Y003760D03*
X027760Y003760D03*
X026760Y003760D03*
X025760Y003760D03*
X024760Y003760D03*
X023760Y003760D03*
X022760Y003760D03*
D12*
X027060Y013660D02*
X027060Y014260D01*
X028060Y014260D02*
X028060Y013660D01*
X029060Y013660D02*
X029060Y014260D01*
X030060Y014260D02*
X030060Y013660D01*
X032760Y013660D02*
X032760Y014260D01*
X033760Y014260D02*
X033760Y013660D01*
X034760Y013660D02*
X034760Y014260D01*
X035760Y014260D02*
X035760Y013660D01*
X035760Y017060D02*
X035760Y017660D01*
X034760Y017660D02*
X034760Y017060D01*
X033760Y017060D02*
X033760Y017660D01*
X032760Y017660D02*
X032760Y017060D01*
X030060Y017060D02*
X030060Y017660D01*
X029060Y017660D02*
X029060Y017060D01*
X028060Y017060D02*
X028060Y017660D01*
X027060Y017660D02*
X027060Y017060D01*
X026860Y024954D02*
X026860Y025554D01*
X025860Y025554D02*
X025860Y024954D01*
X027860Y024954D02*
X027860Y025554D01*
X028860Y025554D02*
X028860Y024954D01*
X032260Y024854D02*
X032260Y025454D01*
X033260Y025454D02*
X033260Y024854D01*
X034260Y024854D02*
X034260Y025454D01*
X035260Y025454D02*
X035260Y024854D01*
X022320Y024914D02*
X022320Y025514D01*
X021320Y025514D02*
X021320Y024914D01*
X020320Y024914D02*
X020320Y025514D01*
X019320Y025514D02*
X019320Y024914D01*
X015660Y024954D02*
X015660Y025554D01*
X014660Y025554D02*
X014660Y024954D01*
X013660Y024954D02*
X013660Y025554D01*
X012660Y025554D02*
X012660Y024954D01*
D13*
X013360Y028714D03*
X013060Y030514D03*
X019760Y030654D03*
X020260Y028554D03*
X026260Y030754D03*
X026760Y028454D03*
X032660Y030854D03*
X033160Y028554D03*
X036560Y021060D03*
X032360Y019060D03*
X028660Y019760D03*
X024160Y020160D03*
X022760Y018160D03*
X016260Y017660D03*
X013460Y019760D03*
X018860Y014260D03*
X019120Y012520D03*
X017760Y011260D03*
X019760Y009660D03*
X020460Y009460D03*
X020360Y007260D03*
X016460Y007760D03*
X014200Y005680D03*
X012400Y005680D03*
X022460Y012660D03*
X029260Y008060D03*
X032660Y006460D03*
X029560Y004960D03*
X025460Y006060D03*
X030860Y011560D03*
X035960Y007560D03*
X037860Y012760D03*
M02*
