G75*
%MOIN*%
%OFA0B0*%
%FSLAX24Y24*%
%IPPOS*%
%LPD*%
%AMOC8*
5,1,8,0,0,1.08239X$1,22.5*
%
%ADD10C,0.0394*%
%ADD11OC8,0.0660*%
%ADD12C,0.0600*%
%ADD13C,0.0436*%
%ADD14C,0.0240*%
%ADD15C,0.0120*%
%ADD16C,0.0100*%
D10*
X012260Y003260D03*
X038160Y007360D03*
X037060Y019260D03*
X012260Y023260D03*
D11*
X019160Y022760D03*
X020160Y022760D03*
X021160Y022760D03*
X022160Y022760D03*
X023160Y022760D03*
X024160Y022760D03*
X025160Y022760D03*
X026160Y022760D03*
X027160Y022760D03*
X028160Y022760D03*
X029760Y022760D03*
X030760Y022760D03*
X031760Y022760D03*
X032760Y022760D03*
X033760Y022760D03*
X034760Y022760D03*
X035760Y022760D03*
X036760Y022760D03*
X036760Y003760D03*
X035760Y003760D03*
X034760Y003760D03*
X033760Y003760D03*
X032760Y003760D03*
X031760Y003760D03*
X029760Y003760D03*
X028760Y003760D03*
X027760Y003760D03*
X026760Y003760D03*
X025760Y003760D03*
X024760Y003760D03*
X023760Y003760D03*
X022760Y003760D03*
D12*
X027060Y013660D02*
X027060Y014260D01*
X028060Y014260D02*
X028060Y013660D01*
X029060Y013660D02*
X029060Y014260D01*
X030060Y014260D02*
X030060Y013660D01*
X032760Y013660D02*
X032760Y014260D01*
X033760Y014260D02*
X033760Y013660D01*
X034760Y013660D02*
X034760Y014260D01*
X035760Y014260D02*
X035760Y013660D01*
X035760Y017060D02*
X035760Y017660D01*
X034760Y017660D02*
X034760Y017060D01*
X033760Y017060D02*
X033760Y017660D01*
X032760Y017660D02*
X032760Y017060D01*
X030060Y017060D02*
X030060Y017660D01*
X029060Y017660D02*
X029060Y017060D01*
X028060Y017060D02*
X028060Y017660D01*
X027060Y017660D02*
X027060Y017060D01*
X026860Y024954D02*
X026860Y025554D01*
X025860Y025554D02*
X025860Y024954D01*
X027860Y024954D02*
X027860Y025554D01*
X028860Y025554D02*
X028860Y024954D01*
X032260Y024854D02*
X032260Y025454D01*
X033260Y025454D02*
X033260Y024854D01*
X034260Y024854D02*
X034260Y025454D01*
X035260Y025454D02*
X035260Y024854D01*
X022320Y024914D02*
X022320Y025514D01*
X021320Y025514D02*
X021320Y024914D01*
X020320Y024914D02*
X020320Y025514D01*
X019320Y025514D02*
X019320Y024914D01*
X015660Y024954D02*
X015660Y025554D01*
X014660Y025554D02*
X014660Y024954D01*
X013660Y024954D02*
X013660Y025554D01*
X012660Y025554D02*
X012660Y024954D01*
D13*
X013360Y028714D03*
X013060Y030514D03*
X019760Y030654D03*
X020260Y028554D03*
X026260Y030754D03*
X026760Y028454D03*
X032660Y030854D03*
X033160Y028554D03*
X036560Y021060D03*
X032360Y019060D03*
X028660Y019760D03*
X024160Y020160D03*
X022760Y018160D03*
X016260Y017660D03*
X013460Y019760D03*
X018860Y014260D03*
X019120Y012520D03*
X017760Y011260D03*
X019760Y009660D03*
X020460Y009460D03*
X020360Y007260D03*
X016460Y007760D03*
X014200Y005680D03*
X012400Y005680D03*
X022460Y012660D03*
X029260Y008060D03*
X032660Y006460D03*
X029560Y004960D03*
X025460Y006060D03*
X030860Y011560D03*
X035960Y007560D03*
X037860Y012760D03*
D14*
X029260Y008060D02*
X028260Y007060D01*
X025360Y007060D01*
X025460Y006060D02*
X028460Y006060D01*
X029560Y004960D01*
X019120Y012080D02*
X018480Y011440D01*
X013600Y011440D01*
X012400Y010240D01*
X012400Y006280D01*
X013000Y005680D01*
X014200Y005680D01*
X012400Y005680D02*
X012400Y006280D01*
X019120Y012080D02*
X019120Y012520D01*
X027060Y017360D02*
X027060Y018560D01*
X027560Y019060D01*
X032360Y019060D01*
D15*
X012120Y022827D02*
X012120Y003693D01*
X012170Y003714D01*
X012350Y003714D01*
X012517Y003645D01*
X012645Y003517D01*
X012714Y003350D01*
X012714Y003170D01*
X012693Y003120D01*
X037400Y003120D01*
X037400Y003851D01*
X037470Y004021D01*
X037599Y004150D01*
X038400Y004951D01*
X038400Y006968D01*
X038250Y006906D01*
X038070Y006906D01*
X037903Y006975D01*
X037775Y007103D01*
X037706Y007270D01*
X037706Y007450D01*
X037775Y007617D01*
X037903Y007745D01*
X038070Y007814D01*
X038250Y007814D01*
X038400Y007752D01*
X038400Y017469D01*
X037470Y018399D01*
X037400Y018568D01*
X037400Y018958D01*
X037317Y018875D01*
X037150Y018806D01*
X036970Y018806D01*
X036803Y018875D01*
X036675Y019003D01*
X036606Y019170D01*
X036606Y019350D01*
X036675Y019517D01*
X036803Y019645D01*
X036970Y019714D01*
X037150Y019714D01*
X037317Y019645D01*
X037400Y019562D01*
X037400Y022969D01*
X036969Y023400D01*
X035868Y023400D01*
X035699Y023470D01*
X035570Y023599D01*
X035500Y023768D01*
X035500Y024434D01*
X035355Y024374D01*
X035165Y024374D01*
X034988Y024447D01*
X034853Y024582D01*
X034780Y024758D01*
X034780Y025549D01*
X034740Y025549D01*
X034667Y025726D01*
X034532Y025861D01*
X034490Y025878D01*
X034490Y025949D01*
X034355Y026084D01*
X034215Y026224D01*
X034665Y026224D01*
X035016Y025872D01*
X034988Y025861D01*
X034853Y025726D01*
X034780Y025549D01*
X034740Y025549D02*
X034740Y024758D01*
X034667Y024582D01*
X034532Y024447D01*
X034355Y024374D01*
X034165Y024374D01*
X033988Y024447D01*
X033853Y024582D01*
X033780Y024758D01*
X033780Y025549D01*
X033711Y025549D01*
X033709Y025561D02*
X033686Y025630D01*
X033653Y025695D01*
X033611Y025753D01*
X033560Y025805D01*
X033533Y025824D01*
X033951Y025824D01*
X033853Y025726D01*
X033780Y025549D01*
X033709Y025561D02*
X033720Y025490D01*
X033720Y025194D01*
X033300Y025194D01*
X033300Y025114D01*
X033720Y025114D01*
X033720Y024817D01*
X033709Y024746D01*
X033686Y024677D01*
X033653Y024613D01*
X033611Y024554D01*
X033560Y024503D01*
X033501Y024460D01*
X033437Y024427D01*
X033368Y024405D01*
X033300Y024394D01*
X033300Y025114D01*
X033220Y025114D01*
X032800Y025114D01*
X032800Y024817D01*
X032811Y024746D01*
X032834Y024677D01*
X032867Y024613D01*
X032909Y024554D01*
X032960Y024503D01*
X033019Y024460D01*
X033083Y024427D01*
X033152Y024405D01*
X033220Y024394D01*
X033220Y025114D01*
X033220Y025194D01*
X032800Y025194D01*
X032800Y025490D01*
X032811Y025561D01*
X032834Y025630D01*
X032867Y025695D01*
X032909Y025753D01*
X032960Y025805D01*
X032987Y025824D01*
X032865Y025824D01*
X032730Y025958D01*
X032430Y026258D01*
X032430Y030521D01*
X032322Y030628D01*
X032262Y030775D01*
X032262Y030933D01*
X032322Y031079D01*
X032434Y031191D01*
X032581Y031252D01*
X032739Y031252D01*
X032886Y031191D01*
X032998Y031079D01*
X033058Y030933D01*
X033058Y030775D01*
X032998Y030628D01*
X032890Y030521D01*
X032890Y028847D01*
X032934Y028891D01*
X033081Y028952D01*
X033239Y028952D01*
X033386Y028891D01*
X033498Y028779D01*
X033558Y028633D01*
X033558Y028475D01*
X033498Y028328D01*
X033390Y028221D01*
X033390Y026749D01*
X033455Y026684D01*
X034855Y026684D01*
X035355Y026184D01*
X035490Y026049D01*
X035490Y025878D01*
X035500Y025874D01*
X035500Y032294D01*
X032120Y032294D01*
X032120Y025915D01*
X032165Y025934D01*
X032355Y025934D01*
X032532Y025861D01*
X032667Y025726D01*
X032740Y025549D01*
X032809Y025549D01*
X032740Y025549D02*
X032740Y024758D01*
X032667Y024582D01*
X032532Y024447D01*
X032355Y024374D01*
X032165Y024374D01*
X032120Y024392D01*
X032120Y023768D01*
X032050Y023599D01*
X031921Y023470D01*
X031751Y023400D01*
X029468Y023400D01*
X029299Y023470D01*
X029170Y023599D01*
X029100Y023768D01*
X029100Y024534D01*
X028955Y024474D01*
X028765Y024474D01*
X028588Y024547D01*
X028453Y024682D01*
X028380Y024858D01*
X028380Y025649D01*
X028453Y025826D01*
X028558Y025930D01*
X028165Y026324D01*
X027815Y026324D01*
X027955Y026184D01*
X028090Y026049D01*
X028090Y025978D01*
X028132Y025961D01*
X028267Y025826D01*
X028340Y025649D01*
X028340Y024858D01*
X028267Y024682D01*
X028132Y024547D01*
X027955Y024474D01*
X027765Y024474D01*
X027588Y024547D01*
X027453Y024682D01*
X027380Y024858D01*
X027380Y025649D01*
X027453Y025826D01*
X027551Y025924D01*
X027133Y025924D01*
X027160Y025905D01*
X027211Y025853D01*
X027253Y025795D01*
X027286Y025730D01*
X027309Y025661D01*
X027320Y025590D01*
X027320Y025294D01*
X026900Y025294D01*
X026900Y025214D01*
X027320Y025214D01*
X027320Y024917D01*
X027309Y024846D01*
X027286Y024777D01*
X027253Y024713D01*
X027211Y024654D01*
X027160Y024603D01*
X027101Y024560D01*
X027037Y024527D01*
X026968Y024505D01*
X026900Y024494D01*
X026900Y025214D01*
X026820Y025214D01*
X026400Y025214D01*
X026400Y024917D01*
X026411Y024846D01*
X026434Y024777D01*
X026467Y024713D01*
X026509Y024654D01*
X026560Y024603D01*
X026619Y024560D01*
X026683Y024527D01*
X026752Y024505D01*
X026820Y024494D01*
X026820Y025214D01*
X026820Y025294D01*
X026400Y025294D01*
X026400Y025590D01*
X026411Y025661D01*
X026434Y025730D01*
X026467Y025795D01*
X026509Y025853D01*
X026560Y025905D01*
X026619Y025947D01*
X026634Y025955D01*
X026530Y026058D01*
X026030Y026558D01*
X026030Y030421D01*
X025922Y030528D01*
X025862Y030675D01*
X025862Y030833D01*
X025922Y030979D01*
X026034Y031091D01*
X026181Y031152D01*
X026339Y031152D01*
X026486Y031091D01*
X026598Y030979D01*
X026658Y030833D01*
X026658Y030675D01*
X026598Y030528D01*
X026490Y030421D01*
X026490Y028747D01*
X026534Y028791D01*
X026681Y028852D01*
X026839Y028852D01*
X026986Y028791D01*
X027098Y028679D01*
X027158Y028533D01*
X027158Y028375D01*
X027098Y028228D01*
X026990Y028121D01*
X026990Y026949D01*
X027155Y026784D01*
X028355Y026784D01*
X028955Y026184D01*
X029090Y026049D01*
X029090Y025978D01*
X029100Y025974D01*
X029100Y032294D01*
X025720Y032294D01*
X025720Y026015D01*
X025765Y026034D01*
X025955Y026034D01*
X026132Y025961D01*
X026267Y025826D01*
X026340Y025649D01*
X026340Y024858D01*
X026267Y024682D01*
X026132Y024547D01*
X025955Y024474D01*
X025765Y024474D01*
X025720Y024492D01*
X025720Y023768D01*
X025650Y023599D01*
X025521Y023470D01*
X025351Y023400D01*
X022968Y023400D01*
X022799Y023470D01*
X022670Y023599D01*
X022600Y023768D01*
X022600Y024515D01*
X022592Y024507D01*
X022415Y024434D01*
X022225Y024434D01*
X022048Y024507D01*
X021913Y024642D01*
X021840Y024818D01*
X021840Y025609D01*
X021913Y025786D01*
X022020Y025893D01*
X022020Y026254D01*
X021561Y026714D01*
X020312Y026714D01*
X020224Y026750D01*
X020157Y026818D01*
X020157Y026818D01*
X020057Y026918D01*
X020020Y027006D01*
X020020Y028231D01*
X020000Y028251D01*
X020000Y026753D01*
X020159Y026594D01*
X021108Y026594D01*
X021196Y026557D01*
X021496Y026257D01*
X021563Y026190D01*
X021600Y026101D01*
X021600Y025913D01*
X021727Y025786D01*
X021800Y025609D01*
X021800Y024818D01*
X021727Y024642D01*
X021592Y024507D01*
X021415Y024434D01*
X021225Y024434D01*
X021048Y024507D01*
X020913Y024642D01*
X020840Y024818D01*
X020840Y025609D01*
X020913Y025786D01*
X021048Y025921D01*
X021120Y025950D01*
X021120Y025954D01*
X020961Y026114D01*
X020012Y026114D01*
X019924Y026150D01*
X019857Y026218D01*
X019557Y026518D01*
X019520Y026606D01*
X019520Y030331D01*
X019422Y030428D01*
X019362Y030575D01*
X019362Y030733D01*
X019422Y030879D01*
X019534Y030991D01*
X019681Y031052D01*
X019839Y031052D01*
X019986Y030991D01*
X020098Y030879D01*
X020158Y030733D01*
X020158Y030575D01*
X020098Y030428D01*
X020000Y030331D01*
X020000Y028857D01*
X020034Y028891D01*
X020181Y028952D01*
X020339Y028952D01*
X020486Y028891D01*
X020598Y028779D01*
X020658Y028633D01*
X020658Y028475D01*
X020598Y028328D01*
X020500Y028231D01*
X020500Y027194D01*
X021708Y027194D01*
X021796Y027157D01*
X022396Y026557D01*
X022463Y026490D01*
X022500Y026401D01*
X022500Y025959D01*
X022592Y025921D01*
X022600Y025913D01*
X022600Y032294D01*
X019120Y032294D01*
X019120Y025950D01*
X019225Y025994D01*
X019415Y025994D01*
X019592Y025921D01*
X019727Y025786D01*
X019800Y025609D01*
X019800Y024818D01*
X019727Y024642D01*
X019592Y024507D01*
X019415Y024434D01*
X019225Y024434D01*
X019120Y024477D01*
X019120Y023768D01*
X019050Y023599D01*
X018921Y023470D01*
X018751Y023400D01*
X016268Y023400D01*
X016099Y023470D01*
X015970Y023599D01*
X015900Y023768D01*
X015900Y024534D01*
X015755Y024474D01*
X015565Y024474D01*
X015388Y024547D01*
X015253Y024682D01*
X015180Y024858D01*
X015180Y025649D01*
X015253Y025826D01*
X015368Y025940D01*
X013190Y028118D01*
X013190Y027889D01*
X014775Y026304D01*
X014775Y026304D01*
X014910Y026169D01*
X014910Y025970D01*
X014932Y025961D01*
X015067Y025826D01*
X015140Y025649D01*
X015140Y024858D01*
X015067Y024682D01*
X014932Y024547D01*
X014755Y024474D01*
X014565Y024474D01*
X014388Y024547D01*
X014253Y024682D01*
X014180Y024858D01*
X014180Y025649D01*
X014253Y025826D01*
X014388Y025961D01*
X014444Y025984D01*
X012865Y027564D01*
X012865Y027564D01*
X012730Y027698D01*
X012730Y030281D01*
X012722Y030288D01*
X012662Y030435D01*
X012662Y030593D01*
X012722Y030739D01*
X012834Y030851D01*
X012981Y030912D01*
X013139Y030912D01*
X013286Y030851D01*
X013398Y030739D01*
X013458Y030593D01*
X013458Y030435D01*
X013398Y030288D01*
X013286Y030176D01*
X013190Y030137D01*
X013190Y029074D01*
X013281Y029112D01*
X013439Y029112D01*
X013586Y029051D01*
X013698Y028939D01*
X013758Y028793D01*
X013758Y028635D01*
X013698Y028488D01*
X013590Y028381D01*
X013590Y028369D01*
X015735Y026224D01*
X015870Y026089D01*
X015870Y025986D01*
X015900Y025974D01*
X015900Y032294D01*
X012420Y032294D01*
X012420Y025974D01*
X012565Y026034D01*
X012755Y026034D01*
X012932Y025961D01*
X013067Y025826D01*
X013140Y025649D01*
X013140Y024858D01*
X013067Y024682D01*
X012932Y024547D01*
X012755Y024474D01*
X012565Y024474D01*
X012420Y024534D01*
X012420Y023768D01*
X012390Y023697D01*
X012517Y023645D01*
X012645Y023517D01*
X012714Y023350D01*
X012714Y023170D01*
X012645Y023003D01*
X012517Y022875D01*
X012350Y022806D01*
X012170Y022806D01*
X012120Y022827D01*
X012120Y022824D02*
X012128Y022824D01*
X012120Y022705D02*
X018650Y022705D01*
X018650Y022587D02*
X012120Y022587D01*
X012120Y022468D02*
X018731Y022468D01*
X018650Y022549D02*
X018949Y022250D01*
X019371Y022250D01*
X019660Y022539D01*
X019949Y022250D01*
X020371Y022250D01*
X020660Y022539D01*
X020949Y022250D01*
X021371Y022250D01*
X021670Y022549D01*
X021670Y022971D01*
X021371Y023270D01*
X020949Y023270D01*
X020660Y022981D01*
X020371Y023270D01*
X019949Y023270D01*
X019660Y022981D01*
X019371Y023270D01*
X018949Y023270D01*
X018650Y022971D01*
X018650Y022549D01*
X018650Y022824D02*
X012392Y022824D01*
X012584Y022942D02*
X018650Y022942D01*
X018739Y023061D02*
X012668Y023061D01*
X012714Y023179D02*
X018858Y023179D01*
X018790Y023416D02*
X022930Y023416D01*
X022949Y023270D02*
X022650Y022971D01*
X022650Y022549D01*
X022949Y022250D01*
X023371Y022250D01*
X023660Y022539D01*
X023949Y022250D01*
X024371Y022250D01*
X024660Y022539D01*
X024949Y022250D01*
X025371Y022250D01*
X025660Y022539D01*
X025949Y022250D01*
X026371Y022250D01*
X026660Y022539D01*
X026949Y022250D01*
X027371Y022250D01*
X027660Y022539D01*
X027949Y022250D01*
X028371Y022250D01*
X028670Y022549D01*
X028670Y022971D01*
X028371Y023270D01*
X027949Y023270D01*
X027660Y022981D01*
X027371Y023270D01*
X026949Y023270D01*
X026660Y022981D01*
X026371Y023270D01*
X025949Y023270D01*
X025660Y022981D01*
X025371Y023270D01*
X024949Y023270D01*
X024660Y022981D01*
X024371Y023270D01*
X023949Y023270D01*
X023660Y022981D01*
X023371Y023270D01*
X022949Y023270D01*
X022858Y023179D02*
X022434Y023179D01*
X022363Y023250D02*
X022650Y022963D01*
X022650Y022798D01*
X022198Y022798D01*
X022198Y022722D01*
X022650Y022722D01*
X022650Y022557D01*
X022363Y022270D01*
X022198Y022270D01*
X022198Y022722D01*
X022122Y022722D01*
X022122Y022270D01*
X021957Y022270D01*
X021670Y022557D01*
X021670Y022722D01*
X022122Y022722D01*
X022122Y022798D01*
X021670Y022798D01*
X021670Y022963D01*
X021957Y023250D01*
X022122Y023250D01*
X022122Y022798D01*
X022198Y022798D01*
X022198Y023250D01*
X022363Y023250D01*
X022198Y023179D02*
X022122Y023179D01*
X022122Y023061D02*
X022198Y023061D01*
X022198Y022942D02*
X022122Y022942D01*
X022122Y022824D02*
X022198Y022824D01*
X022198Y022705D02*
X022122Y022705D01*
X022122Y022587D02*
X022198Y022587D01*
X022198Y022468D02*
X022122Y022468D01*
X022122Y022350D02*
X022198Y022350D01*
X022443Y022350D02*
X022849Y022350D01*
X022731Y022468D02*
X022561Y022468D01*
X022650Y022587D02*
X022650Y022587D01*
X022650Y022705D02*
X022650Y022705D01*
X022650Y022824D02*
X022650Y022824D01*
X022650Y022942D02*
X022650Y022942D01*
X022739Y023061D02*
X022552Y023061D01*
X022735Y023535D02*
X018985Y023535D01*
X019072Y023653D02*
X022648Y023653D01*
X022600Y023772D02*
X019120Y023772D01*
X019120Y023890D02*
X022600Y023890D01*
X022600Y024009D02*
X019120Y024009D01*
X019120Y024127D02*
X022600Y024127D01*
X022600Y024246D02*
X019120Y024246D01*
X019120Y024364D02*
X022600Y024364D01*
X022600Y024483D02*
X022533Y024483D01*
X022107Y024483D02*
X021533Y024483D01*
X021686Y024601D02*
X021954Y024601D01*
X021881Y024720D02*
X021759Y024720D01*
X021800Y024838D02*
X021840Y024838D01*
X021840Y024957D02*
X021800Y024957D01*
X021800Y025075D02*
X021840Y025075D01*
X021840Y025194D02*
X021800Y025194D01*
X021800Y025312D02*
X021840Y025312D01*
X021840Y025431D02*
X021800Y025431D01*
X021800Y025549D02*
X021840Y025549D01*
X021864Y025668D02*
X021776Y025668D01*
X021726Y025786D02*
X021914Y025786D01*
X022020Y025905D02*
X021608Y025905D01*
X021600Y026023D02*
X022020Y026023D01*
X022020Y026142D02*
X021583Y026142D01*
X021493Y026260D02*
X022014Y026260D01*
X021896Y026379D02*
X021375Y026379D01*
X021256Y026497D02*
X021777Y026497D01*
X021659Y026616D02*
X020138Y026616D01*
X020019Y026734D02*
X020263Y026734D01*
X020122Y026853D02*
X020000Y026853D01*
X020000Y026971D02*
X020034Y026971D01*
X020020Y027090D02*
X020000Y027090D01*
X020000Y027208D02*
X020020Y027208D01*
X020020Y027327D02*
X020000Y027327D01*
X020000Y027445D02*
X020020Y027445D01*
X020020Y027564D02*
X020000Y027564D01*
X020000Y027682D02*
X020020Y027682D01*
X020020Y027801D02*
X020000Y027801D01*
X020000Y027919D02*
X020020Y027919D01*
X020020Y028038D02*
X020000Y028038D01*
X020000Y028156D02*
X020020Y028156D01*
X020260Y028554D02*
X020260Y027054D01*
X020360Y026954D01*
X021660Y026954D01*
X022260Y026354D01*
X022260Y025274D01*
X022320Y025214D01*
X022500Y026023D02*
X022600Y026023D01*
X022600Y026142D02*
X022500Y026142D01*
X022500Y026260D02*
X022600Y026260D01*
X022600Y026379D02*
X022500Y026379D01*
X022456Y026497D02*
X022600Y026497D01*
X022600Y026616D02*
X022338Y026616D01*
X022219Y026734D02*
X022600Y026734D01*
X022600Y026853D02*
X022101Y026853D01*
X021982Y026971D02*
X022600Y026971D01*
X022600Y027090D02*
X021864Y027090D01*
X022600Y027208D02*
X020500Y027208D01*
X020500Y027327D02*
X022600Y027327D01*
X022600Y027445D02*
X020500Y027445D01*
X020500Y027564D02*
X022600Y027564D01*
X022600Y027682D02*
X020500Y027682D01*
X020500Y027801D02*
X022600Y027801D01*
X022600Y027919D02*
X020500Y027919D01*
X020500Y028038D02*
X022600Y028038D01*
X022600Y028156D02*
X020500Y028156D01*
X020544Y028275D02*
X022600Y028275D01*
X022600Y028393D02*
X020624Y028393D01*
X020658Y028512D02*
X022600Y028512D01*
X022600Y028630D02*
X020658Y028630D01*
X020610Y028749D02*
X022600Y028749D01*
X022600Y028867D02*
X020510Y028867D01*
X020010Y028867D02*
X020000Y028867D01*
X020000Y028986D02*
X022600Y028986D01*
X022600Y029104D02*
X020000Y029104D01*
X020000Y029223D02*
X022600Y029223D01*
X022600Y029341D02*
X020000Y029341D01*
X020000Y029460D02*
X022600Y029460D01*
X022600Y029578D02*
X020000Y029578D01*
X020000Y029697D02*
X022600Y029697D01*
X022600Y029815D02*
X020000Y029815D01*
X020000Y029934D02*
X022600Y029934D01*
X022600Y030052D02*
X020000Y030052D01*
X020000Y030171D02*
X022600Y030171D01*
X022600Y030289D02*
X020000Y030289D01*
X020077Y030408D02*
X022600Y030408D01*
X022600Y030526D02*
X020138Y030526D01*
X020158Y030645D02*
X022600Y030645D01*
X022600Y030763D02*
X020146Y030763D01*
X020095Y030882D02*
X022600Y030882D01*
X022600Y031000D02*
X019964Y031000D01*
X019760Y030654D02*
X019760Y026654D01*
X020060Y026354D01*
X021060Y026354D01*
X021360Y026054D01*
X021360Y025254D01*
X021320Y025214D01*
X020840Y025194D02*
X020360Y025194D01*
X020360Y025174D02*
X020360Y025254D01*
X020280Y025254D01*
X020280Y025973D01*
X020212Y025962D01*
X020143Y025940D01*
X020079Y025907D01*
X020020Y025865D01*
X019969Y025813D01*
X019927Y025755D01*
X019894Y025690D01*
X019871Y025621D01*
X019860Y025550D01*
X019860Y025254D01*
X020280Y025254D01*
X020280Y025174D01*
X019860Y025174D01*
X019860Y024877D01*
X019871Y024806D01*
X019894Y024737D01*
X019927Y024673D01*
X019969Y024614D01*
X020020Y024563D01*
X020079Y024520D01*
X020143Y024487D01*
X020212Y024465D01*
X020280Y024454D01*
X020280Y025174D01*
X020360Y025174D01*
X020780Y025174D01*
X020780Y024877D01*
X020769Y024806D01*
X020746Y024737D01*
X020713Y024673D01*
X020671Y024614D01*
X020620Y024563D01*
X020561Y024520D01*
X020497Y024487D01*
X020428Y024465D01*
X020360Y024454D01*
X020360Y025174D01*
X020360Y025254D02*
X020780Y025254D01*
X020780Y025550D01*
X020769Y025621D01*
X020746Y025690D01*
X020713Y025755D01*
X020671Y025813D01*
X020620Y025865D01*
X020561Y025907D01*
X020497Y025940D01*
X020428Y025962D01*
X020360Y025973D01*
X020360Y025254D01*
X020360Y025312D02*
X020280Y025312D01*
X020280Y025194D02*
X019800Y025194D01*
X019800Y025312D02*
X019860Y025312D01*
X019860Y025431D02*
X019800Y025431D01*
X019800Y025549D02*
X019860Y025549D01*
X019886Y025668D02*
X019776Y025668D01*
X019726Y025786D02*
X019949Y025786D01*
X020075Y025905D02*
X019608Y025905D01*
X019814Y026260D02*
X019120Y026260D01*
X019120Y026142D02*
X019945Y026142D01*
X019696Y026379D02*
X019120Y026379D01*
X019120Y026497D02*
X019577Y026497D01*
X019520Y026616D02*
X019120Y026616D01*
X019120Y026734D02*
X019520Y026734D01*
X019520Y026853D02*
X019120Y026853D01*
X019120Y026971D02*
X019520Y026971D01*
X019520Y027090D02*
X019120Y027090D01*
X019120Y027208D02*
X019520Y027208D01*
X019520Y027327D02*
X019120Y027327D01*
X019120Y027445D02*
X019520Y027445D01*
X019520Y027564D02*
X019120Y027564D01*
X019120Y027682D02*
X019520Y027682D01*
X019520Y027801D02*
X019120Y027801D01*
X019120Y027919D02*
X019520Y027919D01*
X019520Y028038D02*
X019120Y028038D01*
X019120Y028156D02*
X019520Y028156D01*
X019520Y028275D02*
X019120Y028275D01*
X019120Y028393D02*
X019520Y028393D01*
X019520Y028512D02*
X019120Y028512D01*
X019120Y028630D02*
X019520Y028630D01*
X019520Y028749D02*
X019120Y028749D01*
X019120Y028867D02*
X019520Y028867D01*
X019520Y028986D02*
X019120Y028986D01*
X019120Y029104D02*
X019520Y029104D01*
X019520Y029223D02*
X019120Y029223D01*
X019120Y029341D02*
X019520Y029341D01*
X019520Y029460D02*
X019120Y029460D01*
X019120Y029578D02*
X019520Y029578D01*
X019520Y029697D02*
X019120Y029697D01*
X019120Y029815D02*
X019520Y029815D01*
X019520Y029934D02*
X019120Y029934D01*
X019120Y030052D02*
X019520Y030052D01*
X019520Y030171D02*
X019120Y030171D01*
X019120Y030289D02*
X019520Y030289D01*
X019443Y030408D02*
X019120Y030408D01*
X019120Y030526D02*
X019382Y030526D01*
X019362Y030645D02*
X019120Y030645D01*
X019120Y030763D02*
X019374Y030763D01*
X019425Y030882D02*
X019120Y030882D01*
X019120Y031000D02*
X019556Y031000D01*
X019120Y031119D02*
X022600Y031119D01*
X022600Y031237D02*
X019120Y031237D01*
X019120Y031356D02*
X022600Y031356D01*
X022600Y031474D02*
X019120Y031474D01*
X019120Y031593D02*
X022600Y031593D01*
X022600Y031711D02*
X019120Y031711D01*
X019120Y031830D02*
X022600Y031830D01*
X022600Y031948D02*
X019120Y031948D01*
X019120Y032067D02*
X022600Y032067D01*
X022600Y032185D02*
X019120Y032185D01*
X015900Y032185D02*
X012420Y032185D01*
X012420Y032067D02*
X015900Y032067D01*
X015900Y031948D02*
X012420Y031948D01*
X012420Y031830D02*
X015900Y031830D01*
X015900Y031711D02*
X012420Y031711D01*
X012420Y031593D02*
X015900Y031593D01*
X015900Y031474D02*
X012420Y031474D01*
X012420Y031356D02*
X015900Y031356D01*
X015900Y031237D02*
X012420Y031237D01*
X012420Y031119D02*
X015900Y031119D01*
X015900Y031000D02*
X012420Y031000D01*
X012420Y030882D02*
X012908Y030882D01*
X012746Y030763D02*
X012420Y030763D01*
X012420Y030645D02*
X012683Y030645D01*
X012662Y030526D02*
X012420Y030526D01*
X012420Y030408D02*
X012673Y030408D01*
X012722Y030289D02*
X012420Y030289D01*
X012420Y030171D02*
X012730Y030171D01*
X012730Y030052D02*
X012420Y030052D01*
X012420Y029934D02*
X012730Y029934D01*
X012730Y029815D02*
X012420Y029815D01*
X012420Y029697D02*
X012730Y029697D01*
X012730Y029578D02*
X012420Y029578D01*
X012420Y029460D02*
X012730Y029460D01*
X012730Y029341D02*
X012420Y029341D01*
X012420Y029223D02*
X012730Y029223D01*
X012730Y029104D02*
X012420Y029104D01*
X012420Y028986D02*
X012730Y028986D01*
X012730Y028867D02*
X012420Y028867D01*
X012420Y028749D02*
X012730Y028749D01*
X012730Y028630D02*
X012420Y028630D01*
X012420Y028512D02*
X012730Y028512D01*
X012730Y028393D02*
X012420Y028393D01*
X012420Y028275D02*
X012730Y028275D01*
X012730Y028156D02*
X012420Y028156D01*
X012420Y028038D02*
X012730Y028038D01*
X012730Y027919D02*
X012420Y027919D01*
X012420Y027801D02*
X012730Y027801D01*
X012746Y027682D02*
X012420Y027682D01*
X012420Y027564D02*
X012865Y027564D01*
X012983Y027445D02*
X012420Y027445D01*
X012420Y027327D02*
X013102Y027327D01*
X013220Y027208D02*
X012420Y027208D01*
X012420Y027090D02*
X013339Y027090D01*
X013457Y026971D02*
X012420Y026971D01*
X012420Y026853D02*
X013576Y026853D01*
X013694Y026734D02*
X012420Y026734D01*
X012420Y026616D02*
X013813Y026616D01*
X013931Y026497D02*
X012420Y026497D01*
X012420Y026379D02*
X014050Y026379D01*
X014168Y026260D02*
X012420Y026260D01*
X012420Y026142D02*
X014287Y026142D01*
X014405Y026023D02*
X012781Y026023D01*
X012988Y025905D02*
X013360Y025905D01*
X013309Y025853D01*
X013267Y025795D01*
X013234Y025730D01*
X013211Y025661D01*
X013200Y025590D01*
X013200Y025294D01*
X013620Y025294D01*
X013620Y026013D01*
X013552Y026002D01*
X013483Y025980D01*
X013419Y025947D01*
X013360Y025905D01*
X013262Y025786D02*
X013083Y025786D01*
X013132Y025668D02*
X013213Y025668D01*
X013200Y025549D02*
X013140Y025549D01*
X013140Y025431D02*
X013200Y025431D01*
X013200Y025312D02*
X013140Y025312D01*
X013200Y025214D02*
X013200Y024917D01*
X013211Y024846D01*
X013234Y024777D01*
X013267Y024713D01*
X013309Y024654D01*
X013360Y024603D01*
X013419Y024560D01*
X013483Y024527D01*
X013552Y024505D01*
X013620Y024494D01*
X013620Y025214D01*
X013200Y025214D01*
X013200Y025194D02*
X013140Y025194D01*
X013140Y025075D02*
X013200Y025075D01*
X013200Y024957D02*
X013140Y024957D01*
X013132Y024838D02*
X013214Y024838D01*
X013263Y024720D02*
X013083Y024720D01*
X012986Y024601D02*
X013363Y024601D01*
X013620Y024601D02*
X013700Y024601D01*
X013700Y024494D02*
X013768Y024505D01*
X013837Y024527D01*
X013901Y024560D01*
X013960Y024603D01*
X014011Y024654D01*
X014053Y024713D01*
X014086Y024777D01*
X014109Y024846D01*
X014120Y024917D01*
X014120Y025214D01*
X013700Y025214D01*
X013700Y025294D01*
X013620Y025294D01*
X013620Y025214D01*
X013700Y025214D01*
X013700Y024494D01*
X013700Y024720D02*
X013620Y024720D01*
X013620Y024838D02*
X013700Y024838D01*
X013700Y024957D02*
X013620Y024957D01*
X013620Y025075D02*
X013700Y025075D01*
X013700Y025194D02*
X013620Y025194D01*
X013620Y025312D02*
X013700Y025312D01*
X013700Y025294D02*
X013700Y026013D01*
X013768Y026002D01*
X013837Y025980D01*
X013901Y025947D01*
X013960Y025905D01*
X014011Y025853D01*
X014053Y025795D01*
X014086Y025730D01*
X014109Y025661D01*
X014120Y025590D01*
X014120Y025294D01*
X013700Y025294D01*
X013700Y025431D02*
X013620Y025431D01*
X013620Y025549D02*
X013700Y025549D01*
X013700Y025668D02*
X013620Y025668D01*
X013620Y025786D02*
X013700Y025786D01*
X013700Y025905D02*
X013620Y025905D01*
X013960Y025905D02*
X014332Y025905D01*
X014237Y025786D02*
X014058Y025786D01*
X014107Y025668D02*
X014188Y025668D01*
X014180Y025549D02*
X014120Y025549D01*
X014120Y025431D02*
X014180Y025431D01*
X014180Y025312D02*
X014120Y025312D01*
X014120Y025194D02*
X014180Y025194D01*
X014180Y025075D02*
X014120Y025075D01*
X014120Y024957D02*
X014180Y024957D01*
X014188Y024838D02*
X014106Y024838D01*
X014057Y024720D02*
X014237Y024720D01*
X014334Y024601D02*
X013957Y024601D01*
X014543Y024483D02*
X012777Y024483D01*
X012543Y024483D02*
X012420Y024483D01*
X012420Y024364D02*
X015900Y024364D01*
X015900Y024246D02*
X012420Y024246D01*
X012420Y024127D02*
X015900Y024127D01*
X015900Y024009D02*
X012420Y024009D01*
X012420Y023890D02*
X015900Y023890D01*
X015900Y023772D02*
X012420Y023772D01*
X012497Y023653D02*
X015948Y023653D01*
X016035Y023535D02*
X012627Y023535D01*
X012686Y023416D02*
X016230Y023416D01*
X015900Y024483D02*
X015777Y024483D01*
X015543Y024483D02*
X014777Y024483D01*
X014986Y024601D02*
X015334Y024601D01*
X015237Y024720D02*
X015083Y024720D01*
X015132Y024838D02*
X015188Y024838D01*
X015180Y024957D02*
X015140Y024957D01*
X015140Y025075D02*
X015180Y025075D01*
X015180Y025194D02*
X015140Y025194D01*
X015140Y025312D02*
X015180Y025312D01*
X015180Y025431D02*
X015140Y025431D01*
X015140Y025549D02*
X015180Y025549D01*
X015188Y025668D02*
X015132Y025668D01*
X015083Y025786D02*
X015237Y025786D01*
X015332Y025905D02*
X014988Y025905D01*
X014910Y026023D02*
X015285Y026023D01*
X015167Y026142D02*
X014910Y026142D01*
X014819Y026260D02*
X015048Y026260D01*
X014930Y026379D02*
X014700Y026379D01*
X014811Y026497D02*
X014582Y026497D01*
X014693Y026616D02*
X014463Y026616D01*
X014574Y026734D02*
X014345Y026734D01*
X014456Y026853D02*
X014226Y026853D01*
X014337Y026971D02*
X014108Y026971D01*
X014219Y027090D02*
X013989Y027090D01*
X014100Y027208D02*
X013871Y027208D01*
X013982Y027327D02*
X013752Y027327D01*
X013863Y027445D02*
X013634Y027445D01*
X013745Y027564D02*
X013515Y027564D01*
X013626Y027682D02*
X013397Y027682D01*
X013508Y027801D02*
X013278Y027801D01*
X013190Y027919D02*
X013389Y027919D01*
X013271Y028038D02*
X013190Y028038D01*
X013602Y028393D02*
X015900Y028393D01*
X015900Y028275D02*
X013684Y028275D01*
X013803Y028156D02*
X015900Y028156D01*
X015900Y028038D02*
X013921Y028038D01*
X014040Y027919D02*
X015900Y027919D01*
X015900Y027801D02*
X014158Y027801D01*
X014277Y027682D02*
X015900Y027682D01*
X015900Y027564D02*
X014395Y027564D01*
X014514Y027445D02*
X015900Y027445D01*
X015900Y027327D02*
X014632Y027327D01*
X014751Y027208D02*
X015900Y027208D01*
X015900Y027090D02*
X014869Y027090D01*
X014988Y026971D02*
X015900Y026971D01*
X015900Y026853D02*
X015106Y026853D01*
X015225Y026734D02*
X015900Y026734D01*
X015900Y026616D02*
X015343Y026616D01*
X015462Y026497D02*
X015900Y026497D01*
X015900Y026379D02*
X015580Y026379D01*
X015699Y026260D02*
X015900Y026260D01*
X015900Y026142D02*
X015817Y026142D01*
X015870Y026023D02*
X015900Y026023D01*
X019120Y026023D02*
X021051Y026023D01*
X021032Y025905D02*
X020565Y025905D01*
X020691Y025786D02*
X020914Y025786D01*
X020864Y025668D02*
X020754Y025668D01*
X020780Y025549D02*
X020840Y025549D01*
X020840Y025431D02*
X020780Y025431D01*
X020780Y025312D02*
X020840Y025312D01*
X020840Y025075D02*
X020780Y025075D01*
X020780Y024957D02*
X020840Y024957D01*
X020840Y024838D02*
X020774Y024838D01*
X020737Y024720D02*
X020881Y024720D01*
X020954Y024601D02*
X020658Y024601D01*
X020482Y024483D02*
X021107Y024483D01*
X020360Y024483D02*
X020280Y024483D01*
X020280Y024601D02*
X020360Y024601D01*
X020360Y024720D02*
X020280Y024720D01*
X020280Y024838D02*
X020360Y024838D01*
X020360Y024957D02*
X020280Y024957D01*
X020280Y025075D02*
X020360Y025075D01*
X020360Y025431D02*
X020280Y025431D01*
X020280Y025549D02*
X020360Y025549D01*
X020360Y025668D02*
X020280Y025668D01*
X020280Y025786D02*
X020360Y025786D01*
X020360Y025905D02*
X020280Y025905D01*
X019860Y025075D02*
X019800Y025075D01*
X019800Y024957D02*
X019860Y024957D01*
X019866Y024838D02*
X019800Y024838D01*
X019759Y024720D02*
X019903Y024720D01*
X019982Y024601D02*
X019686Y024601D01*
X019533Y024483D02*
X020158Y024483D01*
X019858Y023179D02*
X019462Y023179D01*
X019581Y023061D02*
X019739Y023061D01*
X019731Y022468D02*
X019589Y022468D01*
X019471Y022350D02*
X019849Y022350D01*
X020471Y022350D02*
X020849Y022350D01*
X020731Y022468D02*
X020589Y022468D01*
X020581Y023061D02*
X020739Y023061D01*
X020858Y023179D02*
X020462Y023179D01*
X021462Y023179D02*
X021886Y023179D01*
X021768Y023061D02*
X021581Y023061D01*
X021670Y022942D02*
X021670Y022942D01*
X021670Y022824D02*
X021670Y022824D01*
X021670Y022705D02*
X021670Y022705D01*
X021670Y022587D02*
X021670Y022587D01*
X021589Y022468D02*
X021759Y022468D01*
X021877Y022350D02*
X021471Y022350D01*
X023471Y022350D02*
X023849Y022350D01*
X023731Y022468D02*
X023589Y022468D01*
X023581Y023061D02*
X023739Y023061D01*
X023858Y023179D02*
X023462Y023179D01*
X024462Y023179D02*
X024858Y023179D01*
X024739Y023061D02*
X024581Y023061D01*
X024589Y022468D02*
X024731Y022468D01*
X024849Y022350D02*
X024471Y022350D01*
X025471Y022350D02*
X025849Y022350D01*
X025731Y022468D02*
X025589Y022468D01*
X025581Y023061D02*
X025739Y023061D01*
X025858Y023179D02*
X025462Y023179D01*
X025390Y023416D02*
X029430Y023416D01*
X029549Y023270D02*
X029250Y022971D01*
X029250Y022549D01*
X029549Y022250D01*
X029971Y022250D01*
X030260Y022539D01*
X030549Y022250D01*
X030971Y022250D01*
X031260Y022539D01*
X031549Y022250D01*
X031971Y022250D01*
X032260Y022539D01*
X032549Y022250D01*
X032711Y022250D01*
X032461Y022000D01*
X027012Y022000D01*
X026924Y021963D01*
X026857Y021896D01*
X019557Y014596D01*
X019520Y014508D01*
X019520Y009983D01*
X019422Y009886D01*
X019362Y009739D01*
X019362Y009581D01*
X019422Y009434D01*
X019534Y009322D01*
X019681Y009262D01*
X019839Y009262D01*
X019986Y009322D01*
X020062Y009399D01*
X020062Y009381D01*
X020122Y009234D01*
X020234Y009122D01*
X020381Y009062D01*
X020539Y009062D01*
X020686Y009122D01*
X020798Y009234D01*
X020858Y009381D01*
X020858Y009539D01*
X020798Y009686D01*
X020686Y009798D01*
X020600Y009833D01*
X020600Y014261D01*
X027359Y021020D01*
X032908Y021020D01*
X032996Y021057D01*
X033063Y021124D01*
X033963Y022024D01*
X034000Y022112D01*
X034000Y022279D01*
X034260Y022539D01*
X034549Y022250D01*
X034971Y022250D01*
X035260Y022539D01*
X035549Y022250D01*
X035971Y022250D01*
X036260Y022539D01*
X036549Y022250D01*
X036971Y022250D01*
X037270Y022549D01*
X037270Y022971D01*
X036971Y023270D01*
X036549Y023270D01*
X036260Y022981D01*
X035971Y023270D01*
X035549Y023270D01*
X035260Y022981D01*
X034976Y023265D01*
X034963Y023296D01*
X034896Y023363D01*
X034596Y023663D01*
X034508Y023700D01*
X033512Y023700D01*
X033424Y023663D01*
X033357Y023596D01*
X033057Y023296D01*
X033024Y023217D01*
X032971Y023270D01*
X032549Y023270D01*
X032260Y022981D01*
X031971Y023270D01*
X031549Y023270D01*
X031260Y022981D01*
X030971Y023270D01*
X030549Y023270D01*
X030260Y022981D01*
X029971Y023270D01*
X029549Y023270D01*
X029458Y023179D02*
X028462Y023179D01*
X028581Y023061D02*
X029339Y023061D01*
X029250Y022942D02*
X028670Y022942D01*
X028670Y022824D02*
X029250Y022824D01*
X029250Y022705D02*
X028670Y022705D01*
X028670Y022587D02*
X029250Y022587D01*
X029331Y022468D02*
X028589Y022468D01*
X028471Y022350D02*
X029449Y022350D01*
X030071Y022350D02*
X030449Y022350D01*
X030331Y022468D02*
X030189Y022468D01*
X030181Y023061D02*
X030339Y023061D01*
X030458Y023179D02*
X030062Y023179D01*
X031062Y023179D02*
X031458Y023179D01*
X031339Y023061D02*
X031181Y023061D01*
X031189Y022468D02*
X031331Y022468D01*
X031449Y022350D02*
X031071Y022350D01*
X032071Y022350D02*
X032449Y022350D01*
X032331Y022468D02*
X032189Y022468D01*
X032573Y022113D02*
X012120Y022113D01*
X012120Y022231D02*
X032692Y022231D01*
X032560Y021760D02*
X033260Y022460D01*
X033260Y023160D01*
X033560Y023460D01*
X034460Y023460D01*
X034760Y023160D01*
X034760Y022760D01*
X035071Y022350D02*
X035449Y022350D01*
X035331Y022468D02*
X035189Y022468D01*
X035181Y023061D02*
X035339Y023061D01*
X035458Y023179D02*
X035062Y023179D01*
X034962Y023298D02*
X037072Y023298D01*
X037062Y023179D02*
X037190Y023179D01*
X037181Y023061D02*
X037309Y023061D01*
X037270Y022942D02*
X037400Y022942D01*
X037400Y022824D02*
X037270Y022824D01*
X037270Y022705D02*
X037400Y022705D01*
X037400Y022587D02*
X037270Y022587D01*
X037189Y022468D02*
X037400Y022468D01*
X037400Y022350D02*
X037071Y022350D01*
X037400Y022231D02*
X034000Y022231D01*
X034000Y022113D02*
X037400Y022113D01*
X037400Y021994D02*
X033933Y021994D01*
X033815Y021876D02*
X037400Y021876D01*
X037400Y021757D02*
X033696Y021757D01*
X033578Y021639D02*
X037400Y021639D01*
X037400Y021520D02*
X033459Y021520D01*
X033341Y021402D02*
X037400Y021402D01*
X037400Y021283D02*
X033222Y021283D01*
X033104Y021165D02*
X037400Y021165D01*
X037400Y021046D02*
X032971Y021046D01*
X032860Y021260D02*
X027260Y021260D01*
X020360Y014360D01*
X020360Y009560D01*
X020460Y009460D01*
X020831Y009315D02*
X029820Y009315D01*
X029820Y009433D02*
X020858Y009433D01*
X020853Y009552D02*
X029820Y009552D01*
X029820Y009670D02*
X020804Y009670D01*
X020694Y009789D02*
X029820Y009789D01*
X029820Y009907D02*
X020600Y009907D01*
X020600Y010026D02*
X029820Y010026D01*
X029820Y010144D02*
X020600Y010144D01*
X020600Y010263D02*
X029820Y010263D01*
X029820Y010381D02*
X020600Y010381D01*
X020600Y010500D02*
X029820Y010500D01*
X029820Y010618D02*
X020600Y010618D01*
X020600Y010737D02*
X029820Y010737D01*
X029820Y010855D02*
X020600Y010855D01*
X020600Y010974D02*
X029820Y010974D01*
X029820Y011092D02*
X020600Y011092D01*
X020600Y011211D02*
X029820Y011211D01*
X029820Y011329D02*
X020600Y011329D01*
X020600Y011448D02*
X029820Y011448D01*
X029820Y011566D02*
X020600Y011566D01*
X020600Y011685D02*
X029820Y011685D01*
X029820Y011803D02*
X020600Y011803D01*
X020600Y011922D02*
X029820Y011922D01*
X029820Y012040D02*
X020600Y012040D01*
X020600Y012159D02*
X029820Y012159D01*
X029820Y012277D02*
X020600Y012277D01*
X020600Y012396D02*
X029820Y012396D01*
X029820Y012514D02*
X020600Y012514D01*
X020600Y012633D02*
X029820Y012633D01*
X029820Y012751D02*
X020600Y012751D01*
X020600Y012870D02*
X029820Y012870D01*
X029820Y012988D02*
X020600Y012988D01*
X020600Y013107D02*
X029820Y013107D01*
X029820Y013225D02*
X029264Y013225D01*
X029332Y013253D02*
X029467Y013388D01*
X029540Y013565D01*
X029540Y014355D01*
X029467Y014532D01*
X029332Y014667D01*
X029300Y014680D01*
X029300Y016640D01*
X029332Y016653D01*
X029467Y016788D01*
X029540Y016965D01*
X029540Y017755D01*
X029467Y017932D01*
X029369Y018030D01*
X029659Y018320D01*
X034461Y018320D01*
X034520Y018261D01*
X034520Y018080D01*
X034488Y018067D01*
X034353Y017932D01*
X034280Y017755D01*
X034280Y016965D01*
X034353Y016788D01*
X034488Y016653D01*
X034665Y016580D01*
X034855Y016580D01*
X035032Y016653D01*
X035167Y016788D01*
X035240Y016965D01*
X035240Y017755D01*
X035167Y017932D01*
X035032Y018067D01*
X035000Y018080D01*
X035000Y018408D01*
X034963Y018496D01*
X034763Y018696D01*
X034696Y018763D01*
X034608Y018800D01*
X032663Y018800D01*
X032698Y018834D01*
X032758Y018981D01*
X032758Y019139D01*
X032698Y019286D01*
X032586Y019398D01*
X032439Y019458D01*
X032281Y019458D01*
X032134Y019398D01*
X032097Y019360D01*
X027500Y019360D01*
X027390Y019314D01*
X026890Y018814D01*
X026806Y018730D01*
X026760Y018620D01*
X026760Y018039D01*
X026653Y017932D01*
X026580Y017755D01*
X026580Y016965D01*
X026653Y016788D01*
X026788Y016653D01*
X026965Y016580D01*
X027155Y016580D01*
X027332Y016653D01*
X027467Y016788D01*
X027540Y016965D01*
X027540Y017755D01*
X027467Y017932D01*
X027360Y018039D01*
X027360Y018436D01*
X027684Y018760D01*
X029421Y018760D01*
X028924Y018263D01*
X028857Y018196D01*
X028820Y018108D01*
X028820Y018080D01*
X028788Y018067D01*
X028653Y017932D01*
X028580Y017755D01*
X028580Y016965D01*
X028653Y016788D01*
X028788Y016653D01*
X028820Y016640D01*
X028820Y014680D01*
X028788Y014667D01*
X028653Y014532D01*
X028580Y014355D01*
X028580Y013565D01*
X028653Y013388D01*
X028788Y013253D01*
X028965Y013180D01*
X029155Y013180D01*
X029332Y013253D01*
X029422Y013344D02*
X029698Y013344D01*
X029653Y013388D02*
X029788Y013253D01*
X029820Y013240D01*
X029820Y005412D01*
X029857Y005324D01*
X031250Y003931D01*
X031250Y003549D01*
X031549Y003250D01*
X031971Y003250D01*
X032260Y003539D01*
X032549Y003250D01*
X032971Y003250D01*
X033260Y003539D01*
X033549Y003250D01*
X033971Y003250D01*
X034260Y003539D01*
X034549Y003250D01*
X034971Y003250D01*
X035260Y003539D01*
X035549Y003250D01*
X035971Y003250D01*
X036260Y003539D01*
X036549Y003250D01*
X036971Y003250D01*
X037270Y003549D01*
X037270Y003971D01*
X036971Y004270D01*
X036589Y004270D01*
X036500Y004359D01*
X036500Y006208D01*
X036463Y006296D01*
X036396Y006363D01*
X035000Y007759D01*
X035000Y013240D01*
X035032Y013253D01*
X035167Y013388D01*
X035240Y013565D01*
X035240Y014355D01*
X035167Y014532D01*
X035032Y014667D01*
X034855Y014740D01*
X034665Y014740D01*
X034488Y014667D01*
X034353Y014532D01*
X034280Y014355D01*
X034280Y013565D01*
X034353Y013388D01*
X034488Y013253D01*
X034520Y013240D01*
X034520Y007612D01*
X034557Y007524D01*
X036020Y006061D01*
X036020Y004221D01*
X035971Y004270D01*
X035549Y004270D01*
X035260Y003981D01*
X035000Y004241D01*
X035000Y006408D01*
X034963Y006496D01*
X034896Y006563D01*
X032200Y009259D01*
X032200Y014561D01*
X032759Y015120D01*
X035408Y015120D01*
X035496Y015157D01*
X035563Y015224D01*
X035963Y015624D01*
X036000Y015712D01*
X036000Y016640D01*
X036032Y016653D01*
X036167Y016788D01*
X036240Y016965D01*
X036240Y017755D01*
X036167Y017932D01*
X036032Y018067D01*
X035855Y018140D01*
X035665Y018140D01*
X035488Y018067D01*
X035353Y017932D01*
X035280Y017755D01*
X035280Y016965D01*
X035353Y016788D01*
X035488Y016653D01*
X035520Y016640D01*
X035520Y015859D01*
X035261Y015600D01*
X032612Y015600D01*
X032524Y015563D01*
X031824Y014863D01*
X031757Y014796D01*
X031720Y014708D01*
X031720Y014639D01*
X030300Y016059D01*
X030300Y016640D01*
X030332Y016653D01*
X030467Y016788D01*
X030540Y016965D01*
X030540Y017755D01*
X030467Y017932D01*
X030332Y018067D01*
X030155Y018140D01*
X029965Y018140D01*
X029788Y018067D01*
X029653Y017932D01*
X029580Y017755D01*
X029580Y016965D01*
X029653Y016788D01*
X029788Y016653D01*
X029820Y016640D01*
X029820Y015912D01*
X029857Y015824D01*
X031420Y014261D01*
X031420Y008612D01*
X031457Y008524D01*
X033520Y006461D01*
X033520Y004241D01*
X033260Y003981D01*
X032971Y004270D01*
X032900Y004270D01*
X032900Y006137D01*
X032998Y006234D01*
X033058Y006381D01*
X033058Y006539D01*
X032998Y006686D01*
X032886Y006798D01*
X032739Y006858D01*
X032581Y006858D01*
X032434Y006798D01*
X032322Y006686D01*
X032262Y006539D01*
X032262Y006381D01*
X032322Y006234D01*
X032420Y006137D01*
X032420Y004141D01*
X032260Y003981D01*
X031971Y004270D01*
X031589Y004270D01*
X030300Y005559D01*
X030300Y013240D01*
X030332Y013253D01*
X030467Y013388D01*
X030540Y013565D01*
X030540Y014355D01*
X030467Y014532D01*
X030332Y014667D01*
X030155Y014740D01*
X029965Y014740D01*
X029788Y014667D01*
X029653Y014532D01*
X029580Y014355D01*
X029580Y013565D01*
X029653Y013388D01*
X029622Y013462D02*
X029498Y013462D01*
X029540Y013581D02*
X029580Y013581D01*
X029580Y013699D02*
X029540Y013699D01*
X029540Y013818D02*
X029580Y013818D01*
X029580Y013936D02*
X029540Y013936D01*
X029540Y014055D02*
X029580Y014055D01*
X029580Y014173D02*
X029540Y014173D01*
X029540Y014292D02*
X029580Y014292D01*
X029603Y014410D02*
X029517Y014410D01*
X029468Y014529D02*
X029652Y014529D01*
X029768Y014647D02*
X029352Y014647D01*
X029300Y014766D02*
X030915Y014766D01*
X030797Y014884D02*
X029300Y014884D01*
X029300Y015003D02*
X030678Y015003D01*
X030560Y015121D02*
X029300Y015121D01*
X029300Y015240D02*
X030441Y015240D01*
X030323Y015358D02*
X029300Y015358D01*
X029300Y015477D02*
X030204Y015477D01*
X030086Y015595D02*
X029300Y015595D01*
X029300Y015714D02*
X029967Y015714D01*
X029853Y015832D02*
X029300Y015832D01*
X029300Y015951D02*
X029820Y015951D01*
X029820Y016069D02*
X029300Y016069D01*
X029300Y016188D02*
X029820Y016188D01*
X029820Y016306D02*
X029300Y016306D01*
X029300Y016425D02*
X029820Y016425D01*
X029820Y016543D02*
X029300Y016543D01*
X029340Y016662D02*
X029780Y016662D01*
X029661Y016780D02*
X029459Y016780D01*
X029513Y016899D02*
X029607Y016899D01*
X029580Y017017D02*
X029540Y017017D01*
X029540Y017136D02*
X029580Y017136D01*
X029580Y017254D02*
X029540Y017254D01*
X029540Y017373D02*
X029580Y017373D01*
X029580Y017491D02*
X029540Y017491D01*
X029540Y017610D02*
X029580Y017610D01*
X029580Y017728D02*
X029540Y017728D01*
X029502Y017847D02*
X029618Y017847D01*
X029686Y017965D02*
X029434Y017965D01*
X029423Y018084D02*
X029828Y018084D01*
X029541Y018202D02*
X034520Y018202D01*
X034520Y018084D02*
X033942Y018084D01*
X033937Y018086D02*
X033868Y018109D01*
X033800Y018119D01*
X033800Y017400D01*
X034220Y017400D01*
X034220Y017696D01*
X034209Y017768D01*
X034186Y017837D01*
X034153Y017901D01*
X034111Y017960D01*
X034060Y018011D01*
X034001Y018053D01*
X033937Y018086D01*
X033800Y018084D02*
X033720Y018084D01*
X033720Y018119D02*
X033652Y018109D01*
X033583Y018086D01*
X033519Y018053D01*
X033460Y018011D01*
X033409Y017960D01*
X033367Y017901D01*
X033334Y017837D01*
X033311Y017768D01*
X033300Y017696D01*
X033300Y017400D01*
X033720Y017400D01*
X033720Y018119D01*
X033578Y018084D02*
X032992Y018084D01*
X033032Y018067D02*
X032855Y018140D01*
X032665Y018140D01*
X032488Y018067D01*
X032353Y017932D01*
X032280Y017755D01*
X032280Y016965D01*
X032353Y016788D01*
X032488Y016653D01*
X032665Y016580D01*
X032855Y016580D01*
X033032Y016653D01*
X033167Y016788D01*
X033240Y016965D01*
X033240Y017755D01*
X033167Y017932D01*
X033032Y018067D01*
X033134Y017965D02*
X033414Y017965D01*
X033339Y017847D02*
X033202Y017847D01*
X033240Y017728D02*
X033305Y017728D01*
X033300Y017610D02*
X033240Y017610D01*
X033240Y017491D02*
X033300Y017491D01*
X033240Y017373D02*
X033720Y017373D01*
X033720Y017400D02*
X033720Y017320D01*
X033800Y017320D01*
X033800Y017400D01*
X033720Y017400D01*
X033720Y017320D02*
X033300Y017320D01*
X033300Y017024D01*
X033311Y016952D01*
X033334Y016883D01*
X033367Y016819D01*
X033409Y016760D01*
X033460Y016709D01*
X033519Y016667D01*
X033583Y016634D01*
X033652Y016611D01*
X033720Y016601D01*
X033720Y017320D01*
X033720Y017254D02*
X033800Y017254D01*
X033800Y017320D02*
X033800Y016601D01*
X033868Y016611D01*
X033937Y016634D01*
X034001Y016667D01*
X034060Y016709D01*
X034111Y016760D01*
X034153Y016819D01*
X034186Y016883D01*
X034209Y016952D01*
X034220Y017024D01*
X034220Y017320D01*
X033800Y017320D01*
X033800Y017373D02*
X034280Y017373D01*
X034280Y017491D02*
X034220Y017491D01*
X034220Y017610D02*
X034280Y017610D01*
X034280Y017728D02*
X034215Y017728D01*
X034181Y017847D02*
X034318Y017847D01*
X034386Y017965D02*
X034106Y017965D01*
X033800Y017965D02*
X033720Y017965D01*
X033720Y017847D02*
X033800Y017847D01*
X033800Y017728D02*
X033720Y017728D01*
X033720Y017610D02*
X033800Y017610D01*
X033800Y017491D02*
X033720Y017491D01*
X033720Y017136D02*
X033800Y017136D01*
X033800Y017017D02*
X033720Y017017D01*
X033720Y016899D02*
X033800Y016899D01*
X033800Y016780D02*
X033720Y016780D01*
X033720Y016662D02*
X033800Y016662D01*
X033991Y016662D02*
X034480Y016662D01*
X034361Y016780D02*
X034125Y016780D01*
X034191Y016899D02*
X034307Y016899D01*
X034280Y017017D02*
X034219Y017017D01*
X034220Y017136D02*
X034280Y017136D01*
X034280Y017254D02*
X034220Y017254D01*
X034760Y017360D02*
X034760Y018360D01*
X034560Y018560D01*
X029560Y018560D01*
X029060Y018060D01*
X029060Y017360D01*
X029060Y013960D01*
X028580Y013936D02*
X028100Y013936D01*
X028100Y013920D02*
X028100Y014000D01*
X028520Y014000D01*
X028520Y014296D01*
X028509Y014368D01*
X028486Y014437D01*
X028453Y014501D01*
X028411Y014560D01*
X028360Y014611D01*
X028301Y014653D01*
X028237Y014686D01*
X028168Y014709D01*
X028100Y014719D01*
X028100Y014000D01*
X028020Y014000D01*
X028020Y014719D01*
X027952Y014709D01*
X027883Y014686D01*
X027819Y014653D01*
X027760Y014611D01*
X027709Y014560D01*
X027667Y014501D01*
X027634Y014437D01*
X027611Y014368D01*
X027600Y014296D01*
X027600Y014000D01*
X028020Y014000D01*
X028020Y013920D01*
X028100Y013920D01*
X028520Y013920D01*
X028520Y013624D01*
X028509Y013552D01*
X028486Y013483D01*
X028453Y013419D01*
X028411Y013360D01*
X028360Y013309D01*
X028301Y013267D01*
X028237Y013234D01*
X028168Y013211D01*
X028100Y013201D01*
X028100Y013920D01*
X028020Y013920D02*
X028020Y013201D01*
X027952Y013211D01*
X027883Y013234D01*
X027819Y013267D01*
X027760Y013309D01*
X027709Y013360D01*
X027667Y013419D01*
X027634Y013483D01*
X027611Y013552D01*
X027600Y013624D01*
X027600Y013920D01*
X028020Y013920D01*
X028020Y013936D02*
X027540Y013936D01*
X027540Y013818D02*
X027600Y013818D01*
X027600Y013699D02*
X027540Y013699D01*
X027540Y013581D02*
X027607Y013581D01*
X027540Y013565D02*
X027540Y014355D01*
X027467Y014532D01*
X027332Y014667D01*
X027155Y014740D01*
X026965Y014740D01*
X026788Y014667D01*
X026653Y014532D01*
X026580Y014355D01*
X026580Y013565D01*
X026653Y013388D01*
X026788Y013253D01*
X026965Y013180D01*
X027155Y013180D01*
X027332Y013253D01*
X027467Y013388D01*
X027540Y013565D01*
X027498Y013462D02*
X027645Y013462D01*
X027726Y013344D02*
X027422Y013344D01*
X027264Y013225D02*
X027910Y013225D01*
X028020Y013225D02*
X028100Y013225D01*
X028210Y013225D02*
X028856Y013225D01*
X028698Y013344D02*
X028394Y013344D01*
X028475Y013462D02*
X028622Y013462D01*
X028580Y013581D02*
X028513Y013581D01*
X028520Y013699D02*
X028580Y013699D01*
X028580Y013818D02*
X028520Y013818D01*
X028520Y014055D02*
X028580Y014055D01*
X028580Y014173D02*
X028520Y014173D01*
X028520Y014292D02*
X028580Y014292D01*
X028603Y014410D02*
X028495Y014410D01*
X028433Y014529D02*
X028652Y014529D01*
X028768Y014647D02*
X028310Y014647D01*
X028100Y014647D02*
X028020Y014647D01*
X028020Y014529D02*
X028100Y014529D01*
X028100Y014410D02*
X028020Y014410D01*
X028020Y014292D02*
X028100Y014292D01*
X028100Y014173D02*
X028020Y014173D01*
X028020Y014055D02*
X028100Y014055D01*
X028100Y013818D02*
X028020Y013818D01*
X028020Y013699D02*
X028100Y013699D01*
X028100Y013581D02*
X028020Y013581D01*
X028020Y013462D02*
X028100Y013462D01*
X028100Y013344D02*
X028020Y013344D01*
X027600Y014055D02*
X027540Y014055D01*
X027540Y014173D02*
X027600Y014173D01*
X027600Y014292D02*
X027540Y014292D01*
X027517Y014410D02*
X027625Y014410D01*
X027687Y014529D02*
X027468Y014529D01*
X027352Y014647D02*
X027810Y014647D01*
X028820Y014766D02*
X021105Y014766D01*
X021223Y014884D02*
X028820Y014884D01*
X028820Y015003D02*
X021342Y015003D01*
X021460Y015121D02*
X028820Y015121D01*
X028820Y015240D02*
X021579Y015240D01*
X021697Y015358D02*
X028820Y015358D01*
X028820Y015477D02*
X021816Y015477D01*
X021934Y015595D02*
X028820Y015595D01*
X028820Y015714D02*
X022053Y015714D01*
X022171Y015832D02*
X028820Y015832D01*
X028820Y015951D02*
X022290Y015951D01*
X022408Y016069D02*
X028820Y016069D01*
X028820Y016188D02*
X022527Y016188D01*
X022645Y016306D02*
X028820Y016306D01*
X028820Y016425D02*
X022764Y016425D01*
X022882Y016543D02*
X028820Y016543D01*
X028780Y016662D02*
X028291Y016662D01*
X028301Y016667D02*
X028360Y016709D01*
X028411Y016760D01*
X028453Y016819D01*
X028486Y016883D01*
X028509Y016952D01*
X028520Y017024D01*
X028520Y017320D01*
X028100Y017320D01*
X028100Y017400D01*
X028520Y017400D01*
X028520Y017696D01*
X028509Y017768D01*
X028486Y017837D01*
X028453Y017901D01*
X028411Y017960D01*
X028360Y018011D01*
X028301Y018053D01*
X028237Y018086D01*
X028168Y018109D01*
X028100Y018119D01*
X028100Y017400D01*
X028020Y017400D01*
X028020Y018119D01*
X027952Y018109D01*
X027883Y018086D01*
X027819Y018053D01*
X027760Y018011D01*
X027709Y017960D01*
X027667Y017901D01*
X027634Y017837D01*
X027611Y017768D01*
X027600Y017696D01*
X027600Y017400D01*
X028020Y017400D01*
X028020Y017320D01*
X028100Y017320D01*
X028100Y016601D01*
X028168Y016611D01*
X028237Y016634D01*
X028301Y016667D01*
X028425Y016780D02*
X028661Y016780D01*
X028607Y016899D02*
X028491Y016899D01*
X028519Y017017D02*
X028580Y017017D01*
X028580Y017136D02*
X028520Y017136D01*
X028520Y017254D02*
X028580Y017254D01*
X028580Y017373D02*
X028100Y017373D01*
X028020Y017373D02*
X027540Y017373D01*
X027600Y017320D02*
X027600Y017024D01*
X027611Y016952D01*
X027634Y016883D01*
X027667Y016819D01*
X027709Y016760D01*
X027760Y016709D01*
X027819Y016667D01*
X027883Y016634D01*
X027952Y016611D01*
X028020Y016601D01*
X028020Y017320D01*
X027600Y017320D01*
X027600Y017254D02*
X027540Y017254D01*
X027540Y017136D02*
X027600Y017136D01*
X027601Y017017D02*
X027540Y017017D01*
X027513Y016899D02*
X027629Y016899D01*
X027695Y016780D02*
X027459Y016780D01*
X027340Y016662D02*
X027829Y016662D01*
X028020Y016662D02*
X028100Y016662D01*
X028100Y016780D02*
X028020Y016780D01*
X028020Y016899D02*
X028100Y016899D01*
X028100Y017017D02*
X028020Y017017D01*
X028020Y017136D02*
X028100Y017136D01*
X028100Y017254D02*
X028020Y017254D01*
X028020Y017491D02*
X028100Y017491D01*
X028100Y017610D02*
X028020Y017610D01*
X028020Y017728D02*
X028100Y017728D01*
X028100Y017847D02*
X028020Y017847D01*
X028020Y017965D02*
X028100Y017965D01*
X028100Y018084D02*
X028020Y018084D01*
X027878Y018084D02*
X027360Y018084D01*
X027360Y018202D02*
X028863Y018202D01*
X028820Y018084D02*
X028242Y018084D01*
X028406Y017965D02*
X028686Y017965D01*
X028618Y017847D02*
X028481Y017847D01*
X028515Y017728D02*
X028580Y017728D01*
X028580Y017610D02*
X028520Y017610D01*
X028520Y017491D02*
X028580Y017491D01*
X027714Y017965D02*
X027434Y017965D01*
X027502Y017847D02*
X027639Y017847D01*
X027605Y017728D02*
X027540Y017728D01*
X027540Y017610D02*
X027600Y017610D01*
X027600Y017491D02*
X027540Y017491D01*
X026580Y017491D02*
X023830Y017491D01*
X023712Y017373D02*
X026580Y017373D01*
X026580Y017254D02*
X023593Y017254D01*
X023475Y017136D02*
X026580Y017136D01*
X026580Y017017D02*
X023356Y017017D01*
X023238Y016899D02*
X026607Y016899D01*
X026661Y016780D02*
X023119Y016780D01*
X023001Y016662D02*
X026780Y016662D01*
X026580Y017610D02*
X023949Y017610D01*
X024067Y017728D02*
X026580Y017728D01*
X026618Y017847D02*
X024186Y017847D01*
X024304Y017965D02*
X026686Y017965D01*
X026760Y018084D02*
X024423Y018084D01*
X024541Y018202D02*
X026760Y018202D01*
X026760Y018321D02*
X024660Y018321D01*
X024778Y018439D02*
X026760Y018439D01*
X026760Y018558D02*
X024897Y018558D01*
X025015Y018676D02*
X026783Y018676D01*
X026870Y018795D02*
X025134Y018795D01*
X025252Y018913D02*
X026989Y018913D01*
X027107Y019032D02*
X025371Y019032D01*
X025489Y019150D02*
X027226Y019150D01*
X027344Y019269D02*
X025608Y019269D01*
X025726Y019387D02*
X032124Y019387D01*
X032596Y019387D02*
X036622Y019387D01*
X036606Y019269D02*
X032705Y019269D01*
X032754Y019150D02*
X036614Y019150D01*
X036664Y019032D02*
X032758Y019032D01*
X032730Y018913D02*
X036765Y018913D01*
X037355Y018913D02*
X037400Y018913D01*
X037400Y018795D02*
X034621Y018795D01*
X034763Y018696D02*
X034763Y018696D01*
X034783Y018676D02*
X037400Y018676D01*
X037405Y018558D02*
X034902Y018558D01*
X034987Y018439D02*
X037454Y018439D01*
X037549Y018321D02*
X035000Y018321D01*
X035000Y018202D02*
X037667Y018202D01*
X037786Y018084D02*
X035992Y018084D01*
X036134Y017965D02*
X037904Y017965D01*
X038023Y017847D02*
X036202Y017847D01*
X036240Y017728D02*
X038141Y017728D01*
X038260Y017610D02*
X036240Y017610D01*
X036240Y017491D02*
X038378Y017491D01*
X038400Y017373D02*
X036240Y017373D01*
X036240Y017254D02*
X038400Y017254D01*
X038400Y017136D02*
X036240Y017136D01*
X036240Y017017D02*
X038400Y017017D01*
X038400Y016899D02*
X036213Y016899D01*
X036159Y016780D02*
X038400Y016780D01*
X038400Y016662D02*
X036040Y016662D01*
X036000Y016543D02*
X038400Y016543D01*
X038400Y016425D02*
X036000Y016425D01*
X036000Y016306D02*
X038400Y016306D01*
X038400Y016188D02*
X036000Y016188D01*
X036000Y016069D02*
X038400Y016069D01*
X038400Y015951D02*
X036000Y015951D01*
X036000Y015832D02*
X038400Y015832D01*
X038400Y015714D02*
X036000Y015714D01*
X035934Y015595D02*
X038400Y015595D01*
X038400Y015477D02*
X035816Y015477D01*
X035697Y015358D02*
X038400Y015358D01*
X038400Y015240D02*
X035579Y015240D01*
X035410Y015121D02*
X038400Y015121D01*
X038400Y015003D02*
X032642Y015003D01*
X032523Y014884D02*
X038400Y014884D01*
X038400Y014766D02*
X032405Y014766D01*
X032488Y014667D02*
X032353Y014532D01*
X032280Y014355D01*
X032280Y013565D01*
X032353Y013388D01*
X032488Y013253D01*
X032665Y013180D01*
X032855Y013180D01*
X033032Y013253D01*
X033167Y013388D01*
X033240Y013565D01*
X033240Y014355D01*
X033167Y014532D01*
X033032Y014667D01*
X032855Y014740D01*
X032665Y014740D01*
X032488Y014667D01*
X032468Y014647D02*
X032286Y014647D01*
X032352Y014529D02*
X032200Y014529D01*
X032200Y014410D02*
X032303Y014410D01*
X032280Y014292D02*
X032200Y014292D01*
X032200Y014173D02*
X032280Y014173D01*
X032280Y014055D02*
X032200Y014055D01*
X032200Y013936D02*
X032280Y013936D01*
X032280Y013818D02*
X032200Y013818D01*
X032200Y013699D02*
X032280Y013699D01*
X032280Y013581D02*
X032200Y013581D01*
X032200Y013462D02*
X032322Y013462D01*
X032398Y013344D02*
X032200Y013344D01*
X032200Y013225D02*
X032556Y013225D01*
X032200Y013107D02*
X034520Y013107D01*
X034520Y013225D02*
X033910Y013225D01*
X033937Y013234D02*
X034001Y013267D01*
X034060Y013309D01*
X034111Y013360D01*
X034153Y013419D01*
X034186Y013483D01*
X034209Y013552D01*
X034220Y013624D01*
X034220Y013920D01*
X033800Y013920D01*
X033800Y014000D01*
X034220Y014000D01*
X034220Y014296D01*
X034209Y014368D01*
X034186Y014437D01*
X034153Y014501D01*
X034111Y014560D01*
X034060Y014611D01*
X034001Y014653D01*
X033937Y014686D01*
X033868Y014709D01*
X033800Y014719D01*
X033800Y014000D01*
X033720Y014000D01*
X033720Y014719D01*
X033652Y014709D01*
X033583Y014686D01*
X033519Y014653D01*
X033460Y014611D01*
X033409Y014560D01*
X033367Y014501D01*
X033334Y014437D01*
X033311Y014368D01*
X033300Y014296D01*
X033300Y014000D01*
X033720Y014000D01*
X033720Y013920D01*
X033800Y013920D01*
X033800Y013201D01*
X033868Y013211D01*
X033937Y013234D01*
X033800Y013225D02*
X033720Y013225D01*
X033720Y013201D02*
X033720Y013920D01*
X033300Y013920D01*
X033300Y013624D01*
X033311Y013552D01*
X033334Y013483D01*
X033367Y013419D01*
X033409Y013360D01*
X033460Y013309D01*
X033519Y013267D01*
X033583Y013234D01*
X033652Y013211D01*
X033720Y013201D01*
X033610Y013225D02*
X032964Y013225D01*
X033122Y013344D02*
X033426Y013344D01*
X033345Y013462D02*
X033198Y013462D01*
X033240Y013581D02*
X033307Y013581D01*
X033300Y013699D02*
X033240Y013699D01*
X033240Y013818D02*
X033300Y013818D01*
X033240Y013936D02*
X033720Y013936D01*
X033800Y013936D02*
X034280Y013936D01*
X034280Y013818D02*
X034220Y013818D01*
X034220Y013699D02*
X034280Y013699D01*
X034280Y013581D02*
X034213Y013581D01*
X034175Y013462D02*
X034322Y013462D01*
X034398Y013344D02*
X034094Y013344D01*
X033800Y013344D02*
X033720Y013344D01*
X033720Y013462D02*
X033800Y013462D01*
X033800Y013581D02*
X033720Y013581D01*
X033720Y013699D02*
X033800Y013699D01*
X033800Y013818D02*
X033720Y013818D01*
X033720Y014055D02*
X033800Y014055D01*
X033800Y014173D02*
X033720Y014173D01*
X033720Y014292D02*
X033800Y014292D01*
X033800Y014410D02*
X033720Y014410D01*
X033720Y014529D02*
X033800Y014529D01*
X033800Y014647D02*
X033720Y014647D01*
X033510Y014647D02*
X033052Y014647D01*
X033168Y014529D02*
X033387Y014529D01*
X033325Y014410D02*
X033217Y014410D01*
X033240Y014292D02*
X033300Y014292D01*
X033300Y014173D02*
X033240Y014173D01*
X033240Y014055D02*
X033300Y014055D01*
X034220Y014055D02*
X034280Y014055D01*
X034280Y014173D02*
X034220Y014173D01*
X034220Y014292D02*
X034280Y014292D01*
X034303Y014410D02*
X034195Y014410D01*
X034133Y014529D02*
X034352Y014529D01*
X034468Y014647D02*
X034010Y014647D01*
X034760Y013960D02*
X034760Y007660D01*
X036260Y006160D01*
X036260Y004260D01*
X036760Y003760D01*
X037111Y003390D02*
X037400Y003390D01*
X037400Y003508D02*
X037229Y003508D01*
X037270Y003627D02*
X037400Y003627D01*
X037400Y003745D02*
X037270Y003745D01*
X037270Y003864D02*
X037405Y003864D01*
X037454Y003982D02*
X037259Y003982D01*
X037141Y004101D02*
X037550Y004101D01*
X037668Y004219D02*
X037022Y004219D01*
X036522Y004338D02*
X037787Y004338D01*
X037905Y004456D02*
X036500Y004456D01*
X036500Y004575D02*
X038024Y004575D01*
X038142Y004693D02*
X036500Y004693D01*
X036500Y004812D02*
X038261Y004812D01*
X038379Y004930D02*
X036500Y004930D01*
X036500Y005049D02*
X038400Y005049D01*
X038400Y005167D02*
X036500Y005167D01*
X036500Y005286D02*
X038400Y005286D01*
X038400Y005404D02*
X036500Y005404D01*
X036500Y005523D02*
X038400Y005523D01*
X038400Y005641D02*
X036500Y005641D01*
X036500Y005760D02*
X038400Y005760D01*
X038400Y005878D02*
X036500Y005878D01*
X036500Y005997D02*
X038400Y005997D01*
X038400Y006115D02*
X036500Y006115D01*
X036489Y006234D02*
X038400Y006234D01*
X038400Y006352D02*
X036407Y006352D01*
X036289Y006471D02*
X038400Y006471D01*
X038400Y006589D02*
X036170Y006589D01*
X036052Y006708D02*
X038400Y006708D01*
X038400Y006826D02*
X035933Y006826D01*
X035815Y006945D02*
X037978Y006945D01*
X037815Y007063D02*
X035696Y007063D01*
X035734Y007222D02*
X035881Y007162D01*
X036039Y007162D01*
X036186Y007222D01*
X036298Y007334D01*
X036358Y007481D01*
X036358Y007639D01*
X036298Y007786D01*
X036186Y007898D01*
X036039Y007958D01*
X036000Y007958D01*
X036000Y013240D01*
X036032Y013253D01*
X036167Y013388D01*
X036240Y013565D01*
X036240Y014355D01*
X036167Y014532D01*
X036032Y014667D01*
X035855Y014740D01*
X035665Y014740D01*
X035488Y014667D01*
X035353Y014532D01*
X035280Y014355D01*
X035280Y013565D01*
X035353Y013388D01*
X035488Y013253D01*
X035520Y013240D01*
X035520Y007712D01*
X035557Y007624D01*
X035562Y007619D01*
X035562Y007481D01*
X035622Y007334D01*
X035734Y007222D01*
X035833Y007182D02*
X035578Y007182D01*
X035657Y007300D02*
X035459Y007300D01*
X035341Y007419D02*
X035588Y007419D01*
X035562Y007537D02*
X035222Y007537D01*
X035104Y007656D02*
X035544Y007656D01*
X035520Y007774D02*
X035000Y007774D01*
X035000Y007893D02*
X035520Y007893D01*
X035520Y008011D02*
X035000Y008011D01*
X035000Y008130D02*
X035520Y008130D01*
X035520Y008248D02*
X035000Y008248D01*
X035000Y008367D02*
X035520Y008367D01*
X035520Y008485D02*
X035000Y008485D01*
X035000Y008604D02*
X035520Y008604D01*
X035520Y008722D02*
X035000Y008722D01*
X035000Y008841D02*
X035520Y008841D01*
X035520Y008959D02*
X035000Y008959D01*
X035000Y009078D02*
X035520Y009078D01*
X035520Y009196D02*
X035000Y009196D01*
X035000Y009315D02*
X035520Y009315D01*
X035520Y009433D02*
X035000Y009433D01*
X035000Y009552D02*
X035520Y009552D01*
X035520Y009670D02*
X035000Y009670D01*
X035000Y009789D02*
X035520Y009789D01*
X035520Y009907D02*
X035000Y009907D01*
X035000Y010026D02*
X035520Y010026D01*
X035520Y010144D02*
X035000Y010144D01*
X035000Y010263D02*
X035520Y010263D01*
X035520Y010381D02*
X035000Y010381D01*
X035000Y010500D02*
X035520Y010500D01*
X035520Y010618D02*
X035000Y010618D01*
X035000Y010737D02*
X035520Y010737D01*
X035520Y010855D02*
X035000Y010855D01*
X035000Y010974D02*
X035520Y010974D01*
X035520Y011092D02*
X035000Y011092D01*
X035000Y011211D02*
X035520Y011211D01*
X035520Y011329D02*
X035000Y011329D01*
X035000Y011448D02*
X035520Y011448D01*
X035520Y011566D02*
X035000Y011566D01*
X035000Y011685D02*
X035520Y011685D01*
X035520Y011803D02*
X035000Y011803D01*
X035000Y011922D02*
X035520Y011922D01*
X035520Y012040D02*
X035000Y012040D01*
X035000Y012159D02*
X035520Y012159D01*
X035520Y012277D02*
X035000Y012277D01*
X035000Y012396D02*
X035520Y012396D01*
X035520Y012514D02*
X035000Y012514D01*
X035000Y012633D02*
X035520Y012633D01*
X035520Y012751D02*
X035000Y012751D01*
X035000Y012870D02*
X035520Y012870D01*
X035520Y012988D02*
X035000Y012988D01*
X035000Y013107D02*
X035520Y013107D01*
X035520Y013225D02*
X035000Y013225D01*
X035122Y013344D02*
X035398Y013344D01*
X035322Y013462D02*
X035198Y013462D01*
X035240Y013581D02*
X035280Y013581D01*
X035280Y013699D02*
X035240Y013699D01*
X035240Y013818D02*
X035280Y013818D01*
X035280Y013936D02*
X035240Y013936D01*
X035240Y014055D02*
X035280Y014055D01*
X035280Y014173D02*
X035240Y014173D01*
X035240Y014292D02*
X035280Y014292D01*
X035303Y014410D02*
X035217Y014410D01*
X035168Y014529D02*
X035352Y014529D01*
X035468Y014647D02*
X035052Y014647D01*
X036052Y014647D02*
X038400Y014647D01*
X038400Y014529D02*
X036168Y014529D01*
X036217Y014410D02*
X038400Y014410D01*
X038400Y014292D02*
X036240Y014292D01*
X036240Y014173D02*
X038400Y014173D01*
X038400Y014055D02*
X036240Y014055D01*
X036240Y013936D02*
X038400Y013936D01*
X038400Y013818D02*
X036240Y013818D01*
X036240Y013699D02*
X038400Y013699D01*
X038400Y013581D02*
X036240Y013581D01*
X036198Y013462D02*
X038400Y013462D01*
X038400Y013344D02*
X036122Y013344D01*
X036000Y013225D02*
X038400Y013225D01*
X038400Y013107D02*
X036000Y013107D01*
X036000Y012988D02*
X038400Y012988D01*
X038400Y012870D02*
X036000Y012870D01*
X036000Y012751D02*
X038400Y012751D01*
X038400Y012633D02*
X036000Y012633D01*
X036000Y012514D02*
X038400Y012514D01*
X038400Y012396D02*
X036000Y012396D01*
X036000Y012277D02*
X038400Y012277D01*
X038400Y012159D02*
X036000Y012159D01*
X036000Y012040D02*
X038400Y012040D01*
X038400Y011922D02*
X036000Y011922D01*
X036000Y011803D02*
X038400Y011803D01*
X038400Y011685D02*
X036000Y011685D01*
X036000Y011566D02*
X038400Y011566D01*
X038400Y011448D02*
X036000Y011448D01*
X036000Y011329D02*
X038400Y011329D01*
X038400Y011211D02*
X036000Y011211D01*
X036000Y011092D02*
X038400Y011092D01*
X038400Y010974D02*
X036000Y010974D01*
X036000Y010855D02*
X038400Y010855D01*
X038400Y010737D02*
X036000Y010737D01*
X036000Y010618D02*
X038400Y010618D01*
X038400Y010500D02*
X036000Y010500D01*
X036000Y010381D02*
X038400Y010381D01*
X038400Y010263D02*
X036000Y010263D01*
X036000Y010144D02*
X038400Y010144D01*
X038400Y010026D02*
X036000Y010026D01*
X036000Y009907D02*
X038400Y009907D01*
X038400Y009789D02*
X036000Y009789D01*
X036000Y009670D02*
X038400Y009670D01*
X038400Y009552D02*
X036000Y009552D01*
X036000Y009433D02*
X038400Y009433D01*
X038400Y009315D02*
X036000Y009315D01*
X036000Y009196D02*
X038400Y009196D01*
X038400Y009078D02*
X036000Y009078D01*
X036000Y008959D02*
X038400Y008959D01*
X038400Y008841D02*
X036000Y008841D01*
X036000Y008722D02*
X038400Y008722D01*
X038400Y008604D02*
X036000Y008604D01*
X036000Y008485D02*
X038400Y008485D01*
X038400Y008367D02*
X036000Y008367D01*
X036000Y008248D02*
X038400Y008248D01*
X038400Y008130D02*
X036000Y008130D01*
X036000Y008011D02*
X038400Y008011D01*
X038400Y007893D02*
X036190Y007893D01*
X036302Y007774D02*
X037974Y007774D01*
X037814Y007656D02*
X036351Y007656D01*
X036358Y007537D02*
X037742Y007537D01*
X037706Y007419D02*
X036332Y007419D01*
X036263Y007300D02*
X037706Y007300D01*
X037743Y007182D02*
X036087Y007182D01*
X035960Y007560D02*
X035760Y007760D01*
X035760Y013960D01*
X034520Y012988D02*
X032200Y012988D01*
X032200Y012870D02*
X034520Y012870D01*
X034520Y012751D02*
X032200Y012751D01*
X032200Y012633D02*
X034520Y012633D01*
X034520Y012514D02*
X032200Y012514D01*
X032200Y012396D02*
X034520Y012396D01*
X034520Y012277D02*
X032200Y012277D01*
X032200Y012159D02*
X034520Y012159D01*
X034520Y012040D02*
X032200Y012040D01*
X032200Y011922D02*
X034520Y011922D01*
X034520Y011803D02*
X032200Y011803D01*
X032200Y011685D02*
X034520Y011685D01*
X034520Y011566D02*
X032200Y011566D01*
X032200Y011448D02*
X034520Y011448D01*
X034520Y011329D02*
X032200Y011329D01*
X032200Y011211D02*
X034520Y011211D01*
X034520Y011092D02*
X032200Y011092D01*
X032200Y010974D02*
X034520Y010974D01*
X034520Y010855D02*
X032200Y010855D01*
X032200Y010737D02*
X034520Y010737D01*
X034520Y010618D02*
X032200Y010618D01*
X032200Y010500D02*
X034520Y010500D01*
X034520Y010381D02*
X032200Y010381D01*
X032200Y010263D02*
X034520Y010263D01*
X034520Y010144D02*
X032200Y010144D01*
X032200Y010026D02*
X034520Y010026D01*
X034520Y009907D02*
X032200Y009907D01*
X032200Y009789D02*
X034520Y009789D01*
X034520Y009670D02*
X032200Y009670D01*
X032200Y009552D02*
X034520Y009552D01*
X034520Y009433D02*
X032200Y009433D01*
X032200Y009315D02*
X034520Y009315D01*
X034520Y009196D02*
X032263Y009196D01*
X032382Y009078D02*
X034520Y009078D01*
X034520Y008959D02*
X032500Y008959D01*
X032619Y008841D02*
X034520Y008841D01*
X034520Y008722D02*
X032737Y008722D01*
X032856Y008604D02*
X034520Y008604D01*
X034520Y008485D02*
X032974Y008485D01*
X033093Y008367D02*
X034520Y008367D01*
X034520Y008248D02*
X033211Y008248D01*
X033330Y008130D02*
X034520Y008130D01*
X034520Y008011D02*
X033448Y008011D01*
X033567Y007893D02*
X034520Y007893D01*
X034520Y007774D02*
X033685Y007774D01*
X033804Y007656D02*
X034520Y007656D01*
X034551Y007537D02*
X033922Y007537D01*
X034041Y007419D02*
X034662Y007419D01*
X034781Y007300D02*
X034159Y007300D01*
X034278Y007182D02*
X034899Y007182D01*
X035018Y007063D02*
X034396Y007063D01*
X034515Y006945D02*
X035136Y006945D01*
X035255Y006826D02*
X034633Y006826D01*
X034752Y006708D02*
X035373Y006708D01*
X035492Y006589D02*
X034870Y006589D01*
X034974Y006471D02*
X035610Y006471D01*
X035729Y006352D02*
X035000Y006352D01*
X035000Y006234D02*
X035847Y006234D01*
X035966Y006115D02*
X035000Y006115D01*
X035000Y005997D02*
X036020Y005997D01*
X036020Y005878D02*
X035000Y005878D01*
X035000Y005760D02*
X036020Y005760D01*
X036020Y005641D02*
X035000Y005641D01*
X035000Y005523D02*
X036020Y005523D01*
X036020Y005404D02*
X035000Y005404D01*
X035000Y005286D02*
X036020Y005286D01*
X036020Y005167D02*
X035000Y005167D01*
X035000Y005049D02*
X036020Y005049D01*
X036020Y004930D02*
X035000Y004930D01*
X035000Y004812D02*
X036020Y004812D01*
X036020Y004693D02*
X035000Y004693D01*
X035000Y004575D02*
X036020Y004575D01*
X036020Y004456D02*
X035000Y004456D01*
X035000Y004338D02*
X036020Y004338D01*
X035498Y004219D02*
X035022Y004219D01*
X035141Y004101D02*
X035379Y004101D01*
X035261Y003982D02*
X035259Y003982D01*
X035229Y003508D02*
X035291Y003508D01*
X035409Y003390D02*
X035111Y003390D01*
X034992Y003271D02*
X035528Y003271D01*
X035992Y003271D02*
X036528Y003271D01*
X036409Y003390D02*
X036111Y003390D01*
X036229Y003508D02*
X036291Y003508D01*
X036992Y003271D02*
X037400Y003271D01*
X037400Y003153D02*
X012707Y003153D01*
X012714Y003271D02*
X022528Y003271D01*
X022549Y003250D02*
X022971Y003250D01*
X023260Y003539D01*
X023549Y003250D01*
X023971Y003250D01*
X024260Y003539D01*
X024549Y003250D01*
X024971Y003250D01*
X025260Y003539D01*
X025549Y003250D01*
X025971Y003250D01*
X026260Y003539D01*
X026549Y003250D01*
X026971Y003250D01*
X027270Y003549D01*
X027270Y003971D01*
X026971Y004270D01*
X026549Y004270D01*
X026260Y003981D01*
X025971Y004270D01*
X025549Y004270D01*
X025260Y003981D01*
X024971Y004270D01*
X024549Y004270D01*
X024260Y003981D01*
X023971Y004270D01*
X023549Y004270D01*
X023260Y003981D01*
X022971Y004270D01*
X022549Y004270D01*
X022250Y003971D01*
X022250Y003549D01*
X022549Y003250D01*
X022409Y003390D02*
X012697Y003390D01*
X012648Y003508D02*
X022291Y003508D01*
X022250Y003627D02*
X012535Y003627D01*
X012120Y003745D02*
X022250Y003745D01*
X022250Y003864D02*
X012120Y003864D01*
X012120Y003982D02*
X022261Y003982D01*
X022379Y004101D02*
X012120Y004101D01*
X012120Y004219D02*
X022498Y004219D01*
X023022Y004219D02*
X023498Y004219D01*
X023379Y004101D02*
X023141Y004101D01*
X023259Y003982D02*
X023261Y003982D01*
X023291Y003508D02*
X023229Y003508D01*
X023111Y003390D02*
X023409Y003390D01*
X023528Y003271D02*
X022992Y003271D01*
X023992Y003271D02*
X024528Y003271D01*
X024409Y003390D02*
X024111Y003390D01*
X024229Y003508D02*
X024291Y003508D01*
X024261Y003982D02*
X024259Y003982D01*
X024141Y004101D02*
X024379Y004101D01*
X024498Y004219D02*
X024022Y004219D01*
X025022Y004219D02*
X025498Y004219D01*
X025379Y004101D02*
X025141Y004101D01*
X025259Y003982D02*
X025261Y003982D01*
X025291Y003508D02*
X025229Y003508D01*
X025111Y003390D02*
X025409Y003390D01*
X025528Y003271D02*
X024992Y003271D01*
X025992Y003271D02*
X026528Y003271D01*
X026409Y003390D02*
X026111Y003390D01*
X026229Y003508D02*
X026291Y003508D01*
X026261Y003982D02*
X026259Y003982D01*
X026141Y004101D02*
X026379Y004101D01*
X026498Y004219D02*
X026022Y004219D01*
X027022Y004219D02*
X027526Y004219D01*
X027557Y004250D02*
X027270Y003963D01*
X027270Y003798D01*
X027722Y003798D01*
X027722Y003722D01*
X027798Y003722D01*
X027798Y003798D01*
X028250Y003798D01*
X028250Y003963D01*
X027963Y004250D01*
X027798Y004250D01*
X027798Y003798D01*
X027722Y003798D01*
X027722Y004250D01*
X027557Y004250D01*
X027722Y004219D02*
X027798Y004219D01*
X027798Y004101D02*
X027722Y004101D01*
X027722Y003982D02*
X027798Y003982D01*
X027798Y003864D02*
X027722Y003864D01*
X027722Y003745D02*
X027270Y003745D01*
X027270Y003722D02*
X027270Y003557D01*
X027557Y003270D01*
X027722Y003270D01*
X027722Y003722D01*
X027270Y003722D01*
X027270Y003627D02*
X027270Y003627D01*
X027229Y003508D02*
X027319Y003508D01*
X027438Y003390D02*
X027111Y003390D01*
X026992Y003271D02*
X027556Y003271D01*
X027722Y003271D02*
X027798Y003271D01*
X027798Y003270D02*
X027963Y003270D01*
X028250Y003557D01*
X028250Y003722D01*
X027798Y003722D01*
X027798Y003270D01*
X027798Y003390D02*
X027722Y003390D01*
X027722Y003508D02*
X027798Y003508D01*
X027798Y003627D02*
X027722Y003627D01*
X027798Y003745D02*
X028722Y003745D01*
X028722Y003722D02*
X028270Y003722D01*
X028270Y003557D01*
X028557Y003270D01*
X028722Y003270D01*
X028722Y003722D01*
X028798Y003722D01*
X028798Y003798D01*
X029250Y003798D01*
X029250Y003963D01*
X028963Y004250D01*
X028798Y004250D01*
X028798Y003798D01*
X028722Y003798D01*
X028722Y003722D01*
X028798Y003722D02*
X028798Y003270D01*
X028963Y003270D01*
X029250Y003557D01*
X029250Y003722D01*
X028798Y003722D01*
X028798Y003745D02*
X029250Y003745D01*
X029250Y003627D02*
X029250Y003627D01*
X029250Y003549D02*
X029549Y003250D01*
X029971Y003250D01*
X030270Y003549D01*
X030270Y003971D01*
X029971Y004270D01*
X029549Y004270D01*
X029250Y003971D01*
X029250Y003549D01*
X029291Y003508D02*
X029201Y003508D01*
X029082Y003390D02*
X029409Y003390D01*
X029528Y003271D02*
X028964Y003271D01*
X028798Y003271D02*
X028722Y003271D01*
X028722Y003390D02*
X028798Y003390D01*
X028798Y003508D02*
X028722Y003508D01*
X028722Y003627D02*
X028798Y003627D01*
X028722Y003798D02*
X028270Y003798D01*
X028270Y003963D01*
X028557Y004250D01*
X028722Y004250D01*
X028722Y003798D01*
X028722Y003864D02*
X028798Y003864D01*
X028798Y003982D02*
X028722Y003982D01*
X028722Y004101D02*
X028798Y004101D01*
X028798Y004219D02*
X028722Y004219D01*
X028526Y004219D02*
X027994Y004219D01*
X028112Y004101D02*
X028408Y004101D01*
X028289Y003982D02*
X028231Y003982D01*
X028250Y003864D02*
X028270Y003864D01*
X028250Y003627D02*
X028270Y003627D01*
X028319Y003508D02*
X028201Y003508D01*
X028082Y003390D02*
X028438Y003390D01*
X028556Y003271D02*
X027964Y003271D01*
X027270Y003864D02*
X027270Y003864D01*
X027259Y003982D02*
X027289Y003982D01*
X027408Y004101D02*
X027141Y004101D01*
X028994Y004219D02*
X029498Y004219D01*
X029379Y004101D02*
X029112Y004101D01*
X029231Y003982D02*
X029261Y003982D01*
X029250Y003864D02*
X029250Y003864D01*
X030022Y004219D02*
X030962Y004219D01*
X031080Y004101D02*
X030141Y004101D01*
X030259Y003982D02*
X031199Y003982D01*
X031250Y003864D02*
X030270Y003864D01*
X030270Y003745D02*
X031250Y003745D01*
X031250Y003627D02*
X030270Y003627D01*
X030229Y003508D02*
X031291Y003508D01*
X031409Y003390D02*
X030111Y003390D01*
X029992Y003271D02*
X031528Y003271D01*
X031992Y003271D02*
X032528Y003271D01*
X032409Y003390D02*
X032111Y003390D01*
X032229Y003508D02*
X032291Y003508D01*
X032261Y003982D02*
X032259Y003982D01*
X032141Y004101D02*
X032379Y004101D01*
X032420Y004219D02*
X032022Y004219D01*
X032420Y004338D02*
X031522Y004338D01*
X031403Y004456D02*
X032420Y004456D01*
X032420Y004575D02*
X031285Y004575D01*
X031166Y004693D02*
X032420Y004693D01*
X032420Y004812D02*
X031048Y004812D01*
X030929Y004930D02*
X032420Y004930D01*
X032420Y005049D02*
X030811Y005049D01*
X030692Y005167D02*
X032420Y005167D01*
X032420Y005286D02*
X030574Y005286D01*
X030455Y005404D02*
X032420Y005404D01*
X032420Y005523D02*
X030337Y005523D01*
X030300Y005641D02*
X032420Y005641D01*
X032420Y005760D02*
X030300Y005760D01*
X030300Y005878D02*
X032420Y005878D01*
X032420Y005997D02*
X030300Y005997D01*
X030300Y006115D02*
X032420Y006115D01*
X032323Y006234D02*
X030300Y006234D01*
X030300Y006352D02*
X032274Y006352D01*
X032262Y006471D02*
X030300Y006471D01*
X030300Y006589D02*
X032283Y006589D01*
X032344Y006708D02*
X030300Y006708D01*
X030300Y006826D02*
X032503Y006826D01*
X032817Y006826D02*
X033155Y006826D01*
X033273Y006708D02*
X032976Y006708D01*
X033037Y006589D02*
X033392Y006589D01*
X033510Y006471D02*
X033058Y006471D01*
X033046Y006352D02*
X033520Y006352D01*
X033520Y006234D02*
X032997Y006234D01*
X032900Y006115D02*
X033520Y006115D01*
X033520Y005997D02*
X032900Y005997D01*
X032900Y005878D02*
X033520Y005878D01*
X033520Y005760D02*
X032900Y005760D01*
X032900Y005641D02*
X033520Y005641D01*
X033520Y005523D02*
X032900Y005523D01*
X032900Y005404D02*
X033520Y005404D01*
X033520Y005286D02*
X032900Y005286D01*
X032900Y005167D02*
X033520Y005167D01*
X033520Y005049D02*
X032900Y005049D01*
X032900Y004930D02*
X033520Y004930D01*
X033520Y004812D02*
X032900Y004812D01*
X032900Y004693D02*
X033520Y004693D01*
X033520Y004575D02*
X032900Y004575D01*
X032900Y004456D02*
X033520Y004456D01*
X033520Y004338D02*
X032900Y004338D01*
X033022Y004219D02*
X033498Y004219D01*
X033379Y004101D02*
X033141Y004101D01*
X033259Y003982D02*
X033261Y003982D01*
X033291Y003508D02*
X033229Y003508D01*
X033111Y003390D02*
X033409Y003390D01*
X033528Y003271D02*
X032992Y003271D01*
X032760Y003760D02*
X032660Y003860D01*
X032660Y006460D01*
X033036Y006945D02*
X030300Y006945D01*
X030300Y007063D02*
X032918Y007063D01*
X032799Y007182D02*
X030300Y007182D01*
X030300Y007300D02*
X032681Y007300D01*
X032562Y007419D02*
X030300Y007419D01*
X030300Y007537D02*
X032444Y007537D01*
X032325Y007656D02*
X030300Y007656D01*
X030300Y007774D02*
X032207Y007774D01*
X032088Y007893D02*
X030300Y007893D01*
X030300Y008011D02*
X031970Y008011D01*
X031851Y008130D02*
X030300Y008130D01*
X030300Y008248D02*
X031733Y008248D01*
X031614Y008367D02*
X030300Y008367D01*
X030300Y008485D02*
X031496Y008485D01*
X031424Y008604D02*
X030300Y008604D01*
X030300Y008722D02*
X031420Y008722D01*
X031420Y008841D02*
X030300Y008841D01*
X030300Y008959D02*
X031420Y008959D01*
X031420Y009078D02*
X030300Y009078D01*
X030300Y009196D02*
X031420Y009196D01*
X031420Y009315D02*
X030300Y009315D01*
X030300Y009433D02*
X031420Y009433D01*
X031420Y009552D02*
X030300Y009552D01*
X030300Y009670D02*
X031420Y009670D01*
X031420Y009789D02*
X030300Y009789D01*
X030300Y009907D02*
X031420Y009907D01*
X031420Y010026D02*
X030300Y010026D01*
X030300Y010144D02*
X031420Y010144D01*
X031420Y010263D02*
X030300Y010263D01*
X030300Y010381D02*
X031420Y010381D01*
X031420Y010500D02*
X030300Y010500D01*
X030300Y010618D02*
X031420Y010618D01*
X031420Y010737D02*
X030300Y010737D01*
X030300Y010855D02*
X031420Y010855D01*
X031420Y010974D02*
X030300Y010974D01*
X030300Y011092D02*
X031420Y011092D01*
X031420Y011211D02*
X030300Y011211D01*
X030300Y011329D02*
X031420Y011329D01*
X031420Y011448D02*
X030300Y011448D01*
X030300Y011566D02*
X031420Y011566D01*
X031420Y011685D02*
X030300Y011685D01*
X030300Y011803D02*
X031420Y011803D01*
X031420Y011922D02*
X030300Y011922D01*
X030300Y012040D02*
X031420Y012040D01*
X031420Y012159D02*
X030300Y012159D01*
X030300Y012277D02*
X031420Y012277D01*
X031420Y012396D02*
X030300Y012396D01*
X030300Y012514D02*
X031420Y012514D01*
X031420Y012633D02*
X030300Y012633D01*
X030300Y012751D02*
X031420Y012751D01*
X031420Y012870D02*
X030300Y012870D01*
X030300Y012988D02*
X031420Y012988D01*
X031420Y013107D02*
X030300Y013107D01*
X030300Y013225D02*
X031420Y013225D01*
X031420Y013344D02*
X030422Y013344D01*
X030498Y013462D02*
X031420Y013462D01*
X031420Y013581D02*
X030540Y013581D01*
X030540Y013699D02*
X031420Y013699D01*
X031420Y013818D02*
X030540Y013818D01*
X030540Y013936D02*
X031420Y013936D01*
X031420Y014055D02*
X030540Y014055D01*
X030540Y014173D02*
X031420Y014173D01*
X031389Y014292D02*
X030540Y014292D01*
X030517Y014410D02*
X031271Y014410D01*
X031152Y014529D02*
X030468Y014529D01*
X030352Y014647D02*
X031034Y014647D01*
X031357Y015003D02*
X031963Y015003D01*
X032082Y015121D02*
X031238Y015121D01*
X031120Y015240D02*
X032200Y015240D01*
X032319Y015358D02*
X031001Y015358D01*
X030883Y015477D02*
X032437Y015477D01*
X032600Y015595D02*
X030764Y015595D01*
X030646Y015714D02*
X035374Y015714D01*
X035493Y015832D02*
X030527Y015832D01*
X030409Y015951D02*
X035520Y015951D01*
X035520Y016069D02*
X030300Y016069D01*
X030300Y016188D02*
X035520Y016188D01*
X035520Y016306D02*
X030300Y016306D01*
X030300Y016425D02*
X035520Y016425D01*
X035520Y016543D02*
X030300Y016543D01*
X030340Y016662D02*
X032480Y016662D01*
X032361Y016780D02*
X030459Y016780D01*
X030513Y016899D02*
X032307Y016899D01*
X032280Y017017D02*
X030540Y017017D01*
X030540Y017136D02*
X032280Y017136D01*
X032280Y017254D02*
X030540Y017254D01*
X030540Y017373D02*
X032280Y017373D01*
X032280Y017491D02*
X030540Y017491D01*
X030540Y017610D02*
X032280Y017610D01*
X032280Y017728D02*
X030540Y017728D01*
X030502Y017847D02*
X032318Y017847D01*
X032386Y017965D02*
X030434Y017965D01*
X030292Y018084D02*
X032528Y018084D01*
X033240Y017254D02*
X033300Y017254D01*
X033300Y017136D02*
X033240Y017136D01*
X033240Y017017D02*
X033301Y017017D01*
X033329Y016899D02*
X033213Y016899D01*
X033159Y016780D02*
X033395Y016780D01*
X033529Y016662D02*
X033040Y016662D01*
X032660Y015360D02*
X031960Y014660D01*
X031960Y009160D01*
X034760Y006360D01*
X034760Y003760D01*
X034409Y003390D02*
X034111Y003390D01*
X034229Y003508D02*
X034291Y003508D01*
X034528Y003271D02*
X033992Y003271D01*
X033760Y003760D02*
X033760Y006560D01*
X031660Y008660D01*
X031660Y014360D01*
X030060Y015960D01*
X030060Y017360D01*
X028981Y018321D02*
X027360Y018321D01*
X027363Y018439D02*
X029100Y018439D01*
X029218Y018558D02*
X027482Y018558D01*
X027600Y018676D02*
X029337Y018676D01*
X026556Y020217D02*
X037400Y020217D01*
X037400Y020335D02*
X026674Y020335D01*
X026793Y020454D02*
X037400Y020454D01*
X037400Y020572D02*
X026911Y020572D01*
X027030Y020691D02*
X037400Y020691D01*
X037400Y020809D02*
X027148Y020809D01*
X027267Y020928D02*
X037400Y020928D01*
X037400Y020098D02*
X026437Y020098D01*
X026319Y019980D02*
X037400Y019980D01*
X037400Y019861D02*
X026200Y019861D01*
X026082Y019743D02*
X037400Y019743D01*
X037400Y019624D02*
X037338Y019624D01*
X036782Y019624D02*
X025963Y019624D01*
X025845Y019506D02*
X036671Y019506D01*
X035528Y018084D02*
X035000Y018084D01*
X035134Y017965D02*
X035386Y017965D01*
X035318Y017847D02*
X035202Y017847D01*
X035240Y017728D02*
X035280Y017728D01*
X035280Y017610D02*
X035240Y017610D01*
X035240Y017491D02*
X035280Y017491D01*
X035280Y017373D02*
X035240Y017373D01*
X035240Y017254D02*
X035280Y017254D01*
X035280Y017136D02*
X035240Y017136D01*
X035240Y017017D02*
X035280Y017017D01*
X035307Y016899D02*
X035213Y016899D01*
X035159Y016780D02*
X035361Y016780D01*
X035480Y016662D02*
X035040Y016662D01*
X035760Y017360D02*
X035760Y015760D01*
X035360Y015360D01*
X032660Y015360D01*
X031845Y014884D02*
X031475Y014884D01*
X031594Y014766D02*
X031744Y014766D01*
X031720Y014647D02*
X031712Y014647D01*
X030060Y013960D02*
X030060Y005460D01*
X031760Y003760D01*
X030843Y004338D02*
X012120Y004338D01*
X012120Y004456D02*
X030725Y004456D01*
X030606Y004575D02*
X029670Y004575D01*
X029639Y004562D02*
X029786Y004622D01*
X029898Y004734D01*
X029958Y004881D01*
X029958Y005039D01*
X029898Y005186D01*
X029786Y005298D01*
X029639Y005358D01*
X029586Y005358D01*
X028630Y006314D01*
X028520Y006360D01*
X025723Y006360D01*
X025686Y006398D01*
X025539Y006458D01*
X025381Y006458D01*
X025234Y006398D01*
X025122Y006286D01*
X025062Y006139D01*
X025062Y005981D01*
X025122Y005834D01*
X025234Y005722D01*
X025381Y005662D01*
X025539Y005662D01*
X025686Y005722D01*
X025723Y005760D01*
X028336Y005760D01*
X029162Y004934D01*
X029162Y004881D01*
X029222Y004734D01*
X029334Y004622D01*
X029481Y004562D01*
X029639Y004562D01*
X029450Y004575D02*
X012120Y004575D01*
X012120Y004693D02*
X029264Y004693D01*
X029191Y004812D02*
X012120Y004812D01*
X012120Y004930D02*
X029162Y004930D01*
X029047Y005049D02*
X012120Y005049D01*
X012120Y005167D02*
X028929Y005167D01*
X028810Y005286D02*
X012120Y005286D01*
X012120Y005404D02*
X028692Y005404D01*
X028573Y005523D02*
X012120Y005523D01*
X012120Y005641D02*
X028455Y005641D01*
X028336Y005760D02*
X025723Y005760D01*
X025197Y005760D02*
X012120Y005760D01*
X012120Y005878D02*
X025104Y005878D01*
X025062Y005997D02*
X012120Y005997D01*
X012120Y006115D02*
X025062Y006115D01*
X025101Y006234D02*
X012120Y006234D01*
X012120Y006352D02*
X025189Y006352D01*
X028539Y006352D02*
X029820Y006352D01*
X029820Y006234D02*
X028711Y006234D01*
X028829Y006115D02*
X029820Y006115D01*
X029820Y005997D02*
X028948Y005997D01*
X029066Y005878D02*
X029820Y005878D01*
X029820Y005760D02*
X029185Y005760D01*
X029303Y005641D02*
X029820Y005641D01*
X029820Y005523D02*
X029422Y005523D01*
X029540Y005404D02*
X029823Y005404D01*
X029798Y005286D02*
X029895Y005286D01*
X029905Y005167D02*
X030014Y005167D01*
X029954Y005049D02*
X030132Y005049D01*
X030251Y004930D02*
X029958Y004930D01*
X029929Y004812D02*
X030369Y004812D01*
X030488Y004693D02*
X029856Y004693D01*
X029820Y006471D02*
X012120Y006471D01*
X012120Y006589D02*
X029820Y006589D01*
X029820Y006708D02*
X012120Y006708D01*
X012120Y006826D02*
X029820Y006826D01*
X029820Y006945D02*
X012120Y006945D01*
X012120Y007063D02*
X029820Y007063D01*
X029820Y007182D02*
X012120Y007182D01*
X012120Y007300D02*
X029820Y007300D01*
X029820Y007419D02*
X012120Y007419D01*
X012120Y007537D02*
X029820Y007537D01*
X029820Y007656D02*
X012120Y007656D01*
X012120Y007774D02*
X029820Y007774D01*
X029820Y007893D02*
X012120Y007893D01*
X012120Y008011D02*
X029820Y008011D01*
X029820Y008130D02*
X012120Y008130D01*
X012120Y008248D02*
X029820Y008248D01*
X029820Y008367D02*
X012120Y008367D01*
X012120Y008485D02*
X029820Y008485D01*
X029820Y008604D02*
X012120Y008604D01*
X012120Y008722D02*
X029820Y008722D01*
X029820Y008841D02*
X012120Y008841D01*
X012120Y008959D02*
X029820Y008959D01*
X029820Y009078D02*
X020577Y009078D01*
X020759Y009196D02*
X029820Y009196D01*
X026856Y013225D02*
X020600Y013225D01*
X020600Y013344D02*
X026698Y013344D01*
X026622Y013462D02*
X020600Y013462D01*
X020600Y013581D02*
X026580Y013581D01*
X026580Y013699D02*
X020600Y013699D01*
X020600Y013818D02*
X026580Y013818D01*
X026580Y013936D02*
X020600Y013936D01*
X020600Y014055D02*
X026580Y014055D01*
X026580Y014173D02*
X020600Y014173D01*
X020631Y014292D02*
X026580Y014292D01*
X026603Y014410D02*
X020749Y014410D01*
X020868Y014529D02*
X026652Y014529D01*
X026768Y014647D02*
X020986Y014647D01*
X019963Y015003D02*
X012120Y015003D01*
X012120Y015121D02*
X020082Y015121D01*
X020200Y015240D02*
X012120Y015240D01*
X012120Y015358D02*
X020319Y015358D01*
X020437Y015477D02*
X012120Y015477D01*
X012120Y015595D02*
X020556Y015595D01*
X020674Y015714D02*
X012120Y015714D01*
X012120Y015832D02*
X020793Y015832D01*
X020911Y015951D02*
X012120Y015951D01*
X012120Y016069D02*
X021030Y016069D01*
X021148Y016188D02*
X012120Y016188D01*
X012120Y016306D02*
X021267Y016306D01*
X021385Y016425D02*
X012120Y016425D01*
X012120Y016543D02*
X021504Y016543D01*
X021622Y016662D02*
X012120Y016662D01*
X012120Y016780D02*
X021741Y016780D01*
X021859Y016899D02*
X012120Y016899D01*
X012120Y017017D02*
X021978Y017017D01*
X022096Y017136D02*
X012120Y017136D01*
X012120Y017254D02*
X022215Y017254D01*
X022333Y017373D02*
X012120Y017373D01*
X012120Y017491D02*
X022452Y017491D01*
X022570Y017610D02*
X012120Y017610D01*
X012120Y017728D02*
X022689Y017728D01*
X022807Y017847D02*
X012120Y017847D01*
X012120Y017965D02*
X022926Y017965D01*
X023044Y018084D02*
X012120Y018084D01*
X012120Y018202D02*
X023163Y018202D01*
X023281Y018321D02*
X012120Y018321D01*
X012120Y018439D02*
X023400Y018439D01*
X023518Y018558D02*
X012120Y018558D01*
X012120Y018676D02*
X023637Y018676D01*
X023755Y018795D02*
X012120Y018795D01*
X012120Y018913D02*
X023874Y018913D01*
X023992Y019032D02*
X012120Y019032D01*
X012120Y019150D02*
X024111Y019150D01*
X024229Y019269D02*
X012120Y019269D01*
X012120Y019387D02*
X024348Y019387D01*
X024466Y019506D02*
X012120Y019506D01*
X012120Y019624D02*
X024585Y019624D01*
X024703Y019743D02*
X012120Y019743D01*
X012120Y019861D02*
X024822Y019861D01*
X024940Y019980D02*
X012120Y019980D01*
X012120Y020098D02*
X025059Y020098D01*
X025177Y020217D02*
X012120Y020217D01*
X012120Y020335D02*
X025296Y020335D01*
X025414Y020454D02*
X012120Y020454D01*
X012120Y020572D02*
X025533Y020572D01*
X025651Y020691D02*
X012120Y020691D01*
X012120Y020809D02*
X025770Y020809D01*
X025888Y020928D02*
X012120Y020928D01*
X012120Y021046D02*
X026007Y021046D01*
X026125Y021165D02*
X012120Y021165D01*
X012120Y021283D02*
X026244Y021283D01*
X026362Y021402D02*
X012120Y021402D01*
X012120Y021520D02*
X026481Y021520D01*
X026599Y021639D02*
X012120Y021639D01*
X012120Y021757D02*
X026718Y021757D01*
X026836Y021876D02*
X012120Y021876D01*
X012120Y021994D02*
X026998Y021994D01*
X027060Y021760D02*
X032560Y021760D01*
X032860Y021260D02*
X033760Y022160D01*
X033760Y022760D01*
X034071Y022350D02*
X034449Y022350D01*
X034331Y022468D02*
X034189Y022468D01*
X034843Y023416D02*
X035830Y023416D01*
X035635Y023535D02*
X034725Y023535D01*
X034606Y023653D02*
X035548Y023653D01*
X035500Y023772D02*
X032120Y023772D01*
X032120Y023890D02*
X035500Y023890D01*
X035500Y024009D02*
X032120Y024009D01*
X032120Y024127D02*
X035500Y024127D01*
X035500Y024246D02*
X032120Y024246D01*
X032120Y024364D02*
X035500Y024364D01*
X034952Y024483D02*
X034568Y024483D01*
X034675Y024601D02*
X034845Y024601D01*
X034796Y024720D02*
X034724Y024720D01*
X034740Y024838D02*
X034780Y024838D01*
X034780Y024957D02*
X034740Y024957D01*
X034740Y025075D02*
X034780Y025075D01*
X034780Y025194D02*
X034740Y025194D01*
X034740Y025312D02*
X034780Y025312D01*
X034780Y025431D02*
X034740Y025431D01*
X034691Y025668D02*
X034829Y025668D01*
X034914Y025786D02*
X034606Y025786D01*
X034490Y025905D02*
X034984Y025905D01*
X034865Y026023D02*
X034416Y026023D01*
X034297Y026142D02*
X034747Y026142D01*
X035042Y026497D02*
X035500Y026497D01*
X035500Y026379D02*
X035160Y026379D01*
X035279Y026260D02*
X035500Y026260D01*
X035500Y026142D02*
X035397Y026142D01*
X035490Y026023D02*
X035500Y026023D01*
X035490Y025905D02*
X035500Y025905D01*
X035500Y026616D02*
X034923Y026616D01*
X035500Y026734D02*
X033405Y026734D01*
X033390Y026853D02*
X035500Y026853D01*
X035500Y026971D02*
X033390Y026971D01*
X033390Y027090D02*
X035500Y027090D01*
X035500Y027208D02*
X033390Y027208D01*
X033390Y027327D02*
X035500Y027327D01*
X035500Y027445D02*
X033390Y027445D01*
X033390Y027564D02*
X035500Y027564D01*
X035500Y027682D02*
X033390Y027682D01*
X033390Y027801D02*
X035500Y027801D01*
X035500Y027919D02*
X033390Y027919D01*
X033390Y028038D02*
X035500Y028038D01*
X035500Y028156D02*
X033390Y028156D01*
X033444Y028275D02*
X035500Y028275D01*
X035500Y028393D02*
X033524Y028393D01*
X033558Y028512D02*
X035500Y028512D01*
X035500Y028630D02*
X033558Y028630D01*
X033510Y028749D02*
X035500Y028749D01*
X035500Y028867D02*
X033410Y028867D01*
X032910Y028867D02*
X032890Y028867D01*
X032890Y028986D02*
X035500Y028986D01*
X035500Y029104D02*
X032890Y029104D01*
X032890Y029223D02*
X035500Y029223D01*
X035500Y029341D02*
X032890Y029341D01*
X032890Y029460D02*
X035500Y029460D01*
X035500Y029578D02*
X032890Y029578D01*
X032890Y029697D02*
X035500Y029697D01*
X035500Y029815D02*
X032890Y029815D01*
X032890Y029934D02*
X035500Y029934D01*
X035500Y030052D02*
X032890Y030052D01*
X032890Y030171D02*
X035500Y030171D01*
X035500Y030289D02*
X032890Y030289D01*
X032890Y030408D02*
X035500Y030408D01*
X035500Y030526D02*
X032895Y030526D01*
X033004Y030645D02*
X035500Y030645D01*
X035500Y030763D02*
X033053Y030763D01*
X033058Y030882D02*
X035500Y030882D01*
X035500Y031000D02*
X033030Y031000D01*
X032958Y031119D02*
X035500Y031119D01*
X035500Y031237D02*
X032775Y031237D01*
X032545Y031237D02*
X032120Y031237D01*
X032120Y031119D02*
X032362Y031119D01*
X032290Y031000D02*
X032120Y031000D01*
X032120Y030882D02*
X032262Y030882D01*
X032267Y030763D02*
X032120Y030763D01*
X032120Y030645D02*
X032316Y030645D01*
X032425Y030526D02*
X032120Y030526D01*
X032120Y030408D02*
X032430Y030408D01*
X032430Y030289D02*
X032120Y030289D01*
X032120Y030171D02*
X032430Y030171D01*
X032430Y030052D02*
X032120Y030052D01*
X032120Y029934D02*
X032430Y029934D01*
X032430Y029815D02*
X032120Y029815D01*
X032120Y029697D02*
X032430Y029697D01*
X032430Y029578D02*
X032120Y029578D01*
X032120Y029460D02*
X032430Y029460D01*
X032430Y029341D02*
X032120Y029341D01*
X032120Y029223D02*
X032430Y029223D01*
X032430Y029104D02*
X032120Y029104D01*
X032120Y028986D02*
X032430Y028986D01*
X032430Y028867D02*
X032120Y028867D01*
X032120Y028749D02*
X032430Y028749D01*
X032430Y028630D02*
X032120Y028630D01*
X032120Y028512D02*
X032430Y028512D01*
X032430Y028393D02*
X032120Y028393D01*
X032120Y028275D02*
X032430Y028275D01*
X032430Y028156D02*
X032120Y028156D01*
X032120Y028038D02*
X032430Y028038D01*
X032430Y027919D02*
X032120Y027919D01*
X032120Y027801D02*
X032430Y027801D01*
X032430Y027682D02*
X032120Y027682D01*
X032120Y027564D02*
X032430Y027564D01*
X032430Y027445D02*
X032120Y027445D01*
X032120Y027327D02*
X032430Y027327D01*
X032430Y027208D02*
X032120Y027208D01*
X032120Y027090D02*
X032430Y027090D01*
X032430Y026971D02*
X032120Y026971D01*
X032120Y026853D02*
X032430Y026853D01*
X032430Y026734D02*
X032120Y026734D01*
X032120Y026616D02*
X032430Y026616D01*
X032430Y026497D02*
X032120Y026497D01*
X032120Y026379D02*
X032430Y026379D01*
X032430Y026260D02*
X032120Y026260D01*
X032120Y026142D02*
X032547Y026142D01*
X032665Y026023D02*
X032120Y026023D01*
X032426Y025905D02*
X032784Y025905D01*
X032942Y025786D02*
X032606Y025786D01*
X032691Y025668D02*
X032853Y025668D01*
X032800Y025431D02*
X032740Y025431D01*
X032740Y025312D02*
X032800Y025312D01*
X032740Y025194D02*
X033220Y025194D01*
X033300Y025194D02*
X033780Y025194D01*
X033780Y025312D02*
X033720Y025312D01*
X033720Y025431D02*
X033780Y025431D01*
X033829Y025668D02*
X033667Y025668D01*
X033578Y025786D02*
X033914Y025786D01*
X033780Y025075D02*
X033720Y025075D01*
X033720Y024957D02*
X033780Y024957D01*
X033780Y024838D02*
X033720Y024838D01*
X033700Y024720D02*
X033796Y024720D01*
X033845Y024601D02*
X033645Y024601D01*
X033532Y024483D02*
X033952Y024483D01*
X033300Y024483D02*
X033220Y024483D01*
X033220Y024601D02*
X033300Y024601D01*
X033300Y024720D02*
X033220Y024720D01*
X033220Y024838D02*
X033300Y024838D01*
X033300Y024957D02*
X033220Y024957D01*
X033220Y025075D02*
X033300Y025075D01*
X032800Y025075D02*
X032740Y025075D01*
X032740Y024957D02*
X032800Y024957D01*
X032800Y024838D02*
X032740Y024838D01*
X032724Y024720D02*
X032820Y024720D01*
X032875Y024601D02*
X032675Y024601D01*
X032568Y024483D02*
X032988Y024483D01*
X033414Y023653D02*
X032072Y023653D01*
X031985Y023535D02*
X033295Y023535D01*
X033177Y023416D02*
X031790Y023416D01*
X032062Y023179D02*
X032458Y023179D01*
X032339Y023061D02*
X032181Y023061D01*
X033058Y023298D02*
X012714Y023298D01*
X012120Y022350D02*
X018849Y022350D01*
X014160Y019760D02*
X016260Y017660D01*
X014160Y019760D02*
X013460Y019760D01*
X012120Y014884D02*
X019845Y014884D01*
X019726Y014766D02*
X012120Y014766D01*
X012120Y014647D02*
X019608Y014647D01*
X019529Y014529D02*
X012120Y014529D01*
X012120Y014410D02*
X019520Y014410D01*
X019520Y014292D02*
X012120Y014292D01*
X012120Y014173D02*
X019520Y014173D01*
X019520Y014055D02*
X012120Y014055D01*
X012120Y013936D02*
X019520Y013936D01*
X019520Y013818D02*
X012120Y013818D01*
X012120Y013699D02*
X019520Y013699D01*
X019520Y013581D02*
X012120Y013581D01*
X012120Y013462D02*
X019520Y013462D01*
X019520Y013344D02*
X012120Y013344D01*
X012120Y013225D02*
X019520Y013225D01*
X019520Y013107D02*
X012120Y013107D01*
X012120Y012988D02*
X019520Y012988D01*
X019520Y012870D02*
X012120Y012870D01*
X012120Y012751D02*
X019520Y012751D01*
X019520Y012633D02*
X012120Y012633D01*
X012120Y012514D02*
X019520Y012514D01*
X019520Y012396D02*
X012120Y012396D01*
X012120Y012277D02*
X019520Y012277D01*
X019520Y012159D02*
X012120Y012159D01*
X012120Y012040D02*
X019520Y012040D01*
X019520Y011922D02*
X012120Y011922D01*
X012120Y011803D02*
X019520Y011803D01*
X019520Y011685D02*
X012120Y011685D01*
X012120Y011566D02*
X019520Y011566D01*
X019520Y011448D02*
X012120Y011448D01*
X012120Y011329D02*
X019520Y011329D01*
X019520Y011211D02*
X012120Y011211D01*
X012120Y011092D02*
X019520Y011092D01*
X019520Y010974D02*
X012120Y010974D01*
X012120Y010855D02*
X019520Y010855D01*
X019520Y010737D02*
X012120Y010737D01*
X012120Y010618D02*
X019520Y010618D01*
X019520Y010500D02*
X012120Y010500D01*
X012120Y010381D02*
X019520Y010381D01*
X019520Y010263D02*
X012120Y010263D01*
X012120Y010144D02*
X019520Y010144D01*
X019520Y010026D02*
X012120Y010026D01*
X012120Y009907D02*
X019444Y009907D01*
X019382Y009789D02*
X012120Y009789D01*
X012120Y009670D02*
X019362Y009670D01*
X019374Y009552D02*
X012120Y009552D01*
X012120Y009433D02*
X019424Y009433D01*
X019554Y009315D02*
X012120Y009315D01*
X012120Y009196D02*
X020161Y009196D01*
X020089Y009315D02*
X019966Y009315D01*
X019760Y009660D02*
X019760Y014460D01*
X027060Y021760D01*
X026849Y022350D02*
X026471Y022350D01*
X026589Y022468D02*
X026731Y022468D01*
X026739Y023061D02*
X026581Y023061D01*
X026462Y023179D02*
X026858Y023179D01*
X027462Y023179D02*
X027858Y023179D01*
X027739Y023061D02*
X027581Y023061D01*
X027589Y022468D02*
X027731Y022468D01*
X027849Y022350D02*
X027471Y022350D01*
X029235Y023535D02*
X025585Y023535D01*
X025672Y023653D02*
X029148Y023653D01*
X029100Y023772D02*
X025720Y023772D01*
X025720Y023890D02*
X029100Y023890D01*
X029100Y024009D02*
X025720Y024009D01*
X025720Y024127D02*
X029100Y024127D01*
X029100Y024246D02*
X025720Y024246D01*
X025720Y024364D02*
X029100Y024364D01*
X029100Y024483D02*
X028977Y024483D01*
X028743Y024483D02*
X027977Y024483D01*
X027743Y024483D02*
X025977Y024483D01*
X025743Y024483D02*
X025720Y024483D01*
X026186Y024601D02*
X026563Y024601D01*
X026463Y024720D02*
X026283Y024720D01*
X026332Y024838D02*
X026414Y024838D01*
X026400Y024957D02*
X026340Y024957D01*
X026340Y025075D02*
X026400Y025075D01*
X026400Y025194D02*
X026340Y025194D01*
X026340Y025312D02*
X026400Y025312D01*
X026400Y025431D02*
X026340Y025431D01*
X026340Y025549D02*
X026400Y025549D01*
X026413Y025668D02*
X026332Y025668D01*
X026283Y025786D02*
X026462Y025786D01*
X026560Y025905D02*
X026188Y025905D01*
X025981Y026023D02*
X026565Y026023D01*
X026447Y026142D02*
X025720Y026142D01*
X025720Y026260D02*
X026328Y026260D01*
X026210Y026379D02*
X025720Y026379D01*
X025720Y026497D02*
X026091Y026497D01*
X026030Y026616D02*
X025720Y026616D01*
X025720Y026734D02*
X026030Y026734D01*
X026030Y026853D02*
X025720Y026853D01*
X025720Y026971D02*
X026030Y026971D01*
X026030Y027090D02*
X025720Y027090D01*
X025720Y027208D02*
X026030Y027208D01*
X026030Y027327D02*
X025720Y027327D01*
X025720Y027445D02*
X026030Y027445D01*
X026030Y027564D02*
X025720Y027564D01*
X025720Y027682D02*
X026030Y027682D01*
X026030Y027801D02*
X025720Y027801D01*
X025720Y027919D02*
X026030Y027919D01*
X026030Y028038D02*
X025720Y028038D01*
X025720Y028156D02*
X026030Y028156D01*
X026030Y028275D02*
X025720Y028275D01*
X025720Y028393D02*
X026030Y028393D01*
X026030Y028512D02*
X025720Y028512D01*
X025720Y028630D02*
X026030Y028630D01*
X026030Y028749D02*
X025720Y028749D01*
X025720Y028867D02*
X026030Y028867D01*
X026030Y028986D02*
X025720Y028986D01*
X025720Y029104D02*
X026030Y029104D01*
X026030Y029223D02*
X025720Y029223D01*
X025720Y029341D02*
X026030Y029341D01*
X026030Y029460D02*
X025720Y029460D01*
X025720Y029578D02*
X026030Y029578D01*
X026030Y029697D02*
X025720Y029697D01*
X025720Y029815D02*
X026030Y029815D01*
X026030Y029934D02*
X025720Y029934D01*
X025720Y030052D02*
X026030Y030052D01*
X026030Y030171D02*
X025720Y030171D01*
X025720Y030289D02*
X026030Y030289D01*
X026030Y030408D02*
X025720Y030408D01*
X025720Y030526D02*
X025925Y030526D01*
X025874Y030645D02*
X025720Y030645D01*
X025720Y030763D02*
X025862Y030763D01*
X025882Y030882D02*
X025720Y030882D01*
X025720Y031000D02*
X025943Y031000D01*
X026101Y031119D02*
X025720Y031119D01*
X025720Y031237D02*
X029100Y031237D01*
X029100Y031119D02*
X026419Y031119D01*
X026577Y031000D02*
X029100Y031000D01*
X029100Y030882D02*
X026638Y030882D01*
X026658Y030763D02*
X029100Y030763D01*
X029100Y030645D02*
X026646Y030645D01*
X026595Y030526D02*
X029100Y030526D01*
X029100Y030408D02*
X026490Y030408D01*
X026490Y030289D02*
X029100Y030289D01*
X029100Y030171D02*
X026490Y030171D01*
X026490Y030052D02*
X029100Y030052D01*
X029100Y029934D02*
X026490Y029934D01*
X026490Y029815D02*
X029100Y029815D01*
X029100Y029697D02*
X026490Y029697D01*
X026490Y029578D02*
X029100Y029578D01*
X029100Y029460D02*
X026490Y029460D01*
X026490Y029341D02*
X029100Y029341D01*
X029100Y029223D02*
X026490Y029223D01*
X026490Y029104D02*
X029100Y029104D01*
X029100Y028986D02*
X026490Y028986D01*
X026490Y028867D02*
X029100Y028867D01*
X029100Y028749D02*
X027028Y028749D01*
X027118Y028630D02*
X029100Y028630D01*
X029100Y028512D02*
X027158Y028512D01*
X027158Y028393D02*
X029100Y028393D01*
X029100Y028275D02*
X027117Y028275D01*
X027025Y028156D02*
X029100Y028156D01*
X029100Y028038D02*
X026990Y028038D01*
X026990Y027919D02*
X029100Y027919D01*
X029100Y027801D02*
X026990Y027801D01*
X026990Y027682D02*
X029100Y027682D01*
X029100Y027564D02*
X026990Y027564D01*
X026990Y027445D02*
X029100Y027445D01*
X029100Y027327D02*
X026990Y027327D01*
X026990Y027208D02*
X029100Y027208D01*
X029100Y027090D02*
X026990Y027090D01*
X026990Y026971D02*
X029100Y026971D01*
X029100Y026853D02*
X027086Y026853D01*
X027879Y026260D02*
X028228Y026260D01*
X028347Y026142D02*
X027997Y026142D01*
X028090Y026023D02*
X028465Y026023D01*
X028532Y025905D02*
X028188Y025905D01*
X028283Y025786D02*
X028437Y025786D01*
X028388Y025668D02*
X028332Y025668D01*
X028340Y025549D02*
X028380Y025549D01*
X028380Y025431D02*
X028340Y025431D01*
X028340Y025312D02*
X028380Y025312D01*
X028380Y025194D02*
X028340Y025194D01*
X028340Y025075D02*
X028380Y025075D01*
X028380Y024957D02*
X028340Y024957D01*
X028332Y024838D02*
X028388Y024838D01*
X028437Y024720D02*
X028283Y024720D01*
X028186Y024601D02*
X028534Y024601D01*
X027534Y024601D02*
X027157Y024601D01*
X027257Y024720D02*
X027437Y024720D01*
X027388Y024838D02*
X027306Y024838D01*
X027320Y024957D02*
X027380Y024957D01*
X027380Y025075D02*
X027320Y025075D01*
X027320Y025194D02*
X027380Y025194D01*
X027380Y025312D02*
X027320Y025312D01*
X027320Y025431D02*
X027380Y025431D01*
X027380Y025549D02*
X027320Y025549D01*
X027307Y025668D02*
X027388Y025668D01*
X027437Y025786D02*
X027258Y025786D01*
X027160Y025905D02*
X027532Y025905D01*
X026900Y025194D02*
X026820Y025194D01*
X026820Y025075D02*
X026900Y025075D01*
X026900Y024957D02*
X026820Y024957D01*
X026820Y024838D02*
X026900Y024838D01*
X026900Y024720D02*
X026820Y024720D01*
X026820Y024601D02*
X026900Y024601D01*
X025739Y026023D02*
X025720Y026023D01*
X028405Y026734D02*
X029100Y026734D01*
X029100Y026616D02*
X028523Y026616D01*
X028642Y026497D02*
X029100Y026497D01*
X029100Y026379D02*
X028760Y026379D01*
X028879Y026260D02*
X029100Y026260D01*
X029100Y026142D02*
X028997Y026142D01*
X029090Y026023D02*
X029100Y026023D01*
X026492Y028749D02*
X026490Y028749D01*
X025720Y031356D02*
X029100Y031356D01*
X029100Y031474D02*
X025720Y031474D01*
X025720Y031593D02*
X029100Y031593D01*
X029100Y031711D02*
X025720Y031711D01*
X025720Y031830D02*
X029100Y031830D01*
X029100Y031948D02*
X025720Y031948D01*
X025720Y032067D02*
X029100Y032067D01*
X029100Y032185D02*
X025720Y032185D01*
X032120Y032185D02*
X035500Y032185D01*
X035500Y032067D02*
X032120Y032067D01*
X032120Y031948D02*
X035500Y031948D01*
X035500Y031830D02*
X032120Y031830D01*
X032120Y031711D02*
X035500Y031711D01*
X035500Y031593D02*
X032120Y031593D01*
X032120Y031474D02*
X035500Y031474D01*
X035500Y031356D02*
X032120Y031356D01*
X036062Y023179D02*
X036458Y023179D01*
X036339Y023061D02*
X036181Y023061D01*
X036189Y022468D02*
X036331Y022468D01*
X036449Y022350D02*
X036071Y022350D01*
X015900Y028512D02*
X013707Y028512D01*
X013756Y028630D02*
X015900Y028630D01*
X015900Y028749D02*
X013758Y028749D01*
X013727Y028867D02*
X015900Y028867D01*
X015900Y028986D02*
X013651Y028986D01*
X013458Y029104D02*
X015900Y029104D01*
X015900Y029223D02*
X013190Y029223D01*
X013190Y029341D02*
X015900Y029341D01*
X015900Y029460D02*
X013190Y029460D01*
X013190Y029578D02*
X015900Y029578D01*
X015900Y029697D02*
X013190Y029697D01*
X013190Y029815D02*
X015900Y029815D01*
X015900Y029934D02*
X013190Y029934D01*
X013190Y030052D02*
X015900Y030052D01*
X015900Y030171D02*
X013272Y030171D01*
X013398Y030289D02*
X015900Y030289D01*
X015900Y030408D02*
X013447Y030408D01*
X013458Y030526D02*
X015900Y030526D01*
X015900Y030645D02*
X013437Y030645D01*
X013374Y030763D02*
X015900Y030763D01*
X015900Y030882D02*
X013212Y030882D01*
X013190Y029104D02*
X013262Y029104D01*
X012539Y026023D02*
X012420Y026023D01*
X012120Y009078D02*
X020343Y009078D01*
X038346Y007774D02*
X038400Y007774D01*
X038400Y006945D02*
X038342Y006945D01*
D16*
X035260Y025154D02*
X035260Y025954D01*
X034760Y026454D01*
X033360Y026454D01*
X033160Y026654D01*
X033160Y028554D01*
X032660Y026354D02*
X032960Y026054D01*
X034060Y026054D01*
X034260Y025854D01*
X034260Y025154D01*
X032660Y026354D02*
X032660Y030854D01*
X026760Y028454D02*
X026760Y026854D01*
X027060Y026554D01*
X028260Y026554D01*
X028860Y025954D01*
X028860Y025254D01*
X027860Y025254D02*
X027860Y025954D01*
X027660Y026154D01*
X026760Y026154D01*
X026260Y026654D01*
X026260Y030754D01*
X015640Y025994D02*
X015640Y025514D01*
X015520Y025394D01*
X015660Y025254D01*
X015640Y025994D02*
X013360Y028274D01*
X013360Y028714D01*
X012960Y027794D02*
X014680Y026074D01*
X014680Y025274D01*
X014660Y025254D01*
X012960Y027794D02*
X012960Y030414D01*
X013060Y030514D01*
M02*
